<svg xmlns="http://www.w3.org/2000/svg" width="665" height="862" viewBox="0 0 665 862" fill="none"><path opacity="0.1" fill-rule="evenodd" clip-rule="evenodd" d="M126.827 -241.665C276.881 -222.427 325.136 -43.0146 419.54 75.1976C514.097 193.601 677.434 280.34 664.248 431.292C649.904 595.506 516.95 746.105 357.339 787.292C216.29 823.689 111.575 675.735 -16.8888 607.057C-132.904 545.035 -288.119 536.248 -339.095 414.972C-398.008 274.811 -366.019 109.757 -278.036 -14.2389C-183.796 -147.054 -34.7037 -262.375 126.827 -241.665Z" fill="#F47C7C"></path><path opacity="0.32" fill-rule="evenodd" clip-rule="evenodd" d="M116.873 -173.58C266.926 -154.342 315.182 25.0703 409.586 143.283C504.142 261.686 667.479 348.425 654.294 499.377C639.95 663.59 506.995 814.19 347.385 855.377C206.336 891.774 101.62 743.82 -26.8431 675.142C-142.858 613.12 -298.074 604.333 -349.049 483.057C-407.963 342.896 -375.973 177.842 -287.991 53.8461C-193.751 -78.9691 -44.6581 -194.29 116.873 -173.58Z" stroke="#F47C7C"></path></svg>