<svg xmlns="http://www.w3.org/2000/svg" width="600" height="640" viewBox="0 0 600 640" fill="none"><path opacity="0.24" fill-rule="evenodd" clip-rule="evenodd" d="M856.232 -51.8154C855.678 43.776 733.158 76.1875 658.088 135.37C583.981 193.794 524.007 305.555 432.581 282.178C341.504 258.89 344.182 131.729 306.691 45.5213C272.423 -33.2749 205.852 -103.888 228.657 -186.731C255.915 -285.753 327.456 -387.037 429.337 -400.021C526.735 -412.434 584.186 -303.799 660.271 -241.739C734.433 -181.247 856.786 -147.517 856.232 -51.8154Z" fill="#F47C7C"></path><path opacity="0.24" fill-rule="evenodd" clip-rule="evenodd" d="M400.232 733.185C399.678 828.776 277.158 861.187 202.088 920.37C127.981 978.794 68.0068 1090.55 -23.4192 1067.18C-114.496 1043.89 -111.818 916.729 -149.309 830.521C-183.577 751.725 -250.148 681.112 -227.343 598.269C-200.085 499.247 -128.543 397.963 -26.6631 384.979C70.7347 372.566 128.186 481.201 204.271 543.261C278.433 603.753 400.786 637.483 400.232 733.185Z" fill="white"></path></svg>