<svg xmlns="http://www.w3.org/2000/svg" width="401" height="757" viewBox="0 0 401 757" fill="none"><path opacity="0.1" fill-rule="evenodd" clip-rule="evenodd" d="M632.232 349.185C631.678 444.776 509.158 477.187 434.088 536.37C359.981 594.794 300.007 706.555 208.581 683.178C117.504 659.89 120.182 532.729 82.6908 446.521C48.4231 367.725 -18.1478 297.112 4.65685 214.269C31.9148 115.247 103.457 13.9627 205.337 0.978531C302.735 -11.4344 360.186 97.201 436.271 159.261C510.433 219.753 632.786 253.483 632.232 349.185Z" fill="#51AC8F"></path><path opacity="0.32" d="M631.738 419.182C631.463 466.721 600.876 498.592 560.827 526.018C543.886 537.62 525.28 548.407 506.591 559.243C503.192 561.214 499.79 563.186 496.395 565.165C474.343 578.02 452.583 591.158 433.785 605.977C415.227 620.608 397.562 638.57 380.09 656.899C377.398 659.722 374.711 662.554 372.026 665.384C357.273 680.934 342.58 696.42 327.5 710.079C291.844 742.373 254.168 764.316 208.711 752.693C163.432 741.116 141.41 703.726 126.021 658.284C119.749 639.764 114.589 619.939 109.403 600.013C108.227 595.498 107.051 590.977 105.86 586.465C99.4152 562.056 92.545 537.912 83.1557 516.322C74.5774 496.597 63.9798 477.389 53.2764 458.394C52.1118 456.327 50.946 454.263 49.7814 452.201C40.2383 435.304 30.776 418.551 22.7293 401.697C4.67363 363.881 -6.20985 325.652 5.14525 284.401C18.7576 234.951 43.426 184.944 77.3979 145.687C111.369 106.431 154.62 77.947 205.406 71.4745C253.88 65.2968 292.447 89.2248 328.463 122.559C343.676 136.64 358.414 152.38 373.243 168.217C375.967 171.127 378.695 174.039 381.428 176.945C399.036 195.663 416.912 214.111 435.962 229.649C454.532 244.797 476.112 258.263 498.004 271.427C501.589 273.584 505.183 275.732 508.774 277.878C527.115 288.84 545.367 299.749 561.989 311.428C601.744 339.361 632.014 371.588 631.738 419.182Z" stroke="#51AC8F"></path></svg>