<svg width="127" height="33" viewBox="0 0 127 33" fill="none" xmlns="http://www.w3.org/2000/svg">
<path d="M28.76 9.52C31.4533 9.52 33.5733 10.36 35.12 12.04C36.6933 13.6933 37.48 16.0533 37.48 19.12V32H31.88V19.76C31.88 18.0533 31.44 16.7467 30.56 15.84C29.7067 14.9067 28.52 14.44 27 14.44C25.4267 14.44 24.1733 14.9333 23.24 15.92C22.3067 16.9067 21.84 18.3467 21.84 20.24V32H16.24V19.76C16.24 18.0533 15.8 16.7467 14.92 15.84C14.0667 14.9067 12.88 14.44 11.36 14.44C9.78667 14.44 8.53333 14.9333 7.6 15.92C6.66667 16.9067 6.2 18.3467 6.2 20.24V32H0.56V9.84H6.2V14.04C6.78667 12.6 7.70667 11.4933 8.96 10.72C10.24 9.92 11.72 9.52 13.4 9.52C15.1867 9.52 16.7333 9.94667 18.04 10.8C19.3733 11.6533 20.3733 12.88 21.04 14.48C21.7333 12.96 22.76 11.76 24.12 10.88C25.5067 9.97333 27.0533 9.52 28.76 9.52ZM52.675 9.56C54.835 9.56 56.7683 10.0133 58.475 10.92C60.2083 11.8267 61.5683 13.1467 62.555 14.88C63.5417 16.5867 64.035 18.6 64.035 20.92C64.035 23.24 63.5417 25.2533 62.555 26.96C61.5683 28.6667 60.2083 29.9867 58.475 30.92C56.7683 31.8267 54.835 32.28 52.675 32.28C50.515 32.28 48.5683 31.8267 46.835 30.92C45.1283 29.9867 43.7817 28.6667 42.795 26.96C41.8083 25.2533 41.315 23.24 41.315 20.92C41.315 18.6 41.8083 16.5867 42.795 14.88C43.7817 13.1467 45.1283 11.8267 46.835 10.92C48.5683 10.0133 50.515 9.56 52.675 9.56ZM52.675 14.44C51.1017 14.44 49.7683 15 48.675 16.12C47.5817 17.2133 47.035 18.8133 47.035 20.92C47.035 23.0267 47.5817 24.64 48.675 25.76C49.7683 26.8533 51.1017 27.4 52.675 27.4C54.2483 27.4 55.5817 26.8533 56.675 25.76C57.7683 24.64 58.315 23.0267 58.315 20.92C58.315 18.8133 57.7683 17.2133 56.675 16.12C55.5817 15 54.2483 14.44 52.675 14.44ZM78.2609 9.56C80.4209 9.56 82.3543 10.0133 84.0609 10.92C85.7943 11.8267 87.1543 13.1467 88.1409 14.88C89.1276 16.5867 89.6209 18.6 89.6209 20.92C89.6209 23.24 89.1276 25.2533 88.1409 26.96C87.1543 28.6667 85.7943 29.9867 84.0609 30.92C82.3543 31.8267 80.4209 32.28 78.2609 32.28C76.1009 32.28 74.1543 31.8267 72.4209 30.92C70.7143 29.9867 69.3676 28.6667 68.3809 26.96C67.3943 25.2533 66.9009 23.24 66.9009 20.92C66.9009 18.6 67.3943 16.5867 68.3809 14.88C69.3676 13.1467 70.7143 11.8267 72.4209 10.92C74.1543 10.0133 76.1009 9.56 78.2609 9.56ZM78.2609 14.44C76.6876 14.44 75.3543 15 74.2609 16.12C73.1676 17.2133 72.6209 18.8133 72.6209 20.92C72.6209 23.0267 73.1676 24.64 74.2609 25.76C75.3543 26.8533 76.6876 27.4 78.2609 27.4C79.8343 27.4 81.1676 26.8533 82.2609 25.76C83.3543 24.64 83.9009 23.0267 83.9009 20.92C83.9009 18.8133 83.3543 17.2133 82.2609 16.12C81.1676 15 79.8343 14.44 78.2609 14.44ZM106.807 9.52C109.367 9.52 111.407 10.36 112.927 12.04C114.447 13.72 115.207 16.08 115.207 19.12V32H109.607V19.76C109.607 18 109.154 16.64 108.247 15.68C107.34 14.6933 106.1 14.2 104.527 14.2C102.927 14.2 101.647 14.72 100.687 15.76C99.7269 16.8 99.2469 18.2933 99.2469 20.24V32H93.6069V9.84H99.2469V14.28C99.8335 12.7867 100.794 11.6267 102.127 10.8C103.487 9.94667 105.047 9.52 106.807 9.52ZM119.529 3.48C119.529 2.57333 119.849 1.84 120.489 1.28C121.129 0.693333 121.969 0.399999 123.009 0.399999C124.049 0.399999 124.889 0.693333 125.529 1.28C126.169 1.84 126.489 2.57333 126.489 3.48C126.489 4.36 126.169 5.09333 125.529 5.68C124.889 6.24 124.049 6.52 123.009 6.52C121.969 6.52 121.129 6.24 120.489 5.68C119.849 5.09333 119.529 4.36 119.529 3.48ZM125.809 9.84V32H120.169V9.84H125.809Z" fill="white"/>
</svg>
