<svg xmlns="http://www.w3.org/2000/svg" xmlns:xlink="http://www.w3.org/1999/xlink" xmlns:serif="http://www.serif.com/" width="100%" height="100%" viewBox="0 0 250 150" xml:space="preserve" style="fill-rule:evenodd;clip-rule:evenodd;stroke-linejoin:round;stroke-miterlimit:2;">
    <g transform="matrix(2.81899,0,0,2.81899,-125.559,-66.316)">
        <path d="M89.829,67.956L89.152,65.914L88.475,67.956L86.284,67.956L88.056,69.218L87.379,71.26L89.152,69.998L90.925,71.26L90.247,69.218L92.02,67.956L89.829,67.956ZM82.229,67.956L81.552,65.914L80.875,67.956L78.684,67.956L80.456,69.218L79.779,71.26L81.552,69.998L83.325,71.26L82.647,69.218L84.42,67.956L82.229,67.956ZM105.075,67.956L104.412,65.914L103.748,67.956L101.601,67.956L103.338,69.218L102.675,71.26L104.412,69.998L106.149,71.26L105.485,69.218L107.223,67.956L105.075,67.956ZM97.429,67.956L96.751,65.914L96.074,67.956L93.883,67.956L95.656,69.218L94.979,71.26L96.751,69.998L98.524,71.26L97.847,69.218L99.62,67.956L97.429,67.956ZM74.555,67.955L73.892,65.913L73.228,67.955L71.081,67.955L72.818,69.218L72.155,71.26L73.892,69.998L75.629,71.26L74.966,69.218L76.703,67.955L74.555,67.955ZM66.803,68.682C67.564,67.235 66.81,65.537 66.21,64.282C65.501,62.798 64.531,61.285 63.144,60.199C61.811,61.347 61.938,62.99 62.334,64.418C62.805,66.116 64.438,67.563 66.129,68.388C64.171,67.657 62.032,67.219 59.997,67.09L59.791,67.076C58.156,66.97 56.028,66.831 54.726,68.027C56.695,69.702 59.493,70.668 61.958,70.618C63.611,70.584 65.878,70.388 66.803,68.682ZM115.787,70.613C114.135,70.578 111.868,70.381 110.944,68.674L110.931,68.65C110.193,67.208 110.943,65.522 111.541,64.274C112.252,62.79 113.223,61.278 114.611,60.193C115.943,61.343 115.814,62.985 115.417,64.413C114.944,66.11 113.31,67.556 111.618,68.38C113.577,67.651 115.716,67.214 117.751,67.086L117.958,67.073C119.593,66.968 121.721,66.831 123.022,68.028C121.051,69.701 118.253,70.665 115.787,70.613ZM60.812,60.878C60.986,62.208 60.981,63.894 59.949,64.918C58.659,66.238 56.663,65.983 55.123,65.693C53.056,65.302 50.729,63.893 49.481,62.015C51.005,61.176 52.868,61.713 54.376,62.147L54.462,62.172C56.145,62.656 57.939,63.436 59.439,64.502C58.242,63.42 57.369,61.833 57.327,60.232C57.288,58.801 57.91,57.269 59.247,56.587C60.18,57.812 60.617,59.385 60.812,60.878ZM116.942,60.874C116.767,62.204 116.77,63.89 117.802,64.914C119.09,66.236 121.087,65.982 122.627,65.693C124.695,65.304 127.023,63.896 128.272,62.019C126.75,61.18 124.886,61.715 123.378,62.148L123.291,62.173C121.608,62.655 119.814,63.434 118.313,64.498C119.511,63.417 120.384,61.831 120.428,60.231C120.468,58.799 119.848,57.268 118.512,56.584C117.577,57.809 117.139,59.381 116.942,60.874ZM122.958,59.871C123.758,58.653 124.037,57.128 123.71,55.697C123.4,54.341 122.457,53.103 121.082,52.718C120.509,54.024 120.499,55.543 120.707,56.921C120.901,58.196 121.375,59.684 122.553,60.395C124.008,61.317 125.707,60.772 127.102,60.22C128.902,59.508 130.527,57.785 131.287,55.933C129.714,55.435 128.106,56.257 126.795,56.939C125.439,57.645 124.023,58.651 122.958,59.871ZM55.195,60.399C56.38,59.69 56.856,58.2 57.051,56.923C57.261,55.545 57.252,54.026 56.68,52.719C55.306,53.103 54.362,54.34 54.05,55.696C53.721,57.128 53.999,58.654 54.8,59.873C53.735,58.652 52.32,57.643 50.963,56.936C49.653,56.253 48.045,55.429 46.472,55.927C47.231,57.779 48.854,59.503 50.653,60.216C52.046,60.768 53.741,61.314 55.195,60.399ZM110.289,58.917L109.814,58.917L109.78,58.459C109.635,58.691 109.328,58.969 108.68,58.969C107.585,58.969 107.076,58.309 107.076,56.624C107.076,55.321 107.4,54.273 108.737,54.273C109.896,54.273 110.249,55.032 110.266,55.848L109.687,55.848C109.67,55.315 109.432,54.823 108.749,54.823C107.927,54.823 107.689,55.315 107.689,56.641C107.689,58.025 107.985,58.459 108.761,58.459C109.305,58.459 109.623,58.158 109.728,57.799L109.728,56.937L108.558,56.937L108.558,56.41L110.283,56.41L110.283,57.741L110.289,58.917ZM93.75,54.331L93.75,58.917L93.147,58.917L93.147,54.331L93.75,54.331ZM101.274,54.331L101.274,58.917L100.608,58.917L98.9,55.362L98.9,58.917L98.338,58.917L98.338,54.331L99.039,54.331L100.707,57.834L100.707,54.331L101.274,54.331ZM77.936,57.765L76.315,57.765L75.967,58.917L75.359,58.917L76.795,54.331L77.542,54.331L78.886,58.917L78.272,58.917L77.936,57.765ZM97.519,54.331L97.519,58.917L96.853,58.917L95.145,55.362L95.145,58.917L94.584,58.917L94.584,54.331L95.284,54.331L96.952,57.834L96.952,54.331L97.519,54.331ZM86.061,56.549C86.061,57.631 85.98,58.071 85.748,58.402C85.517,58.72 85.152,58.917 84.561,58.917L82.986,58.917L82.986,54.331L84.521,54.331C85.1,54.331 85.551,54.505 85.76,54.817C85.992,55.153 86.061,55.57 86.061,56.549ZM102.695,54.331L102.695,58.917L102.093,58.917L102.093,54.331L102.695,54.331ZM106.465,54.331L106.465,58.917L105.799,58.917L104.091,55.362L104.091,58.917L103.529,58.917L103.529,54.331L104.23,54.331L105.898,57.834L105.898,54.331L106.465,54.331ZM75.002,54.331L75.558,54.331L74.476,58.917L73.786,58.917C73.786,58.917 73.016,55.35 73.016,55.199C73.01,55.35 72.223,58.917 72.223,58.917L71.534,58.917L70.451,54.331L71.077,54.331C71.077,54.331 71.916,57.961 71.916,58.106C71.916,57.961 72.686,54.331 72.686,54.331L73.375,54.331C73.375,54.331 74.145,57.967 74.145,58.106C74.145,57.967 75.002,54.331 75.002,54.331ZM92.17,54.331L92.726,54.331L91.643,58.917L90.954,58.917C90.954,58.917 90.184,55.35 90.184,55.199C90.178,55.35 89.391,58.917 89.391,58.917L88.702,58.917L87.619,54.331L88.244,54.331C88.244,54.331 89.084,57.961 89.084,58.106C89.084,57.961 89.854,54.331 89.854,54.331L90.543,54.331C90.543,54.331 91.313,57.967 91.313,58.106C91.313,57.967 92.17,54.331 92.17,54.331ZM81.117,54.331C81.824,54.331 82.206,54.661 82.206,55.622C82.206,56.439 81.899,56.711 81.58,56.803L82.461,58.917L81.824,58.917L81.007,56.919L79.896,56.919L79.896,58.917L79.316,58.917L79.316,54.331L81.117,54.331ZM68.037,57.765L69.658,57.765L69.994,58.917L70.608,58.917L69.264,54.331L68.517,54.331L67.081,58.917L67.689,58.917L68.037,57.765ZM84.44,58.373C84.793,58.373 85.088,58.28 85.239,58.077C85.401,57.857 85.447,57.411 85.447,56.549C85.447,55.825 85.407,55.437 85.239,55.188C85.082,54.974 84.781,54.881 84.428,54.881L83.571,54.881L83.571,58.373L84.44,58.373ZM69.513,57.249L68.193,57.249C68.193,57.249 68.766,55.396 68.778,55.356C68.784,55.327 68.876,54.916 68.876,54.916L68.969,55.356C68.975,55.385 69.513,57.249 69.513,57.249ZM76.471,57.249L77.791,57.249C77.791,57.249 77.253,55.385 77.247,55.356L77.154,54.916C77.154,54.916 77.062,55.327 77.056,55.356C77.044,55.396 76.471,57.249 76.471,57.249ZM81.03,56.398C81.488,56.398 81.598,56.161 81.598,55.64C81.598,55.049 81.424,54.869 81.001,54.869L79.901,54.869L79.901,56.398L81.03,56.398ZM125.631,50.905C126.267,52.169 126.388,53.673 125.897,54.997C126.621,53.635 127.68,52.533 128.801,51.515C129.82,50.59 131.288,49.615 132.765,49.8C132.483,51.626 131.366,53.52 129.868,54.494C128.664,55.276 127.205,56.05 125.672,55.465C124.411,55.021 123.61,53.751 123.118,52.585C122.597,51.352 122.25,49.93 122.493,48.581C123.876,48.705 125.023,49.696 125.631,50.905ZM47.893,54.488C49.097,55.272 50.558,56.048 52.093,55.461C53.352,55.016 54.153,53.748 54.645,52.585C55.167,51.352 55.515,49.931 55.274,48.581C53.89,48.704 52.743,49.694 52.133,50.903C51.496,52.166 51.374,53.67 51.863,54.994C51.14,53.632 50.083,52.529 48.963,51.51C47.944,50.584 46.477,49.609 45,49.792C45.281,51.619 46.396,53.514 47.893,54.488ZM100.059,48.802C100.059,47.325 99.121,46.55 96.934,46.312C96.578,46.269 95.533,46.161 94.875,46.108C93.183,45.924 92.677,45.828 92.677,45.396C92.677,45.009 93.076,44.825 94.595,44.825C95.673,44.825 96.276,45.03 96.513,45.343C96.632,45.493 96.675,45.612 96.686,45.731L99.789,45.731C99.757,45.472 99.649,45.105 99.477,44.782C98.916,43.705 97.569,42.842 94.671,42.842C91.405,42.842 89.616,43.996 89.616,45.504C89.616,46.959 90.629,47.81 93.367,48.058L95.22,48.231C96.653,48.382 97.041,48.478 97.041,48.931C97.041,49.351 96.664,49.578 95.08,49.578C93.852,49.578 93.129,49.394 92.871,49.082C92.763,48.953 92.688,48.759 92.666,48.629L89.563,48.629C89.595,48.845 89.649,49.19 89.767,49.47C90.295,50.655 91.675,51.561 94.875,51.561C98.313,51.561 100.059,50.591 100.059,48.802ZM110.545,45.095L110.545,42.972L100.448,42.972L100.448,45.095L104.015,45.095L104.015,51.431L106.967,51.431L106.967,45.095L110.545,45.095ZM78.057,50.569C78.38,50.192 78.542,49.621 78.542,49.039C78.542,48.543 78.413,48.069 78.143,47.756C77.82,47.336 77.249,47.034 76.645,46.959C77.055,46.905 77.443,46.69 77.669,46.409C77.949,46.075 78.079,45.623 78.079,45.073C78.079,44.524 77.917,44.039 77.551,43.672C77.141,43.252 76.397,42.972 75.234,42.972L67.927,42.972L67.927,51.431L75.438,51.431C76.635,51.431 77.561,51.173 78.057,50.569ZM88.689,49.33L88.689,51.431L79.777,51.431L79.777,42.972L88.614,42.972L88.614,45.084L82.622,45.084L82.622,46.172L88.441,46.172L88.441,48.231L82.622,48.231L82.622,49.33L88.689,49.33ZM127.535,49.739C127.678,48.459 127.25,47.075 126.452,46.22C125.684,45.396 124.607,44.497 123.266,44.64C123.293,45.937 123.942,47.173 124.612,48.099C125.236,48.962 126.197,50.029 127.455,50.182C128.763,50.404 130.04,49.603 130.87,48.661C131.937,47.449 132.573,45.822 132.446,44.192C131.102,44.225 130.084,45.385 129.331,46.263C128.519,47.209 127.854,48.455 127.535,49.739ZM50.308,50.179C49.001,50.398 47.725,49.597 46.897,48.655C45.831,47.441 45.196,45.814 45.326,44.185C46.669,44.219 47.686,45.38 48.438,46.258C49.248,47.203 49.911,48.448 50.23,49.731C50.09,48.452 50.519,47.071 51.316,46.217C52.086,45.394 53.163,44.496 54.504,44.64C54.475,45.937 53.825,47.172 53.155,48.098C52.53,48.96 51.567,50.027 50.308,50.179ZM75.406,49.287C75.234,49.448 74.932,49.513 74.425,49.513L70.751,49.513L70.751,48.101L74.458,48.101C74.932,48.101 75.212,48.166 75.374,48.306C75.503,48.435 75.557,48.597 75.557,48.813C75.557,49.017 75.514,49.179 75.406,49.287ZM75.083,45.58C75.083,45.784 75.018,45.957 74.91,46.075C74.759,46.215 74.479,46.269 74.113,46.269L70.751,46.269L70.751,44.89L74.037,44.89C74.447,44.89 74.727,44.944 74.878,45.084C75.018,45.202 75.083,45.375 75.083,45.58ZM125.979,41.324C126.955,42.02 127.704,43.293 127.865,44.599C127.879,43.29 128.235,41.939 128.807,40.85C129.33,39.854 130.06,38.508 131.359,38.24C131.869,39.791 131.704,41.687 130.879,42.943C130.255,43.893 129.289,45.084 127.883,45.052C126.6,45.118 125.492,44.241 124.62,43.51C123.682,42.723 122.836,41.574 122.48,40.331C123.79,39.95 125.044,40.658 125.979,41.324ZM46.892,42.937C47.517,43.889 48.483,45.082 49.892,45.048C51.173,45.112 52.28,44.238 53.151,43.508C54.09,42.722 54.937,41.573 55.295,40.331C53.985,39.949 52.73,40.656 51.795,41.322C50.818,42.017 50.066,43.291 49.905,44.598C49.893,43.288 49.538,41.936 48.967,40.846C48.444,39.85 47.716,38.503 46.417,38.234C45.906,39.784 46.069,41.681 46.892,42.937ZM92.869,34.794C93.306,35.139 93.552,35.723 93.552,36.571C93.552,37.262 93.379,37.78 93.05,38.142C92.606,38.652 91.874,38.883 90.92,38.891C90.623,38.899 88.089,38.891 88.089,38.891L88.089,40.701L85.876,40.701L85.876,34.242L90.887,34.242C91.775,34.242 92.45,34.423 92.869,34.794ZM82.755,34.242L85.19,34.242L81.735,38.57L81.735,40.701L79.521,40.701L79.521,38.578L76.107,34.242L78.616,34.242L80.657,36.826L82.755,34.242ZM109.498,34.901C109.795,35.205 109.934,35.625 109.934,36.209C109.934,36.711 109.811,37.139 109.605,37.427C109.375,37.739 109.021,38.002 108.585,38.068L110.535,40.701L108.083,40.701L106.479,38.422L104.48,38.422L104.48,40.701L102.283,40.701L102.283,34.242L107.425,34.242C108.445,34.242 109.112,34.489 109.498,34.901ZM75.443,40.701L75.443,34.242L73.238,34.242L73.238,36.596L69.931,36.596L69.931,34.242L67.726,34.242L67.726,40.701L69.931,40.701L69.931,38.356L73.238,38.356L73.238,40.701L75.443,40.701ZM101.237,39.097L101.237,40.701L94.433,40.701L94.433,34.242L101.18,34.242L101.18,35.855L96.605,35.855L96.605,36.686L101.048,36.686L101.048,38.257L96.605,38.257L96.605,39.097L101.237,39.097ZM126.974,39.47C126.497,38.187 125.453,37.068 124.317,36.546C123.262,36.062 121.861,35.557 120.63,36.177C121.3,37.353 122.403,38.343 123.53,38.966C124.543,39.525 125.826,40.204 127.096,39.912C128.48,39.7 129.149,38.322 129.521,37.28C130.036,35.84 129.684,33.916 128.805,32.503C127.593,33.008 127.223,34.507 126.97,35.567C126.681,36.774 126.673,38.183 126.974,39.47ZM50.802,39.465C51.104,38.179 51.097,36.771 50.81,35.564C50.557,34.504 50.189,33.005 48.978,32.499C48.097,33.911 47.743,35.834 48.257,37.275C48.628,38.317 49.295,39.695 50.678,39.909C51.948,40.201 53.232,39.524 54.246,38.965C55.374,38.343 56.478,37.354 57.149,36.178C55.918,35.557 54.516,36.061 53.462,36.544C52.325,37.065 51.281,38.183 50.802,39.465ZM91.232,37.073C91.298,36.958 91.331,36.809 91.331,36.604C91.331,36.39 91.29,36.209 91.216,36.11C91.076,35.904 90.813,35.806 90.385,35.806L88.073,35.806L88.073,37.385L90.368,37.385C90.829,37.385 91.101,37.278 91.232,37.073ZM107.721,36.752C107.779,36.653 107.795,36.521 107.795,36.414C107.795,36.291 107.779,36.159 107.721,36.077C107.606,35.863 107.376,35.806 107.03,35.806L104.488,35.806L104.488,36.982L107.071,36.982C107.425,36.982 107.639,36.916 107.721,36.752ZM124.575,31.984C125.397,33.212 126.186,34.728 125.798,36.352C124.459,35.585 123.382,34.334 122.528,33.099C121.668,31.855 120.775,30.533 120.469,29C122.158,29.432 123.67,30.631 124.575,31.984ZM51.981,36.349C51.594,34.725 52.384,33.21 53.208,31.982C54.114,30.63 55.627,29.432 57.316,29.002C57.009,30.534 56.115,31.856 55.254,33.099C54.399,34.333 53.32,35.584 51.981,36.349Z" style="fill:rgb(57,65,73);fill-rule:nonzero;"></path>
    </g>
</svg>