<svg xmlns="http://www.w3.org/2000/svg" xmlns:xlink="http://www.w3.org/1999/xlink" xmlns:serif="http://www.serif.com/" width="100%" height="100%" viewBox="0 0 250 150" xml:space="preserve" style="fill-rule:evenodd;clip-rule:evenodd;stroke-linejoin:round;stroke-miterlimit:2;">
    <g transform="matrix(2.5038,0,0,2.5038,125,75)">
        <g id="award3.svg" transform="matrix(1,0,0,1,-51.5,-26)">
            <path d="M42.145,43.641L40.56,43.641C40.56,43.641 39.526,46.663 39.526,46.736C39.526,46.663 38.56,43.641 38.56,43.641L36.84,43.641C36.84,43.641 35.88,46.663 35.88,46.736C35.88,46.663 34.84,43.641 34.84,43.641L33.059,43.641L34.858,48.443L36.651,48.443C36.651,48.443 37.617,45.574 37.623,45.494C37.63,45.574 38.59,48.443 38.59,48.443L40.389,48.443L42.145,43.641ZM50.858,43.641L50.858,48.443L49.218,48.443L46.838,45.77L46.838,48.443L45.26,48.443L45.26,43.641L46.985,43.641L49.292,46.253L49.292,43.641L50.858,43.641ZM44.313,48.443L44.313,43.641L42.631,43.641L42.631,48.443L44.313,48.443ZM57.412,48.443L57.412,43.641L55.846,43.641L55.846,46.253L53.539,43.641L51.814,43.641L51.814,48.443L53.393,48.443L53.393,45.77L55.773,48.443L57.412,48.443ZM63.429,47.25L63.429,48.443L58.369,48.443L58.369,43.641L63.386,43.641L63.386,44.84L59.984,44.84L59.984,45.458L63.288,45.458L63.288,46.626L59.984,46.626L59.984,47.25L63.429,47.25ZM69.896,45.103C69.896,44.668 69.792,44.356 69.572,44.13C69.284,43.824 68.789,43.641 68.03,43.641L64.206,43.641L64.206,48.443L65.84,48.443L65.84,46.749L67.327,46.749L68.52,48.443L70.343,48.443L68.893,46.486C69.217,46.437 69.48,46.241 69.652,46.008C69.804,45.794 69.896,45.476 69.896,45.103ZM95.638,11.222C96.273,9.608 95.997,7.751 95.412,6.19C94.796,4.547 93.724,2.908 92.122,2.044C92.042,3.776 92.571,5.486 93.149,7.029C93.669,8.416 94.306,9.894 95.359,11.041C95.521,11.91 95.645,12.777 95.732,13.64C95.383,12.729 94.818,11.898 94.112,11.23C93.203,10.37 91.85,9.706 90.581,10.098C90.953,11.502 91.8,12.847 92.804,13.79C93.594,14.533 94.637,15.485 95.865,15.522C95.916,16.792 95.887,18.051 95.782,19.292C95.609,18.384 95.238,17.528 94.701,16.891C93.964,16.016 92.871,14.947 91.476,15.126C91.552,16.546 92.119,18.001 92.908,19.094C93.534,19.963 94.362,21.071 95.537,21.357C95.349,22.576 95.087,23.776 94.754,24.949C94.751,24.051 94.553,23.168 94.159,22.461C93.604,21.463 92.739,20.219 91.342,20.122C91.137,21.515 91.415,23.038 91.975,24.25C92.422,25.218 93.019,26.453 94.106,26.964C93.649,28.227 93.109,29.454 92.489,30.639C92.707,29.618 92.698,28.542 92.441,27.573C92.086,26.238 91.206,24.836 89.792,24.429C89.292,25.903 89.361,27.547 89.652,29.045C89.891,30.279 90.36,31.727 91.412,32.528C90.724,33.639 89.963,34.705 89.132,35.719C89.579,34.724 89.8,33.636 89.681,32.64C89.508,31.19 89.101,29.639 87.62,28.866C86.779,30.316 86.584,31.942 86.513,33.549C86.455,34.848 86.642,36.45 87.545,37.507C86.552,38.539 85.482,39.504 84.339,40.394C85.077,39.447 85.594,38.336 85.703,37.237C85.858,35.684 85.783,33.974 84.404,32.835C83.226,34.066 82.522,35.879 82.178,37.453C81.873,38.845 81.555,40.493 82.28,41.863C80.825,42.813 79.271,43.651 77.628,44.359C78.784,43.536 79.73,42.405 80.181,41.238C80.772,39.709 81.137,37.886 79.987,36.355C78.445,37.342 77.312,39.027 76.419,40.564C75.653,41.882 74.86,43.702 75.254,45.272C74.344,45.581 73.411,45.852 72.456,46.083L72.513,46.318C73.471,46.086 74.408,45.814 75.321,45.504C75.961,47.395 78.057,48.02 79.752,48.295C82.167,48.688 85.043,47.927 87.105,46.393C86.016,44.855 83.796,44.699 82.122,44.582L82.1,44.58C80.266,44.451 78.282,44.623 76.438,45.103C78.568,44.292 80.562,43.272 82.401,42.073L82.426,42.113C83.433,43.749 85.457,43.813 87.045,43.709C89.2,43.569 91.687,42.259 93.126,40.449C91.772,39.261 89.773,39.593 88.223,39.851L88.215,39.852C86.486,40.139 84.597,40.766 83.011,41.732C83.162,41.613 83.309,41.487 83.453,41.355C84.995,40.256 86.417,39.026 87.708,37.685C87.726,37.703 87.744,37.72 87.762,37.738C89.018,38.991 90.841,38.66 92.265,38.25C94.175,37.7 96.155,36.041 97.104,34.136C95.633,33.312 93.875,33.991 92.508,34.528C91.005,35.118 89.416,36.062 88.194,37.266C88.32,37.107 88.441,36.941 88.555,36.769C89.69,35.487 90.712,34.115 91.61,32.667L91.659,32.697C93.078,33.61 94.686,32.947 95.96,32.295C97.689,31.41 99.079,29.465 99.679,27.552C98.145,27.061 96.63,28.026 95.452,28.789C94.162,29.625 92.856,30.817 91.96,32.184C92.026,32.049 92.088,31.911 92.145,31.771C93.006,30.268 93.737,28.691 94.329,27.055L94.365,27.068C95.656,27.557 97.093,26.794 98.03,25.957C99.332,24.794 100.251,23.006 100.466,21.259C99.12,21.084 97.851,22.126 96.984,23.014C95.986,24.038 95.089,25.247 94.538,26.59C94.579,26.444 94.614,26.295 94.643,26.144C95.144,24.607 95.524,23.023 95.774,21.402L95.812,21.407C97.172,21.628 98.43,20.593 99.182,19.588C100.24,18.175 100.785,16.218 100.648,14.445C99.289,14.54 98.253,15.834 97.582,16.881C96.804,18.093 96.159,19.465 95.877,20.9C95.886,20.785 95.891,20.67 95.893,20.554C96.1,18.905 96.174,17.221 96.106,15.518C97.495,15.469 98.524,14.179 99.054,13.036C99.811,11.4 99.933,9.332 99.428,7.59C98.105,7.961 97.367,9.478 96.932,10.646C96.43,11.993 96.08,13.462 96.077,14.923C96.005,13.698 95.859,12.463 95.638,11.222ZM8.031,11.178C7.396,9.564 7.672,7.707 8.257,6.146C8.873,4.503 9.945,2.864 11.547,2C11.627,3.731 11.098,5.442 10.52,6.985C10,8.372 9.362,9.85 8.309,10.997C8.148,11.867 8.024,12.734 7.936,13.597C8.285,12.685 8.851,11.854 9.557,11.186C10.467,10.326 11.819,9.662 13.088,10.054C12.716,11.457 11.869,12.803 10.865,13.746C10.075,14.489 9.032,15.441 7.804,15.478C7.753,16.748 7.782,18.006 7.886,19.248C8.06,18.339 8.431,17.484 8.968,16.847C9.705,15.972 10.797,14.902 12.193,15.081C12.117,16.501 11.55,17.956 10.761,19.05C10.134,19.919 9.307,21.026 8.132,21.312C8.32,22.532 8.582,23.731 8.915,24.905C8.918,24.006 9.116,23.124 9.51,22.417C10.065,21.419 10.93,20.175 12.327,20.078C12.532,21.471 12.254,22.994 11.694,24.205C11.247,25.174 10.65,26.408 9.563,26.919C10.02,28.182 10.56,29.41 11.179,30.594C10.962,29.573 10.971,28.497 11.228,27.529C11.583,26.194 12.463,24.792 13.877,24.385C14.377,25.859 14.308,27.503 14.017,29.001C13.778,30.234 13.309,31.683 12.257,32.484C12.945,33.594 13.706,34.659 14.536,35.673C14.09,34.679 13.868,33.592 13.987,32.596C14.16,31.146 14.568,29.594 16.049,28.821C16.889,30.271 17.084,31.898 17.156,33.505C17.213,34.804 17.026,36.406 16.124,37.462C17.116,38.494 18.187,39.46 19.331,40.35C18.592,39.403 18.075,38.292 17.966,37.192C17.811,35.64 17.887,33.93 19.265,32.79C20.444,34.021 21.147,35.834 21.491,37.409C21.796,38.801 22.115,40.449 21.389,41.819C22.844,42.769 24.398,43.606 26.041,44.315C24.885,43.491 23.939,42.361 23.488,41.194C22.897,39.665 22.532,37.842 23.682,36.31C25.224,37.298 26.357,38.983 27.25,40.519C28.016,41.838 28.809,43.658 28.415,45.228C29.325,45.536 30.258,45.808 31.213,46.039L31.156,46.273C30.197,46.041 29.261,45.769 28.348,45.46C27.708,47.35 25.612,47.975 23.917,48.251C21.502,48.644 18.626,47.882 16.564,46.349C17.653,44.811 19.873,44.655 21.547,44.537L21.569,44.536C23.403,44.407 25.387,44.579 27.231,45.058C25.1,44.247 23.107,43.227 21.268,42.028L21.241,42.071C20.234,43.705 18.211,43.768 16.624,43.665C14.469,43.525 11.982,42.215 10.543,40.404C11.897,39.216 13.896,39.549 15.446,39.806L15.454,39.808C17.183,40.095 19.073,40.722 20.659,41.688C20.508,41.569 20.36,41.443 20.217,41.311C18.674,40.211 17.251,38.981 15.96,37.64C15.945,37.655 15.93,37.67 15.915,37.685C14.659,38.948 12.831,38.617 11.404,38.206C9.495,37.656 7.514,35.997 6.565,34.092C8.036,33.268 9.794,33.947 11.162,34.484C12.663,35.073 14.251,36.016 15.472,37.219C15.346,37.06 15.226,36.894 15.112,36.722C13.977,35.441 12.956,34.069 12.059,32.622L12.014,32.651C10.594,33.567 8.985,32.903 7.709,32.251C5.98,31.366 4.591,29.421 3.99,27.508C5.524,27.017 7.04,27.981 8.218,28.745C9.506,29.58 10.811,30.771 11.707,32.138C11.642,32.003 11.58,31.865 11.524,31.725C10.663,30.223 9.932,28.647 9.34,27.011L9.307,27.023C8.015,27.513 6.577,26.75 5.64,25.913C4.337,24.75 3.418,22.962 3.203,21.215C4.549,21.04 5.818,22.082 6.685,22.97C7.683,23.993 8.579,25.201 9.13,26.544C9.09,26.398 9.055,26.25 9.026,26.1C8.525,24.563 8.145,22.978 7.895,21.358L7.869,21.361C6.504,21.589 5.242,20.551 4.487,19.544C3.429,18.13 2.884,16.174 3.021,14.401C4.381,14.496 5.416,15.79 6.088,16.836C6.865,18.048 7.509,19.419 7.792,20.853C7.783,20.739 7.778,20.624 7.776,20.509C7.569,18.86 7.495,17.177 7.563,15.473L7.559,15.473C6.171,15.423 5.145,14.134 4.615,12.991C3.857,11.355 3.735,9.288 4.241,7.545C5.564,7.917 6.302,9.434 6.737,10.602C7.239,11.949 7.589,13.418 7.592,14.878C7.664,13.653 7.81,12.418 8.031,11.178ZM68.305,45.256C68.305,45.335 68.293,45.433 68.25,45.507C68.189,45.629 68.03,45.678 67.767,45.678L65.846,45.678L65.846,44.803L67.736,44.803C67.993,44.803 68.165,44.846 68.25,45.005C68.293,45.066 68.305,45.164 68.305,45.256ZM37.26,35.167L36.596,33.125L35.932,35.167L33.785,35.167L35.522,36.429L34.859,38.471L36.596,37.209L38.333,38.471L37.67,36.429L39.407,35.167L37.26,35.167ZM52.533,35.166L51.856,33.123L51.179,35.166L48.988,35.166L50.76,36.428L50.083,38.47L51.856,37.208L53.629,38.47L52.952,36.428L54.724,35.166L52.533,35.166ZM67.78,35.166L67.116,33.123L66.452,35.166L64.305,35.166L66.042,36.428L65.379,38.47L67.116,37.208L68.853,38.47L68.19,36.428L69.927,35.166L67.78,35.166ZM44.257,33.123L44.934,35.166L47.125,35.166L45.352,36.428L46.029,38.47L44.257,37.208L42.484,38.47L43.161,36.428L41.388,35.166L43.579,35.166L44.257,33.123ZM59.456,33.123L60.133,35.166L62.324,35.166L60.551,36.428L61.228,38.47L59.456,37.208L57.683,38.47L58.36,36.428L56.588,35.166L58.779,35.166L59.456,33.123ZM69.635,25.97C68.312,25.97 67.616,26.597 67.616,27.519C67.616,28.559 68.346,29.087 69.635,29.087C71.054,29.087 71.65,28.475 71.65,27.519C71.65,26.548 70.977,25.97 69.635,25.97ZM41.967,25.97C40.644,25.97 39.948,26.597 39.948,27.519C39.948,28.559 40.678,29.087 41.967,29.087C43.385,29.087 43.982,28.475 43.982,27.519C43.982,26.548 43.309,25.97 41.967,25.97ZM34.609,28.108C34.609,27.584 34.276,27.308 33.5,27.224C33.373,27.209 33.002,27.171 32.769,27.152C32.169,27.087 31.989,27.052 31.989,26.899C31.989,26.762 32.13,26.697 32.67,26.697C33.052,26.697 33.266,26.769 33.35,26.88C33.392,26.934 33.408,26.976 33.412,27.018L34.513,27.018C34.501,26.926 34.463,26.796 34.402,26.681C34.203,26.299 33.725,25.993 32.696,25.993C31.538,25.993 30.903,26.402 30.903,26.938C30.903,27.454 31.262,27.756 32.234,27.844C32.368,27.855 32.689,27.886 32.892,27.905C33.4,27.959 33.538,27.993 33.538,28.154C33.538,28.303 33.404,28.383 32.842,28.383C32.406,28.383 32.15,28.318 32.058,28.207C32.02,28.161 31.993,28.093 31.985,28.047L30.884,28.047C30.895,28.123 30.914,28.245 30.956,28.345C31.144,28.766 31.633,29.087 32.769,29.087C33.989,29.087 34.609,28.743 34.609,28.108ZM66.681,26.039L67.671,26.039L66.574,29.041L65.45,29.041C65.45,29.041 64.849,27.247 64.845,27.198C64.842,27.247 64.237,29.041 64.237,29.041L63.117,29.041L61.993,26.039L63.105,26.039C63.105,26.039 63.756,27.928 63.756,27.974C63.756,27.928 64.356,26.039 64.356,26.039L65.431,26.039C65.431,26.039 66.035,27.928 66.035,27.974C66.035,27.928 66.681,26.039 66.681,26.039ZM47.481,26.039L47.481,26.8L45.443,26.8L45.443,27.224L47.386,27.224L47.386,27.978L45.443,27.978L45.443,29.041L44.414,29.041L44.414,26.039L47.481,26.039ZM75.437,26.345C75.574,26.486 75.639,26.681 75.639,26.953C75.639,27.186 75.582,27.385 75.486,27.519C75.379,27.664 75.215,27.787 75.012,27.817L75.918,29.041L74.779,29.041L74.033,27.982L73.104,27.982L73.104,29.041L72.083,29.041L72.083,26.039L74.473,26.039C74.947,26.039 75.257,26.154 75.437,26.345ZM79.111,29.041L79.111,28.242L77.283,28.242L77.283,26.039L76.247,26.039L76.247,29.041L79.111,29.041ZM83.166,27.484C83.166,27.951 83.12,28.203 82.983,28.441C82.776,28.819 82.367,29.041 81.644,29.041L79.518,29.041L79.518,26.039L81.621,26.039C82.34,26.039 82.765,26.242 82.975,26.59C83.124,26.823 83.166,27.071 83.166,27.484ZM56.572,26.039L56.572,29.041L55.547,29.041L55.547,27.951L54.01,27.951L54.01,29.041L52.985,29.041L52.985,26.039L54.01,26.039L54.01,27.133L55.547,27.133L55.547,26.039L56.572,26.039ZM38.33,26.039L38.33,26.792L37.06,26.792L37.06,29.041L36.012,29.041L36.012,26.792L34.747,26.792L34.747,26.039L38.33,26.039ZM52.663,26.792L52.663,26.039L49.079,26.039L49.079,26.792L50.345,26.792L50.345,29.041L51.393,29.041L51.393,26.792L52.663,26.792ZM60.341,29.041L60.341,28.295L58.188,28.295L58.188,27.905L60.253,27.905L60.253,27.175L58.188,27.175L58.188,26.789L60.314,26.789L60.314,26.039L57.179,26.039L57.179,29.041L60.341,29.041ZM30.574,28.295L30.574,29.041L27.411,29.041L27.411,26.039L30.547,26.039L30.547,26.789L28.421,26.789L28.421,27.175L30.486,27.175L30.486,27.905L28.421,27.905L28.421,28.295L30.574,28.295ZM26.973,28.192C26.973,28.398 26.916,28.601 26.801,28.735C26.625,28.949 26.296,29.041 25.872,29.041L23.206,29.041L23.206,26.039L25.799,26.039C26.212,26.039 26.476,26.138 26.621,26.288C26.751,26.418 26.809,26.59 26.809,26.785C26.809,26.98 26.763,27.14 26.663,27.259C26.583,27.358 26.445,27.435 26.3,27.454C26.514,27.481 26.717,27.588 26.832,27.737C26.927,27.848 26.973,28.016 26.973,28.192ZM25.512,28.36C25.692,28.36 25.799,28.337 25.86,28.28C25.898,28.242 25.914,28.184 25.914,28.112C25.914,28.035 25.895,27.978 25.849,27.932C25.792,27.882 25.692,27.859 25.524,27.859L24.208,27.859L24.208,28.36L25.512,28.36ZM41.967,28.318C41.213,28.318 40.995,28.008 40.995,27.53C40.995,27.06 41.232,26.75 41.963,26.75C42.762,26.75 42.942,27.098 42.942,27.53C42.942,27.989 42.724,28.318 41.967,28.318ZM69.635,28.318C68.882,28.318 68.664,28.008 68.664,27.53C68.664,27.06 68.901,26.75 69.631,26.75C70.431,26.75 70.61,27.098 70.61,27.53C70.61,27.989 70.392,28.318 69.635,28.318ZM81.449,28.303C81.774,28.303 81.958,28.226 82.069,28.058C82.138,27.955 82.157,27.714 82.157,27.504C82.153,27.312 82.13,27.11 82.069,27.018C81.95,26.838 81.771,26.773 81.457,26.773L80.543,26.773L80.543,28.303L81.449,28.303ZM74.611,27.205C74.637,27.159 74.645,27.098 74.645,27.049C74.645,26.991 74.637,26.93 74.611,26.892C74.557,26.792 74.45,26.766 74.289,26.766L73.108,26.766L73.108,27.312L74.308,27.312C74.473,27.312 74.572,27.282 74.611,27.205ZM25.684,27.14C25.723,27.098 25.746,27.037 25.746,26.964C25.746,26.892 25.723,26.831 25.673,26.789C25.619,26.739 25.52,26.72 25.375,26.72L24.208,26.72L24.208,27.209L25.401,27.209C25.531,27.209 25.631,27.19 25.684,27.14ZM45.263,21.407C46.458,21.536 46.969,21.96 46.969,22.766C46.969,23.743 46.016,24.272 44.139,24.272C42.392,24.272 41.639,23.778 41.35,23.131C41.286,22.978 41.256,22.79 41.239,22.672L42.933,22.672C42.945,22.742 42.986,22.848 43.045,22.919C43.186,23.09 43.58,23.19 44.251,23.19C45.116,23.19 45.322,23.066 45.322,22.837C45.322,22.589 45.11,22.537 44.328,22.454C44.016,22.425 43.522,22.378 43.316,22.36C41.821,22.225 41.268,21.76 41.268,20.966C41.268,20.142 42.245,19.512 44.028,19.512C45.61,19.512 46.346,19.983 46.652,20.571C46.746,20.748 46.805,20.948 46.822,21.089L45.128,21.089C45.122,21.024 45.098,20.96 45.034,20.877C44.904,20.707 44.575,20.595 43.986,20.595C43.157,20.595 42.939,20.695 42.939,20.907C42.939,21.142 43.216,21.195 44.139,21.295C44.498,21.324 45.069,21.383 45.263,21.407ZM67.416,19.477C65.38,19.477 64.309,20.442 64.309,21.86C64.309,23.46 65.433,24.272 67.416,24.272C69.599,24.272 70.517,23.331 70.517,21.86C70.517,20.365 69.481,19.477 67.416,19.477ZM61.291,24.202L61.291,21.466L58.22,21.466L58.22,22.46L59.862,22.46C59.85,22.537 59.791,22.684 59.714,22.772C59.544,22.972 59.091,23.148 58.502,23.148C57.89,23.148 57.496,22.99 57.284,22.742C57.143,22.56 57.061,22.301 57.061,21.913C57.061,21.507 57.143,21.23 57.302,21.048C57.532,20.789 57.92,20.677 58.491,20.677C59.003,20.677 59.356,20.795 59.52,20.942C59.626,21.03 59.709,21.154 59.726,21.236L61.25,21.236C61.244,21.089 61.197,20.854 61.115,20.683C60.75,19.942 59.903,19.5 58.461,19.5C57.208,19.5 56.367,19.883 55.902,20.459C55.596,20.854 55.455,21.348 55.455,21.901C55.455,22.513 55.619,23.037 55.89,23.384C56.349,23.978 57.167,24.272 58.149,24.272C59.014,24.272 59.609,24.066 59.985,23.755L60.026,24.202L61.291,24.202ZM83.112,22.766C83.112,21.96 82.6,21.536 81.406,21.407C81.211,21.383 80.641,21.324 80.282,21.295C79.358,21.195 79.081,21.142 79.081,20.907C79.081,20.695 79.299,20.595 80.129,20.595C80.717,20.595 81.047,20.707 81.176,20.877C81.241,20.96 81.264,21.024 81.27,21.089L82.965,21.089C82.947,20.948 82.888,20.748 82.794,20.571C82.488,19.983 81.753,19.512 80.17,19.512C78.387,19.512 77.41,20.142 77.41,20.966C77.41,21.76 77.964,22.225 79.458,22.36L80.47,22.454C81.253,22.537 81.464,22.589 81.464,22.837C81.464,23.066 81.259,23.19 80.394,23.19C79.723,23.19 79.329,23.09 79.187,22.919C79.129,22.848 79.087,22.742 79.076,22.672L77.381,22.672C77.399,22.79 77.428,22.978 77.493,23.131C77.781,23.778 78.534,24.272 80.282,24.272C82.159,24.272 83.112,23.743 83.112,22.766ZM76.76,19.583L76.76,22.419C76.76,23.666 75.63,24.266 73.918,24.266C72.318,24.266 71.17,23.672 71.17,22.272L71.17,19.583L72.765,19.583L72.765,22.272C72.765,22.772 73.194,23.084 73.983,23.084C74.736,23.084 75.183,22.76 75.183,22.278L75.183,19.583L76.76,19.583ZM52.695,20.742L52.695,19.583L47.182,19.583L47.182,20.742L49.13,20.742L49.13,24.202L50.742,24.202L50.742,20.742L52.695,20.742ZM63.67,19.583L63.67,24.202L62.052,24.202L62.052,19.583L63.67,19.583ZM54.815,19.583L54.815,24.202L53.197,24.202L53.197,19.583L54.815,19.583ZM40.762,24.202L40.762,23.054L37.449,23.054L37.449,22.454L40.626,22.454L40.626,21.33L37.449,21.33L37.449,20.736L40.72,20.736L40.72,19.583L35.896,19.583L35.896,24.202L40.762,24.202ZM34.649,20.054C34.861,20.271 34.961,20.571 34.961,20.989C34.961,21.348 34.873,21.654 34.725,21.86C34.561,22.083 34.308,22.272 33.996,22.319L35.39,24.202L33.637,24.202L32.49,22.572L31.06,22.572L31.06,24.202L29.489,24.202L29.489,19.583L33.166,19.583C33.896,19.583 34.373,19.759 34.649,20.054ZM28.371,19.977C28.683,20.224 28.859,20.642 28.859,21.248C28.859,21.742 28.735,22.113 28.5,22.372C28.182,22.737 27.659,22.901 26.976,22.907C26.764,22.913 24.952,22.907 24.952,22.907L24.952,24.202L23.369,24.202L23.369,19.583L26.953,19.583C27.588,19.583 28.071,19.712 28.371,19.977ZM67.416,23.09C66.257,23.09 65.921,22.613 65.921,21.878C65.921,21.154 66.286,20.677 67.41,20.677C68.64,20.677 68.916,21.213 68.916,21.878C68.916,22.584 68.581,23.09 67.416,23.09ZM27.2,21.607C27.247,21.525 27.27,21.419 27.27,21.271C27.27,21.119 27.241,20.989 27.188,20.918C27.088,20.771 26.9,20.701 26.594,20.701L24.94,20.701L24.94,21.83L26.582,21.83C26.911,21.83 27.106,21.754 27.2,21.607ZM33.378,21.377C33.419,21.307 33.431,21.213 33.431,21.136C33.431,21.048 33.419,20.954 33.378,20.895C33.296,20.742 33.131,20.701 32.884,20.701L31.066,20.701L31.066,21.542L32.913,21.542C33.166,21.542 33.319,21.495 33.378,21.377ZM35.368,8.155L35.368,14.005C35.368,16.578 33.038,17.816 29.507,17.816C26.205,17.816 23.839,16.59 23.839,13.702L23.839,8.155L27.128,8.155L27.128,13.702C27.128,14.733 28.014,15.377 29.64,15.377C31.194,15.377 32.116,14.709 32.116,13.714L32.116,8.155L35.368,8.155ZM67.763,9.126C68.2,9.575 68.407,10.194 68.407,11.056C68.407,11.796 68.225,12.428 67.921,12.852C67.581,13.313 67.059,13.702 66.416,13.799L69.293,17.683L65.676,17.683L63.309,14.321L60.36,14.321L60.36,17.683L57.12,17.683L57.12,8.155L64.705,8.155C66.21,8.155 67.193,8.52 67.763,9.126ZM73.671,15.923L78.817,15.923L79.654,17.683L83.162,17.683L78.356,8.155L74.436,8.155L69.351,17.683L72.785,17.683L73.671,15.923ZM56.097,10.546L56.097,8.155L44.725,8.155L44.725,10.546L48.742,10.546L48.742,17.683L52.068,17.683L52.068,10.546L56.097,10.546ZM46.322,15.146L46.322,17.683L37.232,17.683L37.232,8.155L40.521,8.155L40.521,15.146L46.322,15.146ZM77.785,13.787L74.739,13.787L75.941,11.493L76.305,10.619L76.645,11.481L77.785,13.787ZM65.142,11.857C65.227,11.711 65.251,11.517 65.251,11.36C65.251,11.177 65.227,10.983 65.142,10.862C64.972,10.546 64.632,10.461 64.122,10.461L60.372,10.461L60.372,12.197L64.183,12.197C64.705,12.197 65.021,12.1 65.142,11.857Z" style="fill:rgb(57,65,73);fill-rule:nonzero;"></path>
        </g>
        <g id="award3.svg1" serif:id="award3.svg">
        </g>
    </g>
</svg>