<svg xmlns="http://www.w3.org/2000/svg" xmlns:xlink="http://www.w3.org/1999/xlink" xmlns:serif="http://www.serif.com/" width="100%" height="100%" viewBox="0 0 250 150" xml:space="preserve" style="fill-rule:evenodd;clip-rule:evenodd;stroke-linejoin:round;stroke-miterlimit:2;">
    <g transform="matrix(2.49952,0,0,2.49156,125,75)">
        <g id="award2.svg" transform="matrix(1,0,0,1,-37,-30)">
            <path d="M24.546,20.621L24.546,18.251L23.228,18.251L23.228,20.503C23.228,20.906 22.855,21.177 22.225,21.177C21.567,21.177 21.208,20.916 21.208,20.498L21.208,18.251L19.875,18.251L19.875,20.498C19.875,21.668 20.834,22.165 22.171,22.165C23.602,22.165 24.546,21.663 24.546,20.621Z" style="fill:rgb(57,65,73);fill-rule:nonzero;"></path>
            <path d="M28.983,22.111L28.983,21.083L26.633,21.083L26.633,18.251L25.301,18.251L25.301,22.111L28.983,22.111Z" style="fill:rgb(57,65,73);fill-rule:nonzero;"></path>
            <path d="M32.943,19.22L32.943,18.251L28.336,18.251L28.336,19.22L29.964,19.22L29.964,22.111L31.311,22.111L31.311,19.22L32.943,19.22Z" style="fill:rgb(57,65,73);fill-rule:nonzero;"></path>
            <rect x="33.362" y="18.251" width="1.352" height="3.859" style="fill:rgb(57,65,73);fill-rule:nonzero;"></rect>
            <path d="M40.917,22.111L40.917,18.251L39.251,18.251L38.198,20.567L37.196,18.251L35.475,18.251L35.475,22.111L36.728,22.111L36.728,20.026L37.633,22.111L38.754,22.111L39.668,20.026L39.668,22.111L40.917,22.111Z" style="fill:rgb(57,65,73);fill-rule:nonzero;"></path>
            <path d="M43.005,21.398L45.09,21.398L45.429,22.111L46.85,22.111L44.903,18.251L43.315,18.251L41.255,22.111L42.647,22.111L43.005,21.398ZM44.672,20.533L43.438,20.533L43.925,19.603L44.072,19.249L44.21,19.598L44.672,20.533Z" style="fill:rgb(57,65,73);fill-rule:nonzero;"></path>
            <path d="M51.029,19.22L51.029,18.251L46.423,18.251L46.423,19.22L48.05,19.22L48.05,22.111L49.397,22.111L49.397,19.22L51.029,19.22Z" style="fill:rgb(57,65,73);fill-rule:nonzero;"></path>
            <path d="M55.509,22.111L55.509,21.152L52.742,21.152L52.742,20.651L55.396,20.651L55.396,19.712L52.742,19.712L52.742,19.215L55.475,19.215L55.475,18.251L51.444,18.251L51.444,22.111L55.509,22.111Z" style="fill:rgb(57,65,73);fill-rule:nonzero;"></path>
            <path d="M29.923,24.162L28.65,24.162C28.65,24.162 27.819,26.591 27.819,26.65C27.819,26.591 27.042,24.162 27.042,24.162L25.661,24.162C25.661,24.162 24.889,26.591 24.889,26.65C24.889,26.591 24.053,24.162 24.053,24.162L22.622,24.162L24.068,28.022L25.508,28.022C25.508,28.022 26.285,25.716 26.29,25.652C26.295,25.716 27.067,28.022 27.067,28.022L28.512,28.022L29.923,24.162Z" style="fill:rgb(57,65,73);fill-rule:nonzero;"></path>
            <rect x="30.314" y="24.162" width="1.352" height="3.859" style="fill:rgb(57,65,73);fill-rule:nonzero;"></rect>
            <path d="M36.925,28.022L36.925,24.162L35.666,24.162L35.666,26.262L33.812,24.162L32.426,24.162L32.426,28.022L33.694,28.022L33.694,25.873L35.607,28.022L36.925,28.022Z" style="fill:rgb(57,65,73);fill-rule:nonzero;"></path>
            <path d="M42.191,28.022L42.191,24.162L40.933,24.162L40.933,26.262L39.079,24.162L37.693,24.162L37.693,28.022L38.961,28.022L38.961,25.873L40.874,28.022L42.191,28.022Z" style="fill:rgb(57,65,73);fill-rule:nonzero;"></path>
            <path d="M47.026,28.022L47.026,27.063L44.258,27.063L44.258,26.562L46.913,26.562L46.913,25.623L44.258,25.623L44.258,25.126L46.991,25.126L46.991,24.162L42.96,24.162L42.96,28.022L47.026,28.022Z" style="fill:rgb(57,65,73);fill-rule:nonzero;"></path>
            <path d="M52.223,25.337C52.223,24.988 52.139,24.738 51.962,24.556C51.731,24.31 51.333,24.162 50.723,24.162L47.651,24.162L47.651,28.022L48.963,28.022L48.963,26.66L50.158,26.66L51.117,28.022L52.582,28.022L51.417,26.448C51.677,26.409 51.889,26.252 52.026,26.065C52.149,25.893 52.223,25.637 52.223,25.337ZM50.945,25.46C50.945,25.524 50.935,25.603 50.9,25.662C50.851,25.76 50.723,25.799 50.512,25.799L48.968,25.799L48.968,25.096L50.487,25.096C50.694,25.096 50.832,25.131 50.9,25.259C50.935,25.308 50.945,25.387 50.945,25.46Z" style="fill:rgb(57,65,73);fill-rule:nonzero;"></path>
            <path d="M25.1,31.819L25.1,29.933L24.64,29.933L24.64,31.789C24.64,32.227 24.228,32.476 23.634,32.476C22.932,32.476 22.587,32.209 22.587,31.785L22.587,29.933L22.123,29.933L22.123,31.77C22.123,32.543 22.724,32.884 23.615,32.884C24.536,32.884 25.1,32.52 25.1,31.819Z" style="fill:rgb(57,65,73);fill-rule:nonzero;"></path>
            <path d="M28.403,32.847L28.403,32.42L26.395,32.42L26.395,29.933L25.931,29.933L25.931,32.847L28.403,32.847Z" style="fill:rgb(57,65,73);fill-rule:nonzero;"></path>
            <path d="M31.04,30.356L31.04,29.933L27.944,29.933L27.944,30.356L29.258,30.356L29.258,32.847L29.726,32.847L29.726,30.356L31.04,30.356Z" style="fill:rgb(57,65,73);fill-rule:nonzero;"></path>
            <path d="M34.34,30.757C34.34,30.549 34.295,30.397 34.217,30.274C34.08,30.07 33.816,29.933 33.378,29.933L31.492,29.933L31.492,32.847L31.949,32.847L31.949,31.618L33.278,31.618L34.091,32.847L34.625,32.847L33.746,31.54C33.968,31.514 34.143,31.388 34.236,31.225C34.302,31.113 34.34,30.95 34.34,30.757ZM33.879,30.794C33.879,30.876 33.861,30.976 33.827,31.043C33.768,31.15 33.63,31.206 33.408,31.21L31.952,31.21L31.952,30.349L33.322,30.349C33.601,30.349 33.749,30.415 33.827,30.542C33.861,30.601 33.879,30.701 33.879,30.794Z" style="fill:rgb(57,65,73);fill-rule:nonzero;"></path>
            <path d="M35.661,32.127L37.476,32.127L37.847,32.847L38.345,32.847L36.867,29.933L36.321,29.933L34.796,32.847L35.282,32.847L35.661,32.127ZM37.283,31.715L35.861,31.715L36.451,30.597L36.581,30.326L36.711,30.597L37.283,31.715Z" style="fill:rgb(57,65,73);fill-rule:nonzero;"></path>
            <path d="M43.053,32.569C43.168,32.435 43.22,32.246 43.22,32.041C43.22,31.848 43.164,31.655 43.049,31.537C42.934,31.425 42.749,31.332 42.544,31.314C42.663,31.295 42.756,31.221 42.819,31.143C42.919,31.028 42.979,30.842 42.979,30.657C42.979,30.46 42.919,30.282 42.793,30.159C42.656,30.022 42.422,29.933 42.095,29.933L40.135,29.933L40.135,32.847L42.24,32.847C42.634,32.847 42.908,32.747 43.053,32.569ZM42.5,30.75C42.5,30.879 42.459,30.994 42.389,31.061C42.318,31.139 42.199,31.173 42.073,31.173L40.588,31.173L40.588,30.334L41.987,30.334C42.158,30.334 42.288,30.367 42.377,30.449C42.455,30.523 42.5,30.631 42.5,30.75ZM42.648,32.286C42.556,32.39 42.396,32.442 42.162,32.442L40.588,32.442L40.588,31.577L42.173,31.577C42.389,31.577 42.537,31.622 42.626,31.707C42.708,31.785 42.741,31.886 42.741,32.001C42.741,32.119 42.715,32.22 42.648,32.286Z" style="fill:rgb(57,65,73);fill-rule:nonzero;"></path>
            <path d="M46.59,32.847L46.59,32.42L44.326,32.42L44.326,31.589L46.501,31.589L46.501,31.165L44.326,31.165L44.326,30.356L46.564,30.356L46.564,29.933L43.873,29.933L43.873,32.847L46.59,32.847Z" style="fill:rgb(57,65,73);fill-rule:nonzero;"></path>
            <path d="M50.217,31.986C50.217,31.511 49.902,31.266 49.126,31.176C48.996,31.158 48.714,31.128 48.561,31.11C47.841,31.024 47.622,30.928 47.622,30.679C47.622,30.438 47.863,30.3 48.591,30.3C49.155,30.3 49.445,30.412 49.59,30.612C49.631,30.668 49.653,30.735 49.664,30.787L50.161,30.787C50.147,30.701 50.113,30.582 50.061,30.486C49.861,30.141 49.449,29.892 48.591,29.892C47.566,29.888 47.143,30.26 47.143,30.72C47.143,31.18 47.474,31.414 48.331,31.514C48.48,31.533 48.743,31.563 48.873,31.577C49.538,31.659 49.746,31.759 49.746,32.038C49.746,32.294 49.508,32.48 48.747,32.48C48.123,32.48 47.789,32.368 47.656,32.153C47.615,32.093 47.589,32.001 47.585,31.938L47.095,31.938C47.106,32.071 47.143,32.216 47.21,32.331C47.403,32.684 47.856,32.888 48.732,32.888C49.779,32.888 50.217,32.55 50.217,31.986Z" style="fill:rgb(57,65,73);fill-rule:nonzero;"></path>
            <path d="M53.546,30.356L53.546,29.933L50.45,29.933L50.45,30.356L51.764,30.356L51.764,32.847L52.232,32.847L52.232,30.356L53.546,30.356Z" style="fill:rgb(57,65,73);fill-rule:nonzero;"></path>
            <path d="M20.809,35.38C20.809,35.083 20.749,34.883 20.649,34.73C20.508,34.511 20.233,34.396 19.754,34.396L17.913,34.396L17.913,37.31L18.373,37.31L18.373,36.36L19.736,36.36C20.185,36.356 20.493,36.252 20.657,36.015C20.761,35.87 20.809,35.662 20.809,35.38ZM20.341,35.38C20.341,35.528 20.326,35.64 20.278,35.714C20.193,35.851 20.018,35.937 19.658,35.937L18.373,35.937L18.373,34.812L19.673,34.812C20.011,34.812 20.185,34.89 20.278,35.042C20.322,35.109 20.341,35.231 20.341,35.38Z" style="fill:rgb(57,65,73);fill-rule:nonzero;"></path>
            <path d="M24.169,37.31L24.169,36.884L21.904,36.884L21.904,36.052L24.08,36.052L24.08,35.629L21.904,35.629L21.904,34.819L24.143,34.819L24.143,34.396L21.452,34.396L21.452,37.31L24.169,37.31Z" style="fill:rgb(57,65,73);fill-rule:nonzero;"></path>
            <path d="M27.71,35.22C27.71,35.012 27.666,34.86 27.588,34.738C27.451,34.533 27.187,34.396 26.749,34.396L24.863,34.396L24.863,37.31L25.32,37.31L25.32,36.082L26.649,36.082L27.462,37.31L27.996,37.31L27.116,36.004C27.339,35.978 27.514,35.851 27.607,35.688C27.673,35.577 27.71,35.413 27.71,35.22ZM27.25,35.257C27.25,35.339 27.232,35.439 27.198,35.506C27.139,35.614 27.001,35.67 26.779,35.673L25.323,35.673L25.323,34.812L26.693,34.812C26.972,34.812 27.12,34.879 27.198,35.005C27.232,35.064 27.25,35.165 27.25,35.257Z" style="fill:rgb(57,65,73);fill-rule:nonzero;"></path>
            <path d="M31.152,34.819L31.152,34.396L28.561,34.396L28.561,37.31L29.021,37.31L29.021,36.071L31.056,36.071L31.056,35.636L29.021,35.636L29.021,34.819L31.152,34.819Z" style="fill:rgb(57,65,73);fill-rule:nonzero;"></path>
            <path d="M33.265,34.344C32.645,34.344 32.218,34.496 31.914,34.816C31.658,35.064 31.546,35.41 31.546,35.844C31.546,36.319 31.691,36.676 31.958,36.917C32.244,37.203 32.682,37.351 33.265,37.351C33.867,37.351 34.334,37.203 34.613,36.902C34.854,36.657 34.98,36.308 34.98,35.84C34.98,35.387 34.873,35.042 34.616,34.797C34.323,34.493 33.885,34.344 33.265,34.344ZM33.265,36.936C32.857,36.936 32.567,36.846 32.348,36.668C32.125,36.486 32.018,36.208 32.018,35.851C32.018,35.517 32.111,35.239 32.289,35.072C32.493,34.879 32.805,34.764 33.261,34.764C33.733,34.764 34.026,34.875 34.245,35.068C34.431,35.231 34.512,35.521 34.512,35.848C34.512,36.178 34.427,36.46 34.238,36.631C34.019,36.835 33.711,36.936 33.265,36.936Z" style="fill:rgb(57,65,73);fill-rule:nonzero;"></path>
            <path d="M38.463,35.22C38.463,35.012 38.419,34.86 38.341,34.738C38.204,34.533 37.94,34.396 37.502,34.396L35.616,34.396L35.616,37.31L36.073,37.31L36.073,36.082L37.402,36.082L38.215,37.31L38.749,37.31L37.869,36.004C38.092,35.978 38.267,35.851 38.359,35.688C38.426,35.577 38.463,35.413 38.463,35.22ZM38.003,35.257C38.003,35.339 37.984,35.439 37.951,35.506C37.892,35.614 37.754,35.67 37.532,35.673L36.076,35.673L36.076,34.812L37.446,34.812C37.725,34.812 37.873,34.879 37.951,35.005C37.984,35.064 38.003,35.165 38.003,35.257Z" style="fill:rgb(57,65,73);fill-rule:nonzero;"></path>
            <path d="M42.904,37.31L42.904,34.396L42.302,34.396L41.103,36.794L39.926,34.396L39.314,34.396L39.314,37.31L39.756,37.31L39.756,35.068L40.855,37.31L41.337,37.31L42.462,35.068L42.462,37.31L42.904,37.31Z" style="fill:rgb(57,65,73);fill-rule:nonzero;"></path>
            <path d="M44.208,36.59L46.023,36.59L46.394,37.31L46.892,37.31L45.414,34.396L44.868,34.396L43.343,37.31L43.829,37.31L44.208,36.59ZM45.83,36.178L44.408,36.178L44.998,35.061L45.128,34.79L45.258,35.061L45.83,36.178Z" style="fill:rgb(57,65,73);fill-rule:nonzero;"></path>
            <path d="M50.236,37.31L50.236,34.396L49.794,34.396L49.794,36.661L47.864,34.396L47.341,34.396L47.341,37.31L47.79,37.31L47.79,35.031L49.735,37.31L50.236,37.31Z" style="fill:rgb(57,65,73);fill-rule:nonzero;"></path>
            <path d="M54.241,36.223L53.758,36.223C53.743,36.356 53.691,36.49 53.598,36.59C53.398,36.824 53.079,36.924 52.589,36.924C52.177,36.924 51.735,36.809 51.523,36.509C51.412,36.368 51.341,36.16 51.341,35.848C51.341,35.569 51.39,35.361 51.497,35.22C51.675,34.935 52.05,34.786 52.578,34.786C53.09,34.786 53.413,34.927 53.584,35.124C53.68,35.228 53.736,35.35 53.754,35.495L54.237,35.495C54.222,35.332 54.17,35.139 54.059,34.975C53.821,34.623 53.383,34.344 52.581,34.344C51.817,34.344 51.36,34.589 51.107,34.957C50.944,35.168 50.862,35.465 50.862,35.844C50.862,36.267 50.963,36.579 51.137,36.798C51.39,37.143 51.876,37.351 52.611,37.351C53.365,37.351 53.814,37.125 54.037,36.765C54.163,36.59 54.226,36.382 54.241,36.223Z" style="fill:rgb(57,65,73);fill-rule:nonzero;"></path>
            <path d="M57.563,37.31L57.563,36.884L55.298,36.884L55.298,36.052L57.474,36.052L57.474,35.629L55.298,35.629L55.298,34.819L57.537,34.819L57.537,34.396L54.845,34.396L54.845,37.31L57.563,37.31Z" style="fill:rgb(57,65,73);fill-rule:nonzero;"></path>
            <path d="M23.612,40.205L24.167,41.914L25.964,41.914L24.51,42.97L25.065,44.679L23.612,43.623L22.158,44.679L22.714,42.97L21.26,41.914L23.057,41.914L23.612,40.205Z" style="fill:rgb(57,65,73);fill-rule:nonzero;"></path>
            <path d="M30.021,40.206L30.588,41.914L32.421,41.914L30.938,42.97L31.505,44.679L30.021,43.623L28.538,44.679L29.105,42.97L27.622,41.914L29.455,41.914L30.021,40.206Z" style="fill:rgb(57,65,73);fill-rule:nonzero;"></path>
            <path d="M36.38,40.206L36.947,41.914L38.78,41.914L37.297,42.97L37.864,44.679L36.38,43.623L34.897,44.679L35.464,42.97L33.98,41.914L35.814,41.914L36.38,40.206Z" style="fill:rgb(57,65,73);fill-rule:nonzero;"></path>
            <path d="M42.739,40.206L43.306,41.914L45.139,41.914L43.656,42.97L44.223,44.679L42.739,43.623L41.256,44.679L41.823,42.97L40.34,41.914L42.173,41.914L42.739,40.206Z" style="fill:rgb(57,65,73);fill-rule:nonzero;"></path>
            <path d="M49.149,40.206L49.704,41.914L51.501,41.914L50.047,42.97L50.602,44.679L49.149,43.623L47.695,44.679L48.251,42.97L46.797,41.914L48.594,41.914L49.149,40.206Z" style="fill:rgb(57,65,73);fill-rule:nonzero;"></path>
            <path d="M26.726,11.376L27.146,12.668L28.504,12.668L27.405,13.467L27.825,14.759L26.726,13.96L25.627,14.759L26.047,13.467L24.948,12.668L26.306,12.668L26.726,11.376Z" style="fill:rgb(57,65,73);fill-rule:nonzero;"></path>
            <path d="M31.572,11.374L32.001,12.666L33.387,12.666L32.265,13.465L32.694,14.757L31.572,13.958L30.451,14.757L30.879,13.465L29.758,12.666L31.144,12.666L31.572,11.374Z" style="fill:rgb(57,65,73);fill-rule:nonzero;"></path>
            <path d="M36.38,11.374L36.808,12.666L38.195,12.666L37.073,13.465L37.502,14.757L36.38,13.958L35.259,14.757L35.687,13.465L34.566,12.666L35.952,12.666L36.38,11.374Z" style="fill:rgb(57,65,73);fill-rule:nonzero;"></path>
            <path d="M41.189,11.374L41.617,12.666L43.003,12.666L41.882,13.465L42.31,14.757L41.189,13.958L40.067,14.757L40.496,13.465L39.374,12.666L40.76,12.666L41.189,11.374Z" style="fill:rgb(57,65,73);fill-rule:nonzero;"></path>
            <path d="M46.034,11.374L46.454,12.666L47.812,12.666L46.713,13.465L47.133,14.757L46.034,13.958L44.935,14.757L45.355,13.465L44.256,12.666L45.614,12.666L46.034,11.374Z" style="fill:rgb(57,65,73);fill-rule:nonzero;"></path>
            <path d="M7.376,34.63C5.524,23.04 10.931,11.572 21.755,6.647L21.855,6.867C11.139,11.742 5.777,23.097 7.615,34.592C9.647,47.31 19.907,54.937 32.47,55.304L32.463,55.545C19.802,55.175 9.43,47.479 7.376,34.63Z" style="fill:rgb(57,65,73);"></path>
            <path d="M19.408,9.605C17.408,9.651 15.066,10.779 13.685,12.417C14.793,13.446 16.575,13.066 17.858,12.855C19.689,12.555 21.635,11.973 23.363,11.15C22.653,9.638 20.739,9.575 19.408,9.605Z" style="fill:rgb(57,65,73);fill-rule:nonzero;"></path>
            <path d="M17.835,7.138C16.65,8.983 15.238,10.818 13.701,12.433C12.416,11.226 13.192,9.218 13.716,7.969C14.667,5.706 16.946,3.754 19.328,2.756C19.982,4.244 18.562,6.005 17.835,7.138Z" style="fill:rgb(57,65,73);fill-rule:nonzero;"></path>
            <path d="M13.619,14.781C11.746,15.447 10.137,17.321 9.329,19.202C10.676,19.828 12.207,18.924 13.327,18.322C14.865,17.495 16.434,16.355 17.669,15.034C16.553,13.857 14.859,14.34 13.619,14.781Z" style="fill:rgb(57,65,73);fill-rule:nonzero;"></path>
            <path d="M11.349,12.937C10.939,15.041 10.252,17.223 9.349,19.212C7.773,18.469 7.833,16.34 7.901,14.986C8.016,12.673 9.309,10.037 11.11,8.361C12.213,9.543 11.61,11.596 11.349,12.937Z" style="fill:rgb(57,65,73);fill-rule:nonzero;"></path>
            <path d="M10.016,21.462C8.455,22.694 7.509,24.975 7.29,27.013C8.766,27.182 9.946,25.839 10.824,24.917C12.02,23.662 13.152,22.088 13.87,20.441C12.463,19.673 11.032,20.661 10.016,21.462Z" style="fill:rgb(57,65,73);fill-rule:nonzero;"></path>
            <path d="M7.311,20.423C7.59,22.549 7.59,24.849 7.312,27.016C5.595,26.805 5.026,24.743 4.689,23.45C4.108,21.218 4.498,18.334 5.629,16.164C7.043,16.946 7.134,19.064 7.311,20.423Z" style="fill:rgb(57,65,73);fill-rule:nonzero;"></path>
            <path d="M8.791,28.756C7.556,30.565 7.121,33.4 7.677,35.679C9.309,35.293 10.118,33.445 10.767,32.14C11.631,30.406 12.36,28.382 12.622,26.397C10.852,26.029 9.604,27.564 8.791,28.756Z" style="fill:rgb(57,65,73);fill-rule:nonzero;"></path>
            <path d="M5.549,28.573C6.511,30.801 7.262,33.253 7.701,35.673C5.83,36.076 4.482,34.11 3.7,32.807C2.307,30.487 1.901,27.271 2.411,24.496C4.124,24.84 4.962,27.216 5.549,28.573Z" style="fill:rgb(57,65,73);fill-rule:nonzero;"></path>
            <path d="M9.655,36.627C8.992,38.822 9.452,41.805 10.795,43.868C12.27,42.908 12.475,40.794 12.684,39.278C12.959,37.277 13.089,35.061 12.747,32.987C10.86,33.228 10.098,35.161 9.655,36.627Z" style="fill:rgb(57,65,73);fill-rule:nonzero;"></path>
            <path d="M6.375,37.567C8.031,39.466 9.558,41.632 10.818,43.854C9.109,44.921 7.105,43.464 5.889,42.433C3.732,40.604 2.332,37.495 2,34.565C3.795,34.324 5.377,36.42 6.375,37.567Z" style="fill:rgb(57,65,73);fill-rule:nonzero;"></path>
            <path d="M13.134,44.097C13.276,46.651 14.94,49.332 17.154,50.857C18.223,49.393 17.553,47.15 17.188,45.584C16.697,43.476 16.017,41.28 15.007,39.332C13.246,40.263 13.04,42.414 13.134,44.097Z" style="fill:rgb(57,65,73);fill-rule:nonzero;"></path>
            <path d="M10.156,46.255C12.555,47.588 14.947,49.161 17.171,50.835C15.839,52.589 13.177,51.889 11.527,51.325C8.618,50.332 6.025,47.713 4.671,44.803C6.388,43.919 8.739,45.467 10.156,46.255Z" style="fill:rgb(57,65,73);fill-rule:nonzero;"></path>
            <path d="M19.967,50.337C21.407,52.965 24.688,54.679 27.778,55.092C28.111,53.182 26.044,51.29 24.917,50.053C23.314,48.291 21.642,46.463 19.769,44.94C18.365,46.57 19.107,48.769 19.967,50.337Z" style="fill:rgb(57,65,73);fill-rule:nonzero;"></path>
            <path d="M17.911,53.668C21.184,54.008 24.512,54.498 27.783,55.063C27.471,57.473 23.646,57.862 21.91,58.005C18.349,58.296 14.388,56.865 11.63,54.456C13,52.844 16.167,53.487 17.911,53.668Z" style="fill:rgb(57,65,73);fill-rule:nonzero;"></path>
            <path d="M24.215,4.624C22.017,5.251 19.445,6.44 18.174,8.636C20.481,8.384 22.748,7.564 24.965,6.938C27.448,6.238 30.063,5.714 32.467,4.747C29.834,3.693 26.73,3.906 24.215,4.624Z" style="fill:rgb(57,65,73);fill-rule:nonzero;"></path>
            <path d="M66.728,34.592C68.565,23.097 63.203,11.742 52.488,6.867L52.588,6.647C63.412,11.572 68.819,23.04 66.966,34.63C64.913,47.479 54.541,55.175 41.88,55.545L41.873,55.304C54.436,54.937 64.695,47.31 66.728,34.592Z" style="fill:rgb(57,65,73);"></path>
            <path d="M54.935,9.605C56.935,9.651 59.276,10.779 60.658,12.417C59.55,13.446 57.767,13.066 56.485,12.855C54.654,12.555 52.707,11.973 50.98,11.15C51.69,9.638 53.603,9.575 54.935,9.605Z" style="fill:rgb(57,65,73);fill-rule:nonzero;"></path>
            <path d="M56.508,7.138C57.693,8.983 59.105,10.818 60.641,12.433C61.927,11.226 61.151,9.218 60.626,7.969C59.676,5.706 57.397,3.754 55.014,2.756C54.36,4.244 55.781,6.005 56.508,7.138Z" style="fill:rgb(57,65,73);fill-rule:nonzero;"></path>
            <path d="M60.724,14.781C62.597,15.447 64.206,17.321 65.014,19.202C63.667,19.828 62.136,18.924 61.016,18.322C59.478,17.495 57.909,16.355 56.675,15.034C57.79,13.857 59.484,14.34 60.724,14.781Z" style="fill:rgb(57,65,73);fill-rule:nonzero;"></path>
            <path d="M62.994,12.937C63.404,15.041 64.091,17.223 64.994,19.212C66.57,18.469 66.51,16.34 66.442,14.986C66.327,12.673 65.034,10.037 63.233,8.361C62.13,9.543 62.733,11.596 62.994,12.937Z" style="fill:rgb(57,65,73);fill-rule:nonzero;"></path>
            <path d="M64.327,21.462C65.888,22.694 66.834,24.975 67.053,27.013C65.577,27.182 64.397,25.839 63.519,24.917C62.323,23.662 61.191,22.088 60.473,20.441C61.88,19.673 63.311,20.661 64.327,21.462Z" style="fill:rgb(57,65,73);fill-rule:nonzero;"></path>
            <path d="M67.032,20.423C66.753,22.549 66.753,24.849 67.031,27.016C68.748,26.805 69.318,24.743 69.654,23.45C70.235,21.218 69.845,18.334 68.714,16.164C67.3,16.946 67.209,19.064 67.032,20.423Z" style="fill:rgb(57,65,73);fill-rule:nonzero;"></path>
            <path d="M65.552,28.756C66.787,30.565 67.221,33.4 66.666,35.679C65.034,35.293 64.225,33.445 63.575,32.14C62.712,30.406 61.982,28.382 61.721,26.397C63.491,26.029 64.739,27.564 65.552,28.756Z" style="fill:rgb(57,65,73);fill-rule:nonzero;"></path>
            <path d="M68.794,28.573C67.832,30.801 67.081,33.253 66.642,35.673C68.513,36.076 69.86,34.11 70.643,32.807C72.036,30.487 72.442,27.271 71.932,24.496C70.219,24.84 69.38,27.216 68.794,28.573Z" style="fill:rgb(57,65,73);fill-rule:nonzero;"></path>
            <path d="M64.688,36.627C65.351,38.822 64.891,41.805 63.548,43.868C62.073,42.908 61.868,40.794 61.659,39.278C61.384,37.277 61.254,35.061 61.596,32.987C63.483,33.228 64.245,35.161 64.688,36.627Z" style="fill:rgb(57,65,73);fill-rule:nonzero;"></path>
            <path d="M67.967,37.567C66.312,39.466 64.785,41.632 63.525,43.854C65.233,44.921 67.238,43.464 68.454,42.433C70.61,40.604 72.011,37.495 72.343,34.565C70.548,34.324 68.966,36.42 67.967,37.567Z" style="fill:rgb(57,65,73);fill-rule:nonzero;"></path>
            <path d="M61.208,44.097C61.066,46.651 59.403,49.332 57.189,50.857C56.119,49.393 56.79,47.15 57.154,45.584C57.645,43.476 58.325,41.28 59.335,39.332C61.097,40.263 61.302,42.414 61.208,44.097Z" style="fill:rgb(57,65,73);fill-rule:nonzero;"></path>
            <path d="M64.187,46.255C61.788,47.588 59.396,49.161 57.172,50.835C58.504,52.589 61.166,51.889 62.816,51.325C65.725,50.332 68.318,47.713 69.672,44.803C67.955,43.919 65.604,45.467 64.187,46.255Z" style="fill:rgb(57,65,73);fill-rule:nonzero;"></path>
            <path d="M54.376,50.337C52.936,52.965 49.655,54.679 46.565,55.092C46.232,53.182 48.299,51.29 49.426,50.053C51.029,48.291 52.7,46.463 54.574,44.94C55.978,46.57 55.235,48.769 54.376,50.337Z" style="fill:rgb(57,65,73);fill-rule:nonzero;"></path>
            <path d="M56.432,53.668C53.159,54.008 49.831,54.498 46.559,55.063C46.872,57.473 50.697,57.862 52.433,58.005C55.994,58.296 59.955,56.865 62.712,54.456C61.343,52.844 58.176,53.487 56.432,53.668Z" style="fill:rgb(57,65,73);fill-rule:nonzero;"></path>
            <path d="M50.128,4.624C52.325,5.251 54.898,6.44 56.168,8.636C53.862,8.384 51.595,7.564 49.378,6.938C46.895,6.238 44.28,5.714 41.876,4.747C44.509,3.693 47.613,3.906 50.128,4.624Z" style="fill:rgb(57,65,73);fill-rule:nonzero;"></path>
            <path d="M38.6,3.488L37.473,1L36.367,3.442L33.794,1.846L35.447,5.321L39.559,5.321L41.152,1.846L38.6,3.488Z" style="fill:rgb(57,65,73);fill-rule:nonzero;"></path>
            <rect x="35.414" y="5.861" width="4.118" height="0.608" style="fill:rgb(57,65,73);fill-rule:nonzero;"></rect>
            <path d="M37.767,52.872L38.431,54.914L40.578,54.914L38.841,56.176L39.505,58.218L37.767,56.956L36.03,58.218L36.694,56.176L34.957,54.914L37.104,54.914L37.767,52.872Z" style="fill:rgb(57,65,73);fill-rule:nonzero;"></path>
        </g>
        <g id="award2.svg1" serif:id="award2.svg">
        </g>
    </g>
</svg>