<svg width="250" height="91" viewBox="0 0 250 91" fill="none" xmlns="http://www.w3.org/2000/svg">
<path d="M96.3939 31.25C93.304 31.25 90.5007 30.6663 87.9842 29.4989C85.4995 28.3016 83.5244 26.5356 82.0591 24.2008C80.5938 21.866 79.8611 19.0074 79.8611 15.625C79.8611 13.0508 80.3071 10.7908 81.199 8.84519C82.0909 6.89955 83.3014 5.2682 84.8305 3.95115C86.3914 2.6341 88.1753 1.64631 90.1822 0.987788C92.2209 0.329263 94.3711 0 96.6329 0C98.4486 0 100.121 0.194564 101.65 0.583693C103.179 0.972822 104.613 1.51162 105.951 2.20007L106.142 7.7227H105.664L103.275 4.13075C102.956 3.56202 102.606 3.05316 102.223 2.60417C101.841 2.12524 101.363 1.76604 100.79 1.52658C100.312 1.31705 99.8343 1.16739 99.3565 1.07759C98.9105 0.957854 98.3371 0.897988 97.6363 0.897988C95.7887 0.897988 94.1004 1.36195 92.5713 2.28987C91.0741 3.21779 89.8636 4.75934 88.9398 6.91451C88.0479 9.03975 87.6019 11.9582 87.6019 15.6699C87.6019 19.3517 88.0319 22.2701 88.892 24.4253C89.7521 26.5505 90.9148 28.0771 92.3802 29.005C93.8774 29.903 95.5498 30.352 97.3974 30.352C98.4168 30.352 99.2291 30.2921 99.8343 30.1724C100.44 30.0227 101.045 29.8132 101.65 29.5438C102.255 29.3044 102.717 28.9601 103.036 28.5111C103.354 28.0322 103.641 27.5233 103.896 26.9846L105.998 22.5844H106.476L106.333 29.005C104.995 29.6636 103.498 30.2023 101.841 30.6214C100.185 31.0405 98.369 31.25 96.3939 31.25Z" fill="white"/>
<path d="M115.628 31.1153C113.781 31.1153 112.22 30.6214 110.946 29.6336C109.703 28.6458 109.082 27.224 109.082 25.3682C109.082 23.9613 109.847 22.6742 111.376 21.5068C112.905 20.3095 115.31 19.4115 118.591 18.8129C119.101 18.7231 119.674 18.6333 120.311 18.5435C120.948 18.4237 121.617 18.304 122.318 18.1843V14.6372C122.318 12.6018 122.047 11.18 121.506 10.3718C120.996 9.53364 120.184 9.11458 119.069 9.11458C118.304 9.11458 117.699 9.35405 117.253 9.83297C116.807 10.282 116.52 11.0752 116.393 12.2126L116.297 12.7065C116.234 13.9937 115.899 14.9365 115.294 15.5352C114.689 16.1339 113.94 16.4332 113.048 16.4332C112.22 16.4332 111.535 16.1937 110.993 15.7148C110.452 15.2359 110.181 14.5923 110.181 13.7841C110.181 12.5569 110.627 11.5242 111.519 10.6861C112.443 9.84794 113.653 9.21935 115.151 8.80029C116.648 8.38123 118.272 8.17169 120.024 8.17169C122.86 8.17169 125.042 8.83022 126.571 10.1473C128.132 11.4344 128.912 13.5447 128.912 16.4781V26.4009C128.912 27.7478 129.581 28.4213 130.919 28.4213H131.97L132.4 28.7805C131.795 29.4989 131.126 30.0527 130.393 30.4418C129.692 30.8309 128.689 31.0255 127.383 31.0255C125.981 31.0255 124.866 30.7262 124.038 30.1275C123.242 29.4989 122.716 28.6758 122.461 27.658C121.506 28.6159 120.518 29.4391 119.499 30.1275C118.511 30.786 117.221 31.1153 115.628 31.1153ZM118.543 28.3764C119.18 28.3764 119.77 28.2417 120.311 27.9723C120.885 27.673 121.553 27.224 122.318 26.6254V19.0823C121.999 19.1421 121.681 19.202 121.362 19.2619C121.044 19.3217 120.677 19.3816 120.263 19.4415C118.798 19.8006 117.619 20.4143 116.727 21.2823C115.867 22.1205 115.437 23.2579 115.437 24.6947C115.437 25.9219 115.74 26.8499 116.345 27.4784C116.95 28.0771 117.683 28.3764 118.543 28.3764Z" fill="white"/>
<path d="M145.377 8.17169C147.448 8.17169 149.216 8.57579 150.681 9.38398C152.146 10.1622 153.261 11.2398 154.026 12.6167C154.822 13.9637 155.22 15.5053 155.22 17.2414C155.22 17.5706 155.204 17.9149 155.172 18.2741C155.141 18.6033 155.077 18.9027 154.981 19.1721H140.742C140.774 22.4048 141.379 24.7396 142.558 26.1764C143.768 27.5832 145.552 28.2866 147.909 28.2866C149.502 28.2866 150.792 28.0472 151.78 27.5682C152.767 27.0893 153.691 26.3859 154.551 25.458L155.029 25.8621C154.042 27.5084 152.72 28.7955 151.063 29.7234C149.438 30.6513 147.479 31.1153 145.186 31.1153C142.924 31.1153 140.917 30.6663 139.165 29.7683C137.413 28.8404 136.043 27.5233 135.056 25.8172C134.068 24.111 133.575 22.0756 133.575 19.7108C133.575 17.2563 134.148 15.176 135.295 13.4698C136.442 11.7337 137.907 10.4167 139.691 9.51868C141.507 8.62069 143.402 8.17169 145.377 8.17169ZM145.234 9.06968C144.31 9.06968 143.513 9.33908 142.844 9.87787C142.207 10.3867 141.698 11.3147 141.315 12.6616C140.965 13.9787 140.774 15.8495 140.742 18.2741H148.913C149.231 15.0114 149.104 12.6616 148.531 11.2249C147.957 9.78808 146.858 9.06968 145.234 9.06968Z" fill="white"/>
<path d="M165.868 31.1153C164.307 31.1153 162.905 30.9357 161.663 30.5765C160.421 30.2472 159.274 29.8282 158.223 29.3193L158.27 23.9763H158.748L160.373 26.6703C161.074 27.8676 161.838 28.7656 162.666 29.3642C163.527 29.933 164.61 30.2173 165.916 30.2173C167.445 30.2173 168.671 29.903 169.595 29.2744C170.551 28.6159 171.028 27.7478 171.028 26.6703C171.028 25.6825 170.694 24.8743 170.025 24.2457C169.356 23.6171 168.114 23.0484 166.298 22.5395L164.291 21.9558C162.348 21.417 160.819 20.5789 159.704 19.4415C158.589 18.304 158.032 16.9121 158.032 15.2658C158.032 13.2902 158.86 11.614 160.516 10.2371C162.173 8.86015 164.546 8.17169 167.636 8.17169C168.878 8.17169 170.041 8.30639 171.124 8.57579C172.239 8.81525 173.306 9.18942 174.326 9.69828L174.039 14.5474H173.561L171.889 11.7636C171.283 10.7759 170.678 10.0874 170.073 9.69828C169.499 9.27921 168.623 9.06968 167.445 9.06968C166.362 9.06968 165.342 9.35405 164.387 9.92277C163.431 10.4915 162.953 11.2997 162.953 12.3473C162.953 13.3651 163.351 14.1733 164.148 14.7719C164.976 15.3706 166.187 15.9243 167.779 16.4332L169.929 17.0169C172.223 17.6754 173.864 18.5884 174.851 19.7557C175.839 20.8932 176.332 22.2701 176.332 23.8865C176.332 26.0716 175.409 27.8227 173.561 29.1397C171.745 30.4568 169.181 31.1153 165.868 31.1153Z" fill="white"/>
<path d="M190.407 8.17169C192.477 8.17169 194.245 8.57579 195.711 9.38398C197.176 10.1622 198.291 11.2398 199.055 12.6167C199.852 13.9637 200.25 15.5053 200.25 17.2414C200.25 17.5706 200.234 17.9149 200.202 18.2741C200.17 18.6033 200.107 18.9027 200.011 19.1721H185.772C185.804 22.4048 186.409 24.7396 187.587 26.1764C188.798 27.5832 190.582 28.2866 192.939 28.2866C194.532 28.2866 195.822 28.0472 196.81 27.5682C197.797 27.0893 198.721 26.3859 199.581 25.458L200.059 25.8621C199.071 27.5084 197.749 28.7955 196.093 29.7234C194.468 30.6513 192.509 31.1153 190.216 31.1153C187.954 31.1153 185.947 30.6663 184.195 29.7683C182.443 28.8404 181.073 27.5233 180.086 25.8172C179.098 24.111 178.604 22.0756 178.604 19.7108C178.604 17.2563 179.178 15.176 180.324 13.4698C181.471 11.7337 182.937 10.4167 184.721 9.51868C186.536 8.62069 188.432 8.17169 190.407 8.17169ZM190.263 9.06968C189.34 9.06968 188.543 9.33908 187.874 9.87787C187.237 10.3867 186.727 11.3147 186.345 12.6616C185.995 13.9787 185.804 15.8495 185.772 18.2741H193.943C194.261 15.0114 194.134 12.6616 193.56 11.2249C192.987 9.78808 191.888 9.06968 190.263 9.06968Z" fill="white"/>
<path d="M202.631 30.4418V29.9928L203.348 29.8132C203.985 29.6336 204.415 29.3642 204.638 29.005C204.893 28.6458 205.02 28.1819 205.02 27.6131V13.5596C205.02 12.9011 204.893 12.4222 204.638 12.1228C204.415 11.7936 203.985 11.5691 203.348 11.4494L202.631 11.2698V10.8208L210.85 8.21659L211.328 8.66559L211.758 12.5269V12.8861C212.204 12.048 212.777 11.2847 213.478 10.5963C214.211 9.87787 215.007 9.29418 215.867 8.84519C216.759 8.39619 217.635 8.17169 218.495 8.17169C219.706 8.17169 220.629 8.48599 221.267 9.11458C221.904 9.74318 222.222 10.5364 222.222 11.4943C222.222 12.512 221.904 13.3052 221.267 13.8739C220.661 14.4127 219.929 14.6821 219.069 14.6821C217.731 14.6821 216.552 14.0535 215.533 12.7963L215.437 12.7065C215.118 12.2875 214.752 12.063 214.338 12.033C213.924 11.9732 213.542 12.1528 213.191 12.5718C212.873 12.8412 212.602 13.1705 212.379 13.5596C212.188 13.9188 211.997 14.3379 211.806 14.8168V27.3438C211.806 28.5411 212.363 29.2894 213.478 29.5887L215.007 29.9928V30.4418H202.631Z" fill="white"/>
<path d="M31.8528 90.2778C25.5563 90.2778 20.0006 88.9932 15.1856 86.424C10.4324 83.7937 6.69772 80.0929 3.9816 75.3216C1.3272 70.4892 0 64.8003 0 58.2551C0 51.8934 1.3272 46.3269 3.9816 41.5556C6.63599 36.7843 10.4633 33.0835 15.4634 30.4532C20.5253 27.7617 26.6366 26.4159 33.7973 26.4159C37.069 26.4159 40.0938 26.7829 42.8716 27.517C45.7112 28.251 48.3965 29.3215 50.9274 30.7284L51.2978 43.5742H50.3718L45.1865 34.0316C44.384 32.5024 43.6432 31.4013 42.9642 30.7284C42.2852 30.0556 41.421 29.5356 40.3715 29.1686C39.3839 28.8627 38.4579 28.6486 37.5937 28.5263C36.7912 28.3428 35.7109 28.251 34.3528 28.251C30.5256 28.251 27.1304 29.2603 24.1674 31.279C21.266 33.2976 19.0129 36.509 17.4079 40.9133C15.8029 45.3176 15.0004 51.0982 15.0004 58.2551C15.0004 65.3509 15.7412 71.1315 17.2227 75.5969C18.766 80.0623 20.9265 83.3349 23.7044 85.4147C26.4822 87.4333 29.6922 88.4427 33.3343 88.4427C33.8899 88.4427 34.4146 88.4121 34.9084 88.3509C35.464 88.2286 35.9887 88.1062 36.4825 87.9839C37.6554 87.8004 38.427 87.311 38.7974 86.5158C39.1678 85.7206 39.353 84.7724 39.353 83.6714V65.5038C39.353 63.1181 38.1184 61.65 35.6492 61.0995L31.3898 59.9984V59.0809H57.5017V59.9984L56.2053 60.3655C53.8596 61.0995 52.6867 62.6288 52.6867 64.9532V84.8642C49.4767 86.6381 46.205 87.9839 42.8716 88.9014C39.5999 89.819 35.927 90.2778 31.8528 90.2778Z" fill="white"/>
<path d="M60.7656 88.6262V87.7086L62.1546 87.3416C63.3892 86.9746 64.2225 86.424 64.6546 85.69C65.1485 84.956 65.3954 84.0078 65.3954 82.8456V54.1261C65.3954 52.7803 65.1485 51.8016 64.6546 51.1899C64.2225 50.517 63.3892 50.0583 62.1546 49.8136L60.7656 49.4466V48.529L76.692 43.2072L77.618 44.1247L78.4513 52.0157V52.7498C79.3156 51.037 80.4267 49.4771 81.7848 48.0702C83.2046 46.6021 84.7478 45.4093 86.4145 44.4918C88.143 43.5742 89.8406 43.1154 91.5073 43.1154C93.853 43.1154 95.6432 43.7577 96.8778 45.0423C98.1124 46.3269 98.7297 47.9479 98.7297 49.9053C98.7297 51.9851 98.1124 53.6061 96.8778 54.7684C95.7049 55.8694 94.2851 56.42 92.6184 56.42C90.0257 56.42 87.7417 55.1354 85.7664 52.5663L85.5812 52.3827C84.9639 51.5264 84.254 51.0676 83.4515 51.0064C82.649 50.8841 81.9082 51.2511 81.2292 52.1075C80.6119 52.658 80.0872 53.3309 79.6551 54.1261C79.2847 54.8601 78.9143 55.7165 78.5439 56.6952V82.295C78.5439 84.7419 79.6242 86.2711 81.7848 86.8828L84.7478 87.7086V88.6262H60.7656Z" fill="white"/>
<path d="M113.167 90.0025C109.587 90.0025 106.562 88.9932 104.093 86.9746C101.686 84.9559 100.482 82.0504 100.482 78.2578C100.482 75.3828 101.963 72.7525 104.926 70.3668C107.889 67.92 112.55 66.0849 118.908 64.8615C119.896 64.678 121.007 64.4945 122.242 64.311C123.476 64.0663 124.773 63.8216 126.131 63.5769V56.3282C126.131 52.1686 125.606 49.2631 124.557 47.6115C123.569 45.8987 121.995 45.0423 119.834 45.0423C118.353 45.0423 117.18 45.5317 116.316 46.5104C115.451 47.4279 114.896 49.049 114.649 51.3734L114.464 52.3827C114.34 55.0131 113.692 56.9399 112.519 58.1633C111.346 59.3867 109.896 59.9984 108.167 59.9984C106.562 59.9984 105.235 59.5091 104.186 58.5304C103.136 57.5516 102.611 56.2365 102.611 54.5849C102.611 52.0769 103.476 49.9665 105.204 48.2537C106.994 46.541 109.34 45.2564 112.241 44.4C115.143 43.5436 118.291 43.1154 121.686 43.1154C127.18 43.1154 131.409 44.4612 134.372 47.1527C137.396 49.783 138.909 54.0955 138.909 60.0902V80.3682C138.909 83.1208 140.205 84.4972 142.798 84.4972H144.835L145.668 85.2312C144.495 86.6993 143.199 87.831 141.779 88.6262C140.421 89.4214 138.477 89.819 135.946 89.819C133.23 89.819 131.069 89.2073 129.464 87.9839C127.921 86.6993 126.902 85.0171 126.408 82.9373C124.557 84.8948 122.643 86.577 120.668 87.9839C118.754 89.3296 116.254 90.0025 113.167 90.0025ZM118.816 84.4054C120.05 84.4054 121.192 84.1301 122.242 83.5796C123.353 82.9679 124.649 82.0504 126.131 80.827V65.412C125.513 65.5344 124.896 65.6567 124.279 65.779C123.661 65.9014 122.952 66.0237 122.149 66.1461C119.309 66.8801 117.025 68.1341 115.297 69.908C113.63 71.6208 112.797 73.9453 112.797 76.8815C112.797 79.3895 113.383 81.2857 114.556 82.5703C115.729 83.7937 117.149 84.4054 118.816 84.4054Z" fill="white"/>
<path d="M147.393 88.6262V87.7086L148.689 87.3416C150.85 86.7299 151.93 85.2312 151.93 82.8456V54.1261C151.93 52.7803 151.714 51.8016 151.282 51.1899C150.85 50.517 150.016 50.0583 148.782 49.8136L147.393 49.4466V48.529L163.227 43.2072L164.153 44.1247L164.893 49.6301C167.054 47.7338 169.492 46.1739 172.208 44.9505C174.925 43.7271 177.61 43.1154 180.264 43.1154C184.338 43.1154 187.456 44.2165 189.616 46.4186C191.839 48.6208 192.95 51.9851 192.95 56.5117V82.9373C192.95 85.323 194.123 86.8216 196.468 87.4333L197.302 87.7086V88.6262H175.449V87.7086L176.653 87.3416C178.814 86.6687 179.894 85.17 179.894 82.8456V53.5756C179.894 49.6607 177.918 47.7032 173.968 47.7032C171.252 47.7032 168.289 49.049 165.079 51.7405V82.9373C165.079 85.323 166.159 86.8216 168.319 87.4333L169.153 87.7086V88.6262H147.393Z" fill="white"/>
<path d="M220.555 90.0025C216.913 90.0025 213.641 89.2073 210.74 87.6169C207.838 85.9653 205.523 83.4573 203.795 80.0929C202.128 76.6674 201.295 72.2937 201.295 66.9719C201.295 61.5889 202.252 57.154 204.165 53.6673C206.079 50.1194 208.61 47.4891 211.758 45.7763C214.906 44.0024 218.332 43.1154 222.036 43.1154C224.197 43.1154 226.265 43.3295 228.24 43.7577C230.215 44.1859 231.975 44.8282 233.518 45.6846V33.7564C233.518 32.4718 233.302 31.5237 232.87 30.9119C232.499 30.3002 231.666 29.8721 230.37 29.6274L228.61 29.2603V28.3428L245.463 24.3055L246.481 25.1313L246.111 37.9771V82.8456C246.111 84.069 246.327 85.0783 246.759 85.8735C247.191 86.6075 247.994 87.1275 249.167 87.4333L250 87.7086V88.6262L234.166 89.6355L233.333 86.3323C231.666 87.4333 229.752 88.3203 227.592 88.9932C225.493 89.6661 223.147 90.0025 220.555 90.0025ZM225.925 86.6076C228.518 86.6076 230.895 85.8429 233.055 84.3137V47.8867C230.771 46.4186 228.425 45.6846 226.018 45.6846C223.055 45.6846 220.524 47.3974 218.425 50.8229C216.326 54.1873 215.277 59.5091 215.277 66.7884C215.277 74.0676 216.264 79.2059 218.24 82.2033C220.215 85.1395 222.777 86.6076 225.925 86.6076Z" fill="white"/>
<path d="M66.6212 3.84692C67.6456 3.84692 68.1579 3.59712 68.1579 3.09752C68.1579 2.84772 68.2405 2.72282 68.4057 2.72282C68.5875 2.72282 68.6784 2.93099 68.6784 3.34732C68.6784 3.747 68.447 4.05509 67.9844 4.27158C67.5217 4.48808 67.1086 4.59632 66.7451 4.59632C66.3981 4.59632 66.1089 4.57967 65.8776 4.54636C63.4486 4.22995 61.3666 3.69704 59.6317 2.94764C58.4585 4.81282 57.4092 7.29416 56.4839 10.3917C56.1369 11.5075 55.6412 12.7148 54.9968 14.0138C54.3689 15.3127 53.6831 16.3869 52.9396 17.2362C52.2125 18.0689 51.3698 18.7517 50.4114 19.2846C48.5277 20.3171 46.3053 20.8333 43.7441 20.8333C41.6622 20.8333 39.7124 20.3171 37.8948 19.2846C36.1102 18.2687 35.0692 16.7033 34.7718 14.5883C34.7388 14.3052 34.7222 13.8889 34.7222 13.3393C34.7222 12.7731 34.8792 11.9738 35.1932 10.9412C35.5236 9.90874 36.135 9.12603 37.0273 8.59312C37.3908 8.37663 37.6634 8.26838 37.8452 8.26838C38.1426 8.26838 38.2748 8.40994 38.2418 8.69304C38.1757 8.77631 38.0022 8.91786 37.7213 9.1177C37.4569 9.30089 37.2008 9.50073 36.9529 9.71723C36.7051 9.91707 36.4572 10.2335 36.2094 10.6665C35.7797 11.3992 35.5649 12.2236 35.5649 13.1395C35.5649 15.2378 36.2755 16.8532 37.6965 17.9856C38.4566 18.6184 39.3075 19.1014 40.2494 19.4345C41.1912 19.7675 42.1331 19.9341 43.0749 19.9341C43.108 19.9341 43.1493 19.9341 43.1989 19.9341C46.6193 19.8508 49.4283 18.6018 51.6259 16.187C53.0139 14.6716 54.9141 11.2493 57.3266 5.92026C58.1528 4.0884 58.6815 3.01425 58.9129 2.69784C55.9882 1.76525 53.3609 1.29896 51.0311 1.29896C48.7012 1.29896 46.8093 2.00673 45.3552 3.42226C44.182 4.55469 43.5954 5.73708 43.5954 6.96942C43.5954 8.31834 44.182 9.17599 45.3552 9.54237C45.7683 9.65894 46.1401 9.71723 46.4706 9.71723C46.8175 9.71723 47.2059 9.65894 47.6355 9.54237C48.0816 9.40914 48.503 9.15101 48.8995 8.76799C49.3126 8.36831 49.6183 7.97695 49.8166 7.59392C50.0314 7.2109 50.1223 6.91946 50.0892 6.71962V6.66966C50.2214 6.55309 50.3371 6.51978 50.4362 6.56974C50.5354 6.60305 50.5849 6.70297 50.5849 6.8695C50.4197 8.16846 49.767 9.14268 48.6269 9.79217C47.9329 10.2085 47.2885 10.4167 46.6936 10.4167C46.0988 10.4167 45.57 10.3334 45.1074 10.1669C43.7524 9.68392 42.8932 8.75966 42.5297 7.39408C42.414 6.9611 42.3562 6.53644 42.3562 6.1201C42.3562 5.1209 42.6618 4.14668 43.2732 3.19744C44.3638 1.4988 46.074 0.47462 48.4038 0.1249C48.9326 0.0416333 49.4365 0 49.9157 0C50.3949 0 50.9485 0.0249797 51.5764 0.0749391C52.2208 0.124899 53.0635 0.291433 54.1045 0.57454C55.162 0.857647 56.236 1.19071 57.3266 1.57374C58.4337 1.94011 59.0946 2.15661 59.3094 2.22322C60.1191 1.22402 60.7222 0.716093 61.1188 0.69944C61.2014 0.666133 61.3088 0.649479 61.441 0.649479C61.5897 0.649479 61.7054 0.766053 61.788 0.9992C61.8706 1.23235 61.8128 1.38223 61.6145 1.44884C61.5319 1.46549 61.4245 1.45717 61.2923 1.42386C61.1931 1.35725 60.9866 1.46549 60.6726 1.7486C60.3752 2.01505 60.1521 2.23987 60.0034 2.42306C61.5567 2.92266 62.9199 3.28903 64.093 3.52218C65.2662 3.73868 66.1089 3.84692 66.6212 3.84692Z" fill="white"/>
<path d="M62.5556 17.3611C62.5556 17.8274 62.7208 18.0606 63.0513 18.0606C63.8279 18.0606 64.9267 16.5951 66.3477 13.6641C66.4634 13.4309 66.5625 13.3393 66.6452 13.3893C66.7443 13.4392 66.7939 13.5059 66.7939 13.5891C66.7939 13.6724 66.6947 13.9139 66.4965 14.3135C66.3147 14.6966 66.1247 15.0713 65.9264 15.4376C65.7446 15.7874 65.472 16.2537 65.1085 16.8365C64.3484 18.0023 63.5387 18.5851 62.6795 18.5851C62.1177 18.5851 61.6715 18.352 61.3411 17.8857C61.1924 17.6692 61.118 17.3778 61.118 17.0114C61.118 16.6284 61.2006 16.1704 61.3659 15.6375C61.5311 15.1046 61.9855 14.2386 62.7291 13.0396C62.9108 12.7398 63.0017 12.5067 63.0017 12.3401C63.0017 12.1569 62.8612 12.0653 62.5803 12.0653C62.2994 12.0653 61.7624 12.44 60.9693 13.1894C59.7796 14.2886 58.6229 15.9372 57.4993 18.1355C57.3837 18.3853 57.078 18.5102 56.5823 18.5102C56.1361 18.5435 55.8552 18.5935 55.7395 18.6601C58.879 12.082 61.1511 7.494 62.5556 4.89608C62.8695 4.31321 63.1422 3.90521 63.3735 3.67206C63.6213 3.43891 63.9105 3.32234 64.241 3.32234C64.3236 3.32234 64.4971 3.34732 64.7615 3.39728C65.0258 3.43059 65.2241 3.43891 65.3563 3.42226C64.8606 3.93852 63.9683 5.3707 62.6795 7.71882C61.4072 10.0503 60.1844 12.4234 59.0112 14.8381C59.7878 13.8556 60.4818 13.0895 61.0932 12.54C61.7211 11.9904 62.4812 11.4742 63.3735 10.9912C64.2658 10.4916 64.9184 10.2418 65.3315 10.2418C65.4307 10.2418 65.5216 10.2585 65.6042 10.2918C63.5718 13.8889 62.5556 16.2453 62.5556 17.3611Z" fill="white"/>
<path d="M67.4639 14.6383C67.2325 15.2045 67.1169 15.8373 67.1169 16.5368C67.1169 17.0031 67.216 17.3778 67.4143 17.6609C67.6291 17.9273 67.9265 18.0606 68.3066 18.0606C69.8102 18.0606 71.1734 16.6367 72.3962 13.789C72.5118 13.5225 72.6523 13.4059 72.8175 13.4392C72.8836 13.4559 72.9167 13.4975 72.9167 13.5641C72.9167 13.6308 72.7266 14.0721 72.3466 14.8881C71.9831 15.6874 71.6113 16.3369 71.2313 16.8365C70.3885 18.0023 69.3476 18.5851 68.1083 18.5851C67.4473 18.5851 66.8855 18.3686 66.4229 17.9357C65.9602 17.5027 65.7289 16.9115 65.7289 16.1621C65.7289 15.4127 65.9024 14.6216 66.2494 13.789C66.6129 12.9396 67.1003 12.1569 67.7117 11.4408C68.3231 10.7081 69.0253 10.1752 69.8185 9.84212C70.1985 9.67559 70.562 9.59233 70.909 9.59233C71.256 9.59233 71.5783 9.69225 71.8757 9.89209C72.1566 10.1252 72.297 10.3834 72.297 10.6665C72.297 11.6657 71.7022 12.6232 70.5125 13.5392C70.149 13.8223 69.6367 14.0804 68.9758 14.3135C68.3148 14.53 67.8109 14.6383 67.4639 14.6383ZM71.6278 10.6415C71.6278 10.3084 71.4956 10.1419 71.2313 10.1419C70.7686 10.1419 70.0663 10.7164 69.1245 11.8655C68.5627 12.5649 68.067 13.3477 67.6374 14.2136C67.9183 14.2136 68.3231 14.1137 68.8518 13.9139C69.3971 13.714 69.8681 13.4476 70.2646 13.1145C71.1734 12.3318 71.6278 11.5075 71.6278 10.6415Z" fill="white"/>
</svg>
