<?xml version="1.0" encoding="utf-8"?>
<!-- Generator: Adobe Illustrator 16.0.0, SVG Export Plug-In . SVG Version: 6.00 Build 0)  -->
<!DOCTYPE svg PUBLIC "-//W3C//DTD SVG 1.1//EN" "http://www.w3.org/Graphics/SVG/1.1/DTD/svg11.dtd">
<svg version="1.1" id="Layer_1" xmlns="http://www.w3.org/2000/svg" xmlns:xlink="http://www.w3.org/1999/xlink" x="0px" y="0px"
	 width="209.503px" height="33.941px" viewBox="0 0 209.503 33.941" enable-background="new 0 0 209.503 33.941"
	 xml:space="preserve">
<g>
	<g>
		<path fill="#FFFFFF" d="M51.927,22.358l0.133-0.332l0.432-0.481c0.222-0.365,0.404-0.581,0.548-0.647
			c0.022-0.089,0.055-0.172,0.1-0.249c0.044-0.077,0.077-0.199,0.1-0.365l0.149-0.266c0.044-0.044,0.066-0.077,0.066-0.1
			s-0.044-0.089-0.133-0.199L53.24,19.37c0-0.089-0.293-0.382-0.88-0.88h-0.133l-1.196-0.581l-0.066-0.166l-0.133-0.033
			l-0.167,0.066h-0.033l-0.565-0.166c-0.454-0.122-0.753-0.216-0.897-0.282c-0.022,0.022-0.056,0.033-0.1,0.033l-0.665-0.149
			c-0.188-0.044-0.302-0.092-0.341-0.142c-0.039-0.05-0.133-0.1-0.282-0.149c-0.15-0.05-0.247-0.097-0.291-0.141
			c-0.044-0.044-0.133-0.066-0.266-0.066l-0.416,0.1c0-0.033-0.155-0.089-0.465-0.166c-0.044-0.11-0.078-0.166-0.1-0.166
			l-0.482,0.066c-0.321-0.155-0.488-0.232-0.499-0.232c-0.056,0-0.25-0.03-0.582-0.092c-0.332-0.061-0.548-0.124-0.647-0.19
			s-0.249-0.133-0.448-0.199l-0.1-0.1c-0.022-0.022-0.083-0.044-0.183-0.066h-0.299c-0.066,0-0.158-0.056-0.274-0.166
			s-0.266-0.222-0.448-0.332s-0.343-0.285-0.481-0.523c-0.139-0.237-0.213-0.479-0.224-0.722c-0.022-0.022-0.033-0.044-0.033-0.066
			l0.1-0.531c0.1-0.675,0.415-1.301,0.946-1.876c0.088-0.299,0.271-0.515,0.548-0.647l0.066-0.232
			c0.321-0.276,0.55-0.498,0.689-0.664c0.138-0.166,0.296-0.302,0.473-0.407c0.177-0.104,0.315-0.201,0.415-0.29l0.301-0.133
			c-0.011-0.1,0.235-0.335,0.74-0.706c0.505-0.37,0.898-0.614,1.181-0.73s0.47-0.201,0.564-0.257
			c0.094-0.056,0.368-0.139,0.822-0.249c0.11-0.299,0.288-0.448,0.531-0.448h0.249l0.332-0.332l0.448,0.033
			c0.022-0.022,0.083-0.092,0.183-0.208s0.266-0.174,0.498-0.174l2.009-0.614h0.133l0.133,0.033c0.088,0,0.202-0.077,0.34-0.232
			c0.138-0.155,0.318-0.232,0.54-0.232c0.044,0,0.127,0.044,0.249,0.133c0,0.022,0.011,0.033,0.033,0.033l0.432-0.133l0.515,0.033
			l0.647-0.166c0.409,0,0.769,0.1,1.079,0.299l0.033-0.066v-0.1c0-0.188,0.105-0.282,0.315-0.282c0.088,0,0.144,0.022,0.166,0.066
			l0.199,0.116h0.116c0.022,0,0.166,0.066,0.432,0.199c0.166-0.11,0.271-0.166,0.315-0.166c0.21,0,0.376,0.089,0.498,0.266
			l0.282-0.033c0.088-0.089,0.144-0.133,0.166-0.133c0.066,0,0.155,0.089,0.266,0.266l0.1,0.033h0.415
			c0.022,0,0.066,0.033,0.133,0.1l0.183,0.149c0.088,0.089,0.149,0.16,0.183,0.216s0.072,0.105,0.116,0.149
			c0.288-0.122,0.442-0.183,0.465-0.183c0.11,0,0.193,0.094,0.249,0.282c0,0.155,0.097,0.307,0.291,0.456
			c0.193,0.149,0.291,0.308,0.291,0.474c0.243,0.11,0.365,0.288,0.365,0.531l0.315,0.813l-0.066,0.282
			C62.656,8.772,62.7,8.872,62.7,8.894l-0.066,0.614l0.066,0.647c0,0.343-0.161,0.637-0.481,0.88c-0.066,0-0.174,0.047-0.324,0.141
			c-0.149,0.095-0.235,0.142-0.257,0.142c-0.288,0-0.479-0.069-0.573-0.208c-0.094-0.138-0.186-0.24-0.274-0.307
			c-0.089-0.066-0.133-0.155-0.133-0.266c0-0.255,0.171-0.504,0.515-0.747c0.155,0,0.266-0.05,0.332-0.149
			c0-0.232-0.05-0.393-0.149-0.481s-0.208-0.21-0.324-0.365s-0.241-0.279-0.374-0.374c-0.133-0.094-0.241-0.213-0.324-0.356
			s-0.158-0.216-0.224-0.216l-0.232,0.033l-0.481-0.1c-0.509-0.066-0.974-0.183-1.395-0.349H57.67L56.773,7.3
			c-0.155,0.066-0.376,0.1-0.664,0.1l-1.096,0.166l-0.448-0.033c-0.033,0-0.338,0.094-0.913,0.282l-0.166,0.033h-0.448
			c-0.022,0-0.164,0.056-0.423,0.166c-0.26,0.11-0.479,0.188-0.656,0.232L51.81,8.313c-0.022,0.022-0.056,0.033-0.1,0.033
			l-0.266-0.033l-1.461,0.714l-0.232-0.133c-0.188-0.089-0.293-0.133-0.315-0.133c-0.155,0-0.232,0.077-0.232,0.232L49.17,9.309
			c-0.144,0.089-0.238,0.155-0.282,0.199c-0.044,0.044-0.1,0.077-0.166,0.1h-0.199c-0.133,0-0.257,0.058-0.374,0.174
			s-0.219,0.181-0.307,0.191c-0.089,0.011-0.216,0.061-0.382,0.149c-0.022,0.044-0.111,0.089-0.266,0.133
			c-0.155,0.044-0.274,0.146-0.357,0.307c-0.083,0.161-0.18,0.241-0.291,0.241l-0.332-0.066l-0.183,0.332
			c-0.232,0.056-0.365,0.089-0.398,0.1c-0.144,0.188-0.288,0.332-0.432,0.432c-0.144,0.1-0.285,0.207-0.423,0.323
			c-0.139,0.116-0.238,0.235-0.299,0.357c-0.061,0.122-0.152,0.219-0.274,0.29c-0.122,0.072-0.227,0.219-0.315,0.44l-0.166,0.166
			c-0.277,0.232-0.415,0.481-0.415,0.747c0,0.188,0.133,0.326,0.398,0.415s0.432,0.16,0.498,0.216s0.166,0.083,0.299,0.083
			s0.26,0.027,0.382,0.083c0.122,0.056,0.326,0.144,0.614,0.266c0.055,0.177,0.11,0.266,0.166,0.266
			c0.022,0,0.066-0.044,0.133-0.133s0.166-0.133,0.298-0.133c0.144,0,0.282,0.089,0.415,0.266l0.133-0.1h0.066l0.216,0.066h0.033
			l0.199-0.1c0.022-0.022,0.055-0.033,0.099-0.033c0.033,0,0.205,0.056,0.515,0.166h0.033c0.022,0,0.11-0.022,0.266-0.066
			c0.166,0.044,0.26,0.077,0.282,0.1l0.232,0.133c0,0.033,0.022,0.05,0.066,0.05c0.044,0,0.11-0.025,0.199-0.075
			c0.088-0.05,0.171-0.074,0.249-0.074c0.088,0,0.188,0.061,0.299,0.183c0.177-0.077,0.276-0.116,0.299-0.116
			c0.099,0,0.271,0.083,0.514,0.249l0.315,0.066h0.365l0.548,0.1c0.155,0.166,0.315,0.293,0.481,0.382
			C51.945,16.06,52.022,16,52.155,16c0.177,0,0.448,0.072,0.813,0.216l0.133,0.033l0.133,0.1c0.188-0.044,0.305-0.066,0.349-0.066
			c0.221,0,0.332,0.077,0.332,0.232c0,0.133-0.033,0.305-0.1,0.515c0.022,0,0.055,0.022,0.1,0.066
			c0.055-0.066,0.116-0.11,0.183-0.133l0.265-0.149c0.044-0.044,0.078-0.066,0.1-0.066c0.254,0,0.614,0.177,1.079,0.531
			s0.73,0.758,0.797,1.212c0,0.133,0.044,0.288,0.133,0.465l-0.066,0.216l0.033,0.266c0,0.022-0.022,0.1-0.066,0.232l-0.033,0.249
			c-0.022,0.044-0.056,0.083-0.1,0.116c-0.044,0.033-0.078,0.072-0.1,0.116l0.1,0.282v0.066c0,0.044-0.042,0.105-0.125,0.183
			s-0.136,0.149-0.158,0.216c-0.022,0.066-0.061,0.136-0.116,0.207c-0.056,0.072-0.094,0.158-0.116,0.258
			c-0.022,0.1-0.13,0.213-0.324,0.34c-0.194,0.128-0.291,0.225-0.291,0.291s0.022,0.1,0.066,0.1c0.132,0,0.273-0.063,0.423-0.191
			c0.149-0.127,0.262-0.201,0.34-0.224c0.077-0.022,0.209-0.089,0.398-0.199l1.559-0.73c1.161-0.554,1.807-0.83,1.94-0.83
			c0.177,0,0.265,0.089,0.265,0.266c0,0.066-0.078,0.193-0.232,0.382c-0.022,0.521-0.249,0.824-0.681,0.913
			c-0.166,0.11-0.293,0.227-0.381,0.349h-0.133c-0.277,0.31-0.592,0.465-0.946,0.465h-0.1c-0.41,0.409-0.908,0.637-1.494,0.681
			c-0.388,0.388-0.708,0.581-0.963,0.581l-0.266,0.066c-0.277,0.11-0.471,0.166-0.581,0.166c-0.022,0-0.066,0.044-0.133,0.133
			l-0.249,0.183c-0.21,0.044-0.438,0.166-0.681,0.365c-0.244,0.199-0.429,0.313-0.556,0.34c-0.127,0.028-0.263,0.075-0.407,0.142
			c-0.144,0.066-0.725,0.442-1.743,1.129l-0.216,0.066c-0.432,0.199-0.703,0.362-0.813,0.489c-0.111,0.128-0.244,0.235-0.398,0.324
			h-0.066c-0.255,0-0.554,0.166-0.896,0.498c-0.022,0.056-0.263,0.146-0.722,0.273c-0.459,0.127-0.899,0.324-1.32,0.59
			c-0.266,0.066-0.592,0.154-0.979,0.266c-0.387,0.11-0.669,0.177-0.847,0.199l-1.162,0.249c-0.255,0.044-0.548,0.11-0.88,0.199
			c-0.199-0.066-0.371-0.1-0.515-0.1l-0.299,0.033c-0.044,0-0.113-0.039-0.208-0.116c-0.094-0.078-0.219-0.152-0.374-0.225
			s-0.232-0.263-0.232-0.572c0-0.277,0.305-0.551,0.914-0.822c0.609-0.271,1.008-0.462,1.196-0.572
			c0.088-0.122,0.241-0.193,0.457-0.216c0.216-0.022,0.401-0.089,0.557-0.199c0.155-0.11,0.393-0.21,0.714-0.299l0.665-0.349
			c0.033-0.022,0.061-0.033,0.083-0.033h0.233c0.077,0,0.194-0.061,0.349-0.183c0.155-0.122,0.316-0.21,0.482-0.266h0.199
			c0.022,0,0.056-0.027,0.1-0.083c0.044-0.056,0.145-0.127,0.299-0.216l0.05-0.033h0.166c0.122-0.1,0.266-0.183,0.432-0.249
			s0.327-0.155,0.482-0.266l1.296-0.498l0.299,0.033c0.066,0,0.152-0.053,0.257-0.158c0.105-0.104,0.352-0.213,0.74-0.323
			c0.055-0.089,0.171-0.193,0.349-0.315s0.388-0.299,0.631-0.531L51.927,22.358z M46.135,26.508l-0.233-0.033
			c-0.156,0.089-0.308,0.139-0.458,0.149s-0.383,0.113-0.699,0.307c-0.316,0.194-0.68,0.38-1.09,0.557
			c-0.41,0.177-0.615,0.293-0.615,0.349c0.543-0.066,1.109-0.216,1.697-0.448l1.198-0.332c0.155-0.044,0.263-0.089,0.325-0.133
			c0.061-0.044,0.18-0.105,0.357-0.183l0.267-0.199c0.055-0.022,0.177-0.066,0.366-0.133s0.283-0.133,0.283-0.199
			c0-0.044-0.022-0.066-0.066-0.066c-0.399,0-0.715,0.061-0.948,0.183S46.157,26.508,46.135,26.508z"/>
		<path fill="#FFFFFF" d="M59.458,19.785l0.233,0.1c0.022-0.188,0.128-0.349,0.317-0.481h0.133c0.111,0,0.255-0.149,0.434-0.448
			l0.283-0.166c0.044,0.022,0.111,0.033,0.2,0.033c0.066,0,0.13-0.044,0.191-0.133c0.062-0.089,0.214-0.26,0.459-0.515h0.067
			c0.066,0,0.147-0.05,0.242-0.149s0.219-0.149,0.375-0.149l0.567-0.149c0.177-0.044,0.277-0.066,0.299-0.066
			c0.1-0.033,0.343,0.169,0.73,0.605c0.387,0.438,0.581,0.861,0.581,1.271c0,0.232-0.122,0.371-0.365,0.415l-0.083,0.066v0.332
			l-0.282,0.614c-0.078,0.166-0.172,0.271-0.282,0.315c-0.1,0.177-0.172,0.299-0.216,0.365l-0.232,0.033l-0.1,0.1v0.415
			c-0.1,0.133-0.244,0.423-0.432,0.871c-0.188,0.448-0.282,0.733-0.282,0.855c0,0.21,0.044,0.315,0.133,0.315
			c0.066,0,0.133-0.027,0.199-0.083s0.158-0.119,0.274-0.191c0.116-0.071,0.202-0.146,0.257-0.224
			c0.056-0.077,0.172-0.146,0.349-0.208c0.177-0.061,0.343-0.174,0.498-0.34c0.155-0.166,0.266-0.276,0.332-0.332
			s0.138-0.13,0.216-0.225c0.077-0.094,0.127-0.141,0.149-0.141c0.066,0,0.171-0.022,0.315-0.066
			c0.022-0.122,0.044-0.21,0.066-0.266l0.398-0.199l0.962-0.863l0.133-0.166c0.177-0.044,0.288-0.077,0.332-0.1
			c0.088-0.299,0.238-0.515,0.448-0.647c0-0.044,0.055-0.077,0.166-0.1c0.088-0.177,0.201-0.318,0.34-0.424
			c0.138-0.104,0.251-0.234,0.34-0.39l0.381-0.315c0.11-0.044,0.188-0.11,0.232-0.199c0.575-0.509,0.932-0.8,1.07-0.872
			c0.138-0.071,0.362-0.107,0.672-0.107s0.561,0.119,0.755,0.356c0.193,0.238,0.404,0.418,0.631,0.54
			c0.227,0.122,0.34,0.354,0.34,0.697c0,0.321-0.249,0.936-0.747,1.843c-0.321,0.952-0.487,1.535-0.498,1.751
			c-0.011,0.216-0.061,0.341-0.149,0.374c-0.089,0.033-0.133,0.072-0.133,0.116v0.066c0,0.266,0.044,0.398,0.133,0.398
			c0.066,0,0.158-0.056,0.274-0.166s0.351-0.232,0.705-0.365l0.149,0.033c0.319-0.487,0.534-0.75,0.645-0.789
			c0.11-0.038,0.22-0.138,0.331-0.299c0.11-0.16,0.246-0.246,0.405-0.257c0.16-0.011,0.262-0.039,0.306-0.083
			c0.011-0.266,0.229-0.564,0.653-0.896s0.67-0.498,0.736-0.498c0.11,0,0.199,0.083,0.265,0.249c0.066,0.166,0.135,0.279,0.207,0.34
			c0.071,0.062,0.107,0.114,0.107,0.158v0.299c0,0.144-0.072,0.238-0.215,0.282c-0.11,0.243-0.21,0.388-0.298,0.432l-0.298-0.033
			c-0.056,0.066-0.103,0.127-0.141,0.183s-0.063,0.077-0.075,0.066c-0.088,0.022-0.246,0.169-0.472,0.439
			c-0.226,0.271-0.428,0.496-0.604,0.673l-0.066,0.1c-0.089,0.066-0.171,0.11-0.249,0.133l-0.298,0.249
			c-0.111-0.066-0.177-0.1-0.199-0.1c-0.022,0-0.069,0.044-0.141,0.133s-0.215,0.202-0.431,0.34
			c-0.215,0.139-0.378,0.297-0.488,0.474l-0.265,0.266l-0.348,0.05c-0.033,0-0.088,0.05-0.166,0.149l-0.298,0.382
			c-0.144,0.188-0.37,0.282-0.679,0.282c-0.066,0-0.152-0.059-0.257-0.175s-0.204-0.216-0.298-0.299
			c-0.094-0.083-0.304-0.332-0.63-0.747c-0.327-0.415-0.489-0.633-0.489-0.655l0.1-0.581l-0.033-0.398
			c0-0.077,0.052-0.196,0.158-0.357c0.105-0.16,0.158-0.246,0.158-0.257l-0.033-0.647c0.022-0.022,0.044-0.056,0.066-0.1
			l0.232-0.382c-0.022-0.11-0.033-0.232-0.033-0.365l0.066-0.548c-0.199,0.089-0.374,0.269-0.523,0.539
			c-0.149,0.271-0.346,0.407-0.589,0.407c-0.21,0.376-0.371,0.559-0.481,0.548c-0.044,0.044-0.078,0.089-0.1,0.133l-0.232,0.133
			l-0.282-0.033l-0.1,0.415c-0.244,0.133-0.401,0.252-0.473,0.356c-0.072,0.105-0.186,0.214-0.34,0.324l-0.282,0.266h-0.266
			c-0.044,0.299-0.216,0.548-0.515,0.747l-0.133,0.166l-0.299-0.033c-0.111,0.354-0.249,0.57-0.415,0.647
			c-0.188,0-0.446,0.172-0.772,0.515s-0.556,0.515-0.689,0.515c-0.963,0-1.744-0.604-2.341-1.81
			c-0.022-0.044-0.075-0.127-0.158-0.249s-0.125-0.31-0.125-0.564c0-0.432,0.058-0.725,0.174-0.88s0.266-0.445,0.448-0.872
			c0.183-0.426,0.318-0.611,0.407-0.556c0.022-0.044,0.033-0.11,0.033-0.199c0.177-0.21,0.266-0.371,0.266-0.481
			c0-0.044-0.022-0.066-0.066-0.066c-0.022,0-0.089,0.033-0.199,0.1l-0.233,0.1c-0.1,0.022-0.172,0.066-0.217,0.133
			c-0.045,0.066-0.123,0.13-0.234,0.19c-0.111,0.062-0.2,0.114-0.267,0.158h-0.05c-0.067-0.066-0.111-0.1-0.133-0.1
			c-0.067,0.177-0.123,0.288-0.167,0.332l-0.2,0.033c-0.245,0.255-0.4,0.382-0.467,0.382c-0.044,0-0.145-0.039-0.3-0.116
			s-0.233-0.155-0.233-0.232l0.117-0.647v-0.299c0-0.022,0.044-0.066,0.133-0.133c0.022,0,0.111-0.119,0.267-0.357
			C59.063,19.904,59.246,19.785,59.458,19.785z"/>
		<path fill="#FFFFFF" d="M77.486,18.589l0.232-0.415c0.066-0.1,0.152-0.202,0.258-0.308c0.105-0.104,0.219-0.376,0.341-0.813
			c0.122-0.437,0.258-0.738,0.407-0.904S79.092,15.9,79.38,15.9c0.166,0,0.385,0.08,0.656,0.24c0.271,0.161,0.537,0.646,0.798,1.453
			c0.26,0.808,0.391,1.378,0.391,1.71c0,0.133,0.039,0.302,0.116,0.506c0.078,0.205,0.127,0.363,0.149,0.474
			c-0.088,0.188-0.133,0.293-0.133,0.315l0.033,0.681l-0.199,0.548v0.398c-0.133,0.222-0.199,0.359-0.199,0.415
			c0,0.066,0.022,0.133,0.066,0.199c0.52-0.222,0.835-0.401,0.945-0.54c0.111-0.138,0.218-0.224,0.323-0.257
			s0.279-0.177,0.522-0.432l0.315-0.166c0.11-0.133,0.204-0.252,0.282-0.357c0.077-0.104,0.168-0.18,0.273-0.224
			c0.104-0.044,0.229-0.122,0.373-0.232s0.354-0.238,0.63-0.382l0.166-0.199c0.166-0.188,0.361-0.338,0.588-0.448
			c0.226-0.11,0.351-0.166,0.373-0.166c0.077,0,0.158,0.103,0.241,0.307c0.083,0.205,0.124,0.407,0.124,0.606
			c0,0.188-0.108,0.373-0.323,0.556c-0.216,0.183-0.363,0.318-0.44,0.407s-0.254,0.166-0.53,0.232
			c-0.022,0.011-0.205,0.238-0.547,0.681l-0.332,0.199l-0.166,0.216c-0.022,0.044-0.171,0.089-0.448,0.133
			c-0.011,0-0.036,0.056-0.075,0.166c-0.039,0.11-0.158,0.188-0.357,0.232c-0.398,0.365-0.603,0.57-0.613,0.614l-0.349,0.066
			c-0.066,0.21-0.122,0.338-0.166,0.382c-0.266,0.066-0.415,0.177-0.448,0.332c-0.033,0.022-0.089,0.044-0.166,0.066l-0.066,0.05
			c-0.254,0.199-0.503,0.321-0.746,0.365l-0.381,0.1l-0.133,0.199c0,0.056-0.136,0.127-0.407,0.216
			c-0.271,0.089-0.473,0.199-0.605,0.332l-0.282,0.216c-0.343,0.133-0.558,0.255-0.646,0.365h-0.232
			c-0.155,0-0.398,0.113-0.729,0.34c-0.332,0.228-0.597,0.341-0.796,0.341c-0.641,0-1.081-0.08-1.318-0.241
			c-0.237-0.16-0.434-0.359-0.589-0.598c-0.154-0.237-0.295-0.429-0.423-0.572c-0.127-0.144-0.19-0.26-0.19-0.349
			c0-0.077,0.052-0.155,0.157-0.232c0.105-0.077,0.219-0.235,0.34-0.474c0.122-0.237,0.432-0.39,0.929-0.456
			c0.022,0,0.102-0.033,0.24-0.1s0.251-0.1,0.34-0.1c0.111,0,0.249,0.1,0.415,0.299c0,0.022,0.022,0.033,0.066,0.033l0.265-0.033
			c0.122,0.089,0.205,0.133,0.249,0.133c0.265,0,0.547-0.133,0.846-0.398l0.066-0.033h0.133c0.033,0,0.088-0.094,0.166-0.282
			l0.282-0.581l0.581-0.747v-0.166c0-0.033,0.033-0.133,0.1-0.299V21.71c0-0.1,0.066-0.163,0.199-0.191
			c0.132-0.027,0.199-0.097,0.199-0.207l-0.033-0.133c-0.088-0.122-0.132-0.216-0.132-0.282l0.166-0.332l-0.033-0.349l0.066-0.133
			c-0.044-0.155-0.066-0.243-0.066-0.266l0.066-0.415c0-0.011-0.03-0.116-0.091-0.315s-0.108-0.299-0.141-0.299
			c-0.066,0-0.277,0.172-0.632,0.515s-0.565,0.587-0.631,0.73s-0.208,0.273-0.424,0.39c-0.216,0.116-0.363,0.247-0.441,0.391
			s-0.172,0.227-0.282,0.249l-1.114,0.896l-1.213,0.896c-0.089,0.1-0.144,0.149-0.166,0.149c-0.41,0-0.615-0.227-0.615-0.681
			c0-0.144,0.083-0.404,0.25-0.78c0.077-0.044,0.135-0.077,0.174-0.1s0.058-0.039,0.058-0.05s-0.011-0.017-0.033-0.017l0.1,0.066
			h0.033c0.41-0.276,0.676-0.438,0.798-0.481s0.232-0.166,0.333-0.365l0.698-0.498c0.177-0.133,0.449-0.376,0.814-0.73
			C77.153,19.015,77.386,18.755,77.486,18.589z"/>
		<path fill="#FFFFFF" d="M96.565,22.225l0.264-0.232c0.166,0,0.266-0.075,0.299-0.225s0.151-0.268,0.355-0.356
			s0.395-0.269,0.571-0.54c0.177-0.271,0.358-0.406,0.546-0.406c0.066,0,0.144,0.056,0.231,0.166
			c0.089,0.11,0.133,0.199,0.133,0.266c0,0.365-0.11,0.741-0.332,1.129l-0.066,0.465l-0.116,0.216
			c-0.166,0.089-0.273,0.183-0.323,0.282s-0.18,0.222-0.39,0.365l-0.166,0.232c-0.244,0.077-0.407,0.205-0.49,0.382
			s-0.199,0.276-0.348,0.299c-0.15,0.022-0.313,0.133-0.49,0.332c-0.111,0.056-0.244,0.105-0.398,0.149l-0.033,0.166
			c-0.111,0.11-0.285,0.199-0.523,0.266c-0.237,0.066-0.414,0.13-0.53,0.19c-0.116,0.062-0.196,0.092-0.241,0.092
			c-0.21,0-0.403-0.042-0.58-0.125c-0.178-0.083-0.359-0.135-0.548-0.157c-0.066-0.066-0.105-0.139-0.116-0.216
			c-0.011-0.077-0.066-0.18-0.166-0.308c-0.1-0.127-0.149-0.301-0.149-0.522l0.066-0.315c0-0.044-0.028-0.1-0.083-0.166
			s-0.083-0.122-0.083-0.166s0.011-0.077,0.033-0.1s0.033-0.056,0.033-0.1c0-0.056-0.011-0.116-0.033-0.183
			s-0.033-0.122-0.033-0.166l0.1-0.813c0-0.066-0.022-0.1-0.066-0.1s-0.125,0.056-0.241,0.166s-0.252,0.166-0.407,0.166
			c-0.088,0.066-0.161,0.205-0.216,0.415c-0.089,0.11-0.199,0.21-0.332,0.299l-0.066,0.1c-0.022,0.077-0.105,0.141-0.249,0.19
			c-0.144,0.05-0.244,0.114-0.299,0.191l-0.166,0.166l-0.315-0.033c-0.022,0.022-0.083,0.119-0.183,0.29
			c-0.1,0.172-0.227,0.313-0.382,0.424l-1.262,1.029c-0.133,0.089-0.327,0.199-0.581,0.332l-0.1,0.1
			c-0.886,0.587-1.511,0.88-1.876,0.88c-0.299,0-0.647-0.083-1.046-0.249s-0.614-0.365-0.647-0.598l-0.166-0.681
			c-0.1-0.155-0.149-0.371-0.149-0.647c0-0.133,0.011-0.222,0.033-0.266v-0.1l-0.033-0.548c0-0.133,0.105-0.199,0.315-0.199
			l-0.033-0.448c0-0.044,0.097-0.219,0.291-0.523c0.193-0.304,0.324-0.479,0.39-0.522l0.166-0.216
			c-0.011-0.133,0.066-0.274,0.232-0.424s0.299-0.301,0.399-0.456s0.288-0.326,0.565-0.515l0.499-0.498
			c0.388-0.388,0.809-0.697,1.263-0.93c0.066-0.022,0.202-0.133,0.407-0.332c0.205-0.199,0.438-0.346,0.698-0.44
			c0.26-0.094,0.515-0.213,0.764-0.356c0.25-0.144,0.446-0.216,0.59-0.216h0.133c0.044,0,0.338-0.139,0.881-0.415h0.1
			c0.044,0,0.149,0.044,0.316,0.133h0.033l0.266-0.133c0.044-0.022,0.1-0.033,0.166-0.033c0.687,0,1.063,0.476,1.131,1.428
			c0.021,0.199,0.077,0.299,0.166,0.299c0.11,0,0.268-0.202,0.473-0.606c0.205-0.403,0.641-0.605,1.305-0.605
			c0.476,0,0.714,0.305,0.714,0.913c0,0.72-0.321,1.4-0.963,2.042c-0.044,0.089-0.077,0.188-0.1,0.299l-0.232,0.681v0.033
			c0,0.066-0.048,0.157-0.142,0.273s-0.141,0.219-0.141,0.308l0.033,0.415l-0.066,0.465c0,0.21,0.039,0.349,0.115,0.415
			c0.354-0.089,0.609-0.235,0.77-0.44c0.16-0.204,0.273-0.317,0.34-0.34l0.166-0.066C96.316,22.474,96.432,22.335,96.565,22.225z
			 M91.052,22.225c0.044-0.243,0.18-0.429,0.407-0.557c0.227-0.127,0.362-0.257,0.407-0.39c0.21-0.155,0.512-0.432,0.905-0.83
			s0.59-0.642,0.59-0.73c0-0.033-0.022-0.05-0.066-0.05H93.26l-0.133,0.083l-0.299-0.033l-0.316,0.033l-0.232-0.116l-0.216,0.033
			l-0.332-0.066c-0.177,0-0.329,0.036-0.457,0.107c-0.127,0.072-0.371,0.152-0.73,0.241s-0.684,0.24-0.972,0.456
			c-0.288,0.216-0.498,0.324-0.631,0.324c-0.078,0.166-0.337,0.404-0.78,0.714c-0.266,0.089-0.438,0.282-0.515,0.581
			c-0.288,0.232-0.432,0.365-0.432,0.398L87.1,22.707c-0.089,0.077-0.199,0.141-0.332,0.19s-0.21,0.166-0.232,0.349
			c-0.022,0.183-0.097,0.349-0.224,0.498c-0.127,0.149-0.191,0.269-0.191,0.357c0,0.542,0.105,0.813,0.315,0.813
			c0.088,0,0.274-0.059,0.556-0.175s0.445-0.196,0.49-0.24c0.044-0.044,0.133-0.089,0.266-0.133l0.315-0.166
			c0.044-0.044,0.094-0.072,0.149-0.083s0.111-0.047,0.166-0.108c0.055-0.061,0.155-0.127,0.299-0.199
			c0.144-0.071,0.254-0.168,0.332-0.29c0.188-0.11,0.493-0.282,0.914-0.515l0.349-0.266c0.243-0.11,0.393-0.205,0.448-0.282
			C90.775,22.38,90.886,22.302,91.052,22.225z"/>
		<path fill="#FFFFFF" d="M113.119,23.254h0.066l0.166,0.066c0.022,0,0.044-0.011,0.066-0.033c0-0.188,0.089-0.349,0.267-0.481
			c0.056-0.21,0.181-0.371,0.374-0.481c0.194-0.11,0.502-0.293,0.924-0.548l0.416-0.365l0.199-0.1l0.134-0.166
			c0.122-0.144,0.238-0.216,0.349-0.216c0.167,0,0.25,0.061,0.25,0.183l-0.149,0.332l0.066,0.548c0,0.199-0.069,0.376-0.208,0.531
			s-0.352,0.382-0.64,0.681l-0.848,0.896l-0.449,0.232c-0.111,0.066-0.211,0.144-0.299,0.232l-0.648,0.548
			c0,0.155-0.05,0.271-0.149,0.349h-0.267l-0.133,0.066c-0.077,0.21-0.305,0.415-0.682,0.614l-0.232,0.166
			c-0.078,0.066-0.149,0.1-0.216,0.1l-0.466-0.066l-0.315,0.066c-0.089,0-0.208-0.044-0.357-0.133
			c-0.15-0.089-0.303-0.158-0.457-0.208c-0.155-0.05-0.353-0.254-0.591-0.614c-0.238-0.359-0.368-0.595-0.391-0.705
			c0-0.044-0.025-0.119-0.075-0.225c-0.05-0.104-0.074-0.168-0.074-0.19s0.05-0.133,0.149-0.332v-0.033
			c0-0.033-0.03-0.11-0.092-0.232c-0.061-0.122-0.091-0.271-0.091-0.448c0-0.1-0.033-0.227-0.1-0.382
			c0.088-0.089,0.133-0.155,0.133-0.199s-0.017-0.108-0.05-0.191s-0.05-0.146-0.05-0.19l0.1-0.813l-0.066-0.415l0.033-0.398
			c0-0.232-0.1-0.349-0.298-0.349c-0.088,0-0.198,0.061-0.331,0.183l-0.115,0.033c-0.298,0.144-0.508,0.263-0.629,0.356
			c-0.121,0.095-0.248,0.142-0.381,0.142c-0.065,0.066-0.192,0.127-0.38,0.183l-0.133,0.1c-0.044,0.044-0.132,0.11-0.265,0.199
			c0,0.033-0.207,0.219-0.62,0.556c-0.414,0.338-0.786,0.656-1.117,0.955s-0.57,0.462-0.72,0.489
			c-0.148,0.028-0.223,0.169-0.223,0.424c0,0.044-0.1,0.133-0.298,0.266c-0.022,0-0.138,0.122-0.348,0.365
			c-0.176-0.133-0.275-0.199-0.298-0.199c-0.144,0-0.25,0.183-0.316,0.548c-0.066,0.144-0.244,0.232-0.532,0.266
			c-0.022,0.011-0.062,0.094-0.116,0.249l-0.066,0.066h-0.167c-0.022,0-0.1,0.063-0.233,0.19c-0.133,0.128-0.249,0.208-0.35,0.241
			c-0.144,0.299-0.266,0.448-0.365,0.448c-0.045,0-0.108-0.022-0.191-0.066c-0.084-0.044-0.187-0.083-0.308-0.116
			c-0.122-0.033-0.258-0.169-0.407-0.407c-0.149-0.237-0.224-0.439-0.224-0.605c0-1.229,0.237-1.898,0.714-2.009l0.033-0.066v-0.133
			c0-0.144,0.063-0.246,0.19-0.308c0.127-0.061,0.258-0.183,0.391-0.365s0.221-0.284,0.266-0.307h0.216
			c0.044,0,0.066-0.116,0.066-0.349c0-0.066,0.027-0.127,0.083-0.183c0.055-0.056,0.088-0.136,0.1-0.241
			c0.011-0.104,0.091-0.276,0.24-0.515c0.149-0.237,0.225-0.379,0.225-0.423l-0.033-0.066c-0.277,0.255-0.477,0.393-0.598,0.415
			c-0.122,0.022-0.288,0.183-0.498,0.481l-0.266-0.05c-0.466,0.343-0.754,0.537-0.865,0.581c-0.11,0.044-0.233,0.172-0.366,0.382
			c0,0.066-0.039,0.11-0.116,0.133c-0.078,0.022-0.223,0.11-0.433,0.266h-0.101c-0.277,0-0.416-0.199-0.416-0.598l0.349-0.946
			c0.099-0.299,0.334-0.551,0.704-0.756c0.371-0.204,0.684-0.4,0.938-0.589s0.509-0.288,0.764-0.299l0.115-0.166
			c0.376-0.144,0.631-0.371,0.764-0.681s0.314-0.465,0.547-0.465c0.608,0,1.073,0.224,1.394,0.672s0.48,0.806,0.48,1.071
			l0.033,0.448c0,0.155-0.033,0.371-0.099,0.647c-0.133,0.199-0.199,0.349-0.199,0.448c0,0.089,0.055,0.133,0.166,0.133
			c0.065,0,0.154-0.047,0.265-0.142c0.11-0.094,0.235-0.18,0.373-0.257c0.139-0.077,0.219-0.144,0.241-0.199
			c0.11-0.266,0.304-0.448,0.58-0.548s0.448-0.183,0.515-0.249l0.166-0.133l0.133-0.249c0.298-0.133,0.497-0.255,0.597-0.365
			s0.231-0.183,0.397-0.216s0.354-0.133,0.564-0.299l0.249-0.066l0.232-0.133c0.021-0.022,0.088-0.05,0.198-0.083
			c0.111-0.033,0.274-0.092,0.489-0.175c0.216-0.083,0.362-0.124,0.44-0.124c0.563,0,1.009,0.227,1.335,0.681
			s0.489,0.819,0.489,1.096l-0.033,0.299l0.066,0.448v0.066l-0.133,0.913l0.033,0.315c0,0.521-0.11,0.88-0.332,1.079
			c-0.056,0.022-0.083,0.077-0.083,0.166v0.149l0.332,0.697c0.1,0.243,0.177,0.365,0.232,0.365l0.533-0.149
			c0.154-0.044,0.282-0.16,0.383-0.349c0.089-0.044,0.243-0.177,0.466-0.398C112.869,23.343,112.974,23.254,113.119,23.254z"/>
		<path fill="#FFFFFF" d="M143.192,22.906h-0.066c0,0.044-0.11,0.183-0.332,0.415h-0.248l-0.1,0.033
			c-0.287,0.288-0.492,0.432-0.613,0.432l-0.332-0.066h-0.066c-0.144,0-0.287,0.086-0.431,0.257
			c-0.144,0.172-0.299,0.258-0.464,0.258c-0.066,0-0.188-0.033-0.365-0.1c-0.133,0.177-0.338,0.266-0.613,0.266l-0.912,0.481
			c-0.11,0.044-0.202,0.089-0.273,0.133c-0.072,0.044-0.18,0.072-0.323,0.083s-0.299,0.063-0.465,0.157
			c-0.165,0.095-0.298,0.142-0.397,0.142l-0.381-0.116c-0.365,0.276-0.732,0.438-1.104,0.481c-0.37,0.044-0.638,0.089-0.804,0.133
			l-0.464,0.033l-0.713,0.183c-0.166,0.066-0.359,0.1-0.58,0.1c-0.277,0-0.536-0.105-0.779-0.315
			c-0.133,0.089-0.271,0.205-0.415,0.349l-0.1,0.033c-0.022,0-0.066-0.017-0.133-0.05s-0.121-0.05-0.165-0.05
			c-0.022,0-0.064,0.017-0.125,0.05s-0.124,0.05-0.19,0.05c-0.077,0-0.254-0.116-0.53-0.349c-0.077,0.066-0.149,0.1-0.216,0.1
			c-0.287,0-0.514-0.199-0.68-0.598l-0.282,0.1c-0.044,0-0.11-0.097-0.198-0.291c-0.089-0.193-0.133-0.367-0.133-0.522
			c0-0.421,0.896-1.201,2.687-2.341c1.792-1.14,2.914-1.776,3.368-1.909l0.166-0.116c0.066-0.066,0.138-0.1,0.216-0.1
			c0.021,0,0.077,0.022,0.166,0.066h0.1c0.133,0,0.227-0.077,0.282-0.232c0.055-0.155,0.188-0.232,0.398-0.232l0.166-0.033
			l1.876-1.029c0.088-0.044,0.393-0.16,0.913-0.349c0.52-0.188,0.877-0.335,1.07-0.44c0.194-0.104,0.495-0.19,0.905-0.257l0.166-0.1
			c0.177-0.077,0.326-0.116,0.448-0.116c0.741,0,1.112,0.365,1.112,1.096l-0.266,0.531c-0.166,0.376-0.394,0.564-0.681,0.564
			c-0.089,0-0.155-0.03-0.199-0.092c-0.045-0.061-0.083-0.091-0.116-0.091l-0.847,0.033l-0.365-0.133
			c-0.012,0.011-0.139,0.056-0.382,0.133h-0.266c-0.045,0-0.194,0.083-0.448,0.249l-0.432,0.166
			c-0.477,0.089-1.129,0.321-1.959,0.697s-1.312,0.554-1.444,0.531c-0.211,0.089-0.388,0.213-0.531,0.373
			c-0.145,0.161-0.421,0.308-0.83,0.44c-1.494,0.741-2.241,1.262-2.241,1.561c0,0.255,0.686,0.382,2.057,0.382
			c0.642,0,1.039-0.061,1.194-0.183l1.775-0.398l0.166-0.183h0.348c0.144,0,0.299-0.061,0.465-0.183s0.37-0.183,0.613-0.183
			c0.155,0,0.307-0.05,0.456-0.149s0.274-0.158,0.374-0.175s0.185-0.047,0.257-0.091c0.071-0.044,0.257-0.103,0.556-0.175
			c0.298-0.071,0.486-0.168,0.563-0.29l0.199-0.1c0.066-0.044,0.172-0.105,0.315-0.183h0.199c0.021,0,0.127-0.077,0.315-0.232
			l0.779-0.448h0.199c0.221,0,0.437-0.188,0.646-0.564c0.133-0.122,0.305-0.183,0.515-0.183c0.32-0.155,0.681-0.448,1.079-0.88
			l0.448-0.299c0.266-0.243,0.47-0.448,0.614-0.614c0.021,0,0.033-0.011,0.033-0.033l0.266,0.033l0.033-0.1
			c0-0.022-0.012-0.061-0.033-0.116v-0.066c0-0.089,0.044-0.155,0.133-0.199c0.088-0.044,0.133-0.089,0.133-0.133l-0.1-0.349
			c0.044-0.044,0.066-0.11,0.066-0.199c0-0.222-0.111-0.404-0.332-0.548l-0.033-0.1v-0.133c-0.111-0.044-0.238-0.077-0.382-0.1
			c-0.089-0.243-0.38-0.465-0.872-0.664s-1.214-0.393-2.164-0.581l-1.408-0.282l-0.68,0.066c-0.11,0-0.273-0.022-0.489-0.066
			c-0.215-0.044-0.373-0.066-0.472-0.066c-0.1,0-0.254-0.039-0.464-0.116c-0.299,0.1-0.492,0.149-0.58,0.149l-0.397-0.1l-0.48,0.066
			c-0.95,0-1.426-0.139-1.426-0.415c0-0.874,0.51-1.521,1.528-1.942c0.133-0.044,0.271-0.11,0.415-0.199l1.328-0.415
			c0.11-0.022,0.269-0.083,0.473-0.183c0.205-0.1,0.396-0.183,0.573-0.249l0.232-0.133l0.183-0.033
			c0.089-0.11,0.273-0.225,0.556-0.341s0.739-0.382,1.37-0.797s0.985-0.672,1.063-0.771c0.066-0.044,0.164-0.094,0.291-0.149
			s0.19-0.243,0.19-0.564c0-0.21-0.116-0.359-0.349-0.448l-0.2-0.133c-0.021-0.044-0.074-0.077-0.157-0.1
			c-0.084-0.022-0.172-0.053-0.267-0.092c-0.095-0.038-0.596-0.113-1.505-0.224l-0.965-0.166l-0.383,0.066L140.696,7.5l-0.748,0.216
			L139.631,7.5c0-0.022-0.021-0.033-0.066-0.033c-0.044,0-0.11,0.053-0.199,0.157c-0.089,0.105-0.184,0.158-0.283,0.158
			c-0.177,0-0.354-0.022-0.532-0.066h-0.066c-0.166,0-0.249,0.056-0.249,0.166c0,0.066,0.116,0.293,0.349,0.681l-0.066,0.299
			l0.033,0.382c0,0.089-0.083,0.232-0.248,0.432l-0.033,0.216c-0.066,0.199-0.208,0.537-0.423,1.013
			c-0.216,0.476-0.335,0.77-0.356,0.88l-0.58,1.162l-0.1,0.332c-0.254,0.653-0.437,1.073-0.547,1.262s-0.193,0.382-0.249,0.581
			c-0.055,0.199-0.16,0.393-0.314,0.581l-0.712,1.826c-0.056,0.077-0.139,0.16-0.249,0.249c-0.121,0.299-0.231,0.625-0.331,0.979
			c0,0.321-0.094,0.614-0.281,0.88l-0.066,0.315c0,0.044-0.044,0.146-0.133,0.307c-0.088,0.161-0.154,0.308-0.198,0.44
			c-0.045,0.133-0.111,0.199-0.199,0.199c-0.321,0-0.609-0.219-0.863-0.656c-0.255-0.437-0.432-0.683-0.531-0.738
			c-0.188-0.222-0.282-0.438-0.282-0.647c0-0.199,0.102-0.498,0.307-0.896s0.335-0.67,0.391-0.813
			c0.055-0.144,0.13-0.296,0.224-0.457c0.094-0.16,0.163-0.304,0.208-0.432c0.044-0.127,0.088-0.213,0.133-0.257
			c0.154-0.155,0.243-0.352,0.266-0.59c0.021-0.237,0.16-0.445,0.415-0.622c-0.022-0.056-0.033-0.116-0.033-0.183
			c0-0.089,0.066-0.199,0.199-0.332s0.218-0.263,0.257-0.391c0.039-0.127,0.08-0.234,0.125-0.323l0.133-0.066
			c0.021-0.089,0.038-0.196,0.05-0.324c0.011-0.127,0.094-0.201,0.249-0.224c0.055-0.442,0.146-0.684,0.273-0.723
			c0.127-0.038,0.274-0.124,0.44-0.257c-0.133-0.1-0.199-0.183-0.199-0.249c0-0.243,0.127-0.448,0.382-0.614
			c-0.022-0.056-0.053-0.108-0.092-0.158s-0.058-0.085-0.058-0.107l0.398-0.93c0.121-0.31,0.31-0.554,0.564-0.73h0.033l-0.1-0.448
			c0-0.155,0.166-0.293,0.498-0.415c0.121-0.133,0.171-0.255,0.149-0.365h-0.083l-0.266-0.1l-0.73,0.133
			c-0.199,0.044-0.477,0.133-0.83,0.266l-0.199-0.066h-0.083c-0.045,0-0.133,0.044-0.266,0.133l-0.133,0.083
			c-0.066-0.033-0.133-0.05-0.199-0.05c-0.332,0-0.611,0.036-0.838,0.107c-0.228,0.072-0.423,0.098-0.589,0.075
			c-0.066,0.033-0.183,0.077-0.349,0.133h-0.165c-0.022,0-0.075,0.024-0.158,0.074s-0.268,0.114-0.556,0.191
			c-0.133-0.044-0.21-0.066-0.231-0.066c-0.045,0-0.193,0.091-0.448,0.273c-0.254,0.183-0.459,0.28-0.613,0.291
			c-0.155,0.011-0.273,0.05-0.356,0.116s-0.19,0.149-0.323,0.249l-0.199,0.299c-0.044,0.155-0.163,0.285-0.356,0.39
			c-0.193,0.105-0.329,0.197-0.406,0.274s-0.154,0.116-0.232,0.116c-0.133,0-0.284-0.097-0.456-0.291
			c-0.171-0.193-0.257-0.356-0.257-0.489c0-0.365,0.097-0.65,0.29-0.855c0.194-0.204,0.385-0.417,0.573-0.639
			c0.332-0.255,0.799-0.442,1.402-0.564c0.603-0.122,0.959-0.216,1.07-0.282c0-0.022,0.011-0.033,0.033-0.033l0.282,0.1
			c0.066,0.044,0.188-0.027,0.364-0.216c1.018-0.398,1.765-0.598,2.24-0.598h0.066l0.448,0.033l0.349-0.133
			c0.243-0.089,0.426-0.133,0.548-0.133c0.133,0,0.221,0.02,0.266,0.058c0.044,0.039,0.088,0.059,0.133,0.059
			c0.066,0,0.144-0.077,0.232-0.232c0.21-0.11,0.5-0.183,0.87-0.216c0.371-0.033,0.673-0.083,0.905-0.149h0.099l0.398,0.033
			l0.847-0.149l1.128,0.083l0.515-0.083l0.432,0.033l0.963-0.066l1.51,0.232c0.564,0.077,1.145,0.296,1.742,0.655
			c0.598,0.36,0.984,0.637,1.161,0.83c0.178,0.194,0.266,0.474,0.266,0.839c0,0.797-0.547,1.585-1.641,2.365
			c-1.095,0.78-1.962,1.248-2.604,1.403c-0.784,0.299-1.177,0.481-1.177,0.548s0.215,0.136,0.644,0.207
			c0.43,0.072,0.704,0.136,0.825,0.191s0.226,0.094,0.314,0.116c0.088,0.022,0.303,0.1,0.644,0.232s0.589,0.21,0.743,0.232
			c1.321,0.487,2.088,0.979,2.299,1.478c0.033,0.011,0.121,0.03,0.266,0.058c0.144,0.028,0.282,0.291,0.415,0.789
			c0.188,0.033,0.337,0.305,0.448,0.813l0.066,0.199c0.066,0.133,0.1,0.249,0.1,0.349c0,0.886-0.1,1.384-0.299,1.494
			c-0.045,0.044-0.078,0.141-0.1,0.29c-0.022,0.149-0.235,0.438-0.64,0.863c-0.404,0.427-0.711,0.65-0.921,0.673
			c-0.056,0.022-0.149,0.116-0.282,0.282l-0.166,0.133c-0.177,0.089-0.296,0.166-0.356,0.232s-0.119,0.105-0.174,0.116
			c-0.056,0.011-0.128,0.091-0.216,0.24s-0.193,0.225-0.314,0.225c-0.022-0.022-0.078-0.044-0.166-0.066h-0.033
			C144.109,22.657,143.656,22.906,143.192,22.906z"/>
		<path fill="#FFFFFF" d="M149.886,19.785l0.233,0.1c0.022-0.188,0.128-0.349,0.316-0.481h0.134c0.111,0,0.256-0.149,0.434-0.448
			l0.283-0.166c0.045,0.022,0.111,0.033,0.2,0.033c0.066,0,0.131-0.044,0.191-0.133c0.062-0.089,0.214-0.26,0.459-0.515h0.066
			c0.067,0,0.147-0.05,0.242-0.149s0.22-0.149,0.375-0.149l0.567-0.149c0.177-0.044,0.276-0.066,0.299-0.066
			c0.1-0.033,0.343,0.169,0.73,0.605c0.388,0.438,0.581,0.861,0.581,1.271c0,0.232-0.122,0.371-0.365,0.415l-0.083,0.066v0.332
			l-0.282,0.614c-0.077,0.166-0.172,0.271-0.282,0.315c-0.1,0.177-0.172,0.299-0.216,0.365l-0.232,0.033l-0.1,0.1v0.415
			c-0.1,0.133-0.243,0.423-0.432,0.871s-0.282,0.733-0.282,0.855c0,0.21,0.044,0.315,0.133,0.315c0.066,0,0.133-0.027,0.199-0.083
			s0.157-0.119,0.273-0.191c0.116-0.071,0.202-0.146,0.258-0.224c0.055-0.077,0.171-0.146,0.348-0.208
			c0.178-0.061,0.344-0.174,0.498-0.34c0.155-0.166,0.266-0.276,0.332-0.332s0.138-0.13,0.216-0.225
			c0.077-0.094,0.127-0.141,0.149-0.141c0.066,0,0.171-0.022,0.315-0.066c0.021-0.122,0.044-0.21,0.065-0.266l0.398-0.199
			l0.963-0.863l0.132-0.166c0.177-0.044,0.288-0.077,0.332-0.1c0.089-0.299,0.238-0.515,0.448-0.647c0-0.044,0.055-0.077,0.166-0.1
			c0.088-0.177,0.201-0.318,0.34-0.424c0.138-0.104,0.251-0.234,0.34-0.39l0.382-0.315c0.11-0.044,0.188-0.11,0.232-0.199
			c0.575-0.509,0.932-0.8,1.069-0.872c0.139-0.071,0.363-0.107,0.673-0.107s0.561,0.119,0.754,0.356
			c0.194,0.238,0.404,0.418,0.631,0.54c0.228,0.122,0.341,0.354,0.341,0.697c0,0.321-0.249,0.936-0.747,1.843
			c-0.321,0.952-0.487,1.535-0.498,1.751c-0.012,0.216-0.062,0.341-0.149,0.374c-0.089,0.033-0.133,0.072-0.133,0.116v0.066
			c0,0.266,0.044,0.398,0.133,0.398c0.066,0,0.157-0.056,0.273-0.166s0.352-0.232,0.705-0.365l0.148,0.033
			c0.32-0.487,0.535-0.75,0.646-0.789c0.11-0.038,0.221-0.138,0.331-0.299c0.109-0.16,0.245-0.246,0.405-0.257
			c0.159-0.011,0.262-0.039,0.306-0.083c0.011-0.266,0.229-0.564,0.653-0.896s0.67-0.498,0.736-0.498
			c0.11,0,0.198,0.083,0.265,0.249s0.135,0.279,0.207,0.34c0.071,0.062,0.107,0.114,0.107,0.158v0.299
			c0,0.144-0.072,0.238-0.215,0.282c-0.111,0.243-0.211,0.388-0.299,0.432l-0.298-0.033c-0.056,0.066-0.103,0.127-0.142,0.183
			c-0.038,0.056-0.063,0.077-0.074,0.066c-0.088,0.022-0.245,0.169-0.472,0.439c-0.227,0.271-0.429,0.496-0.604,0.673l-0.066,0.1
			c-0.089,0.066-0.172,0.11-0.249,0.133l-0.298,0.249c-0.11-0.066-0.177-0.1-0.199-0.1c-0.021,0-0.069,0.044-0.141,0.133
			s-0.216,0.202-0.431,0.34c-0.216,0.139-0.378,0.297-0.488,0.474l-0.266,0.266l-0.348,0.05c-0.033,0-0.088,0.05-0.166,0.149
			l-0.298,0.382c-0.144,0.188-0.37,0.282-0.68,0.282c-0.066,0-0.151-0.059-0.256-0.175c-0.105-0.116-0.205-0.216-0.299-0.299
			s-0.304-0.332-0.63-0.747s-0.489-0.633-0.489-0.655l0.1-0.581l-0.033-0.398c0-0.077,0.053-0.196,0.157-0.357
			c0.105-0.16,0.158-0.246,0.158-0.257l-0.033-0.647c0.021-0.022,0.044-0.056,0.066-0.1l0.232-0.382
			c-0.022-0.11-0.033-0.232-0.033-0.365l0.066-0.548c-0.199,0.089-0.374,0.269-0.523,0.539c-0.149,0.271-0.346,0.407-0.589,0.407
			c-0.211,0.376-0.372,0.559-0.482,0.548c-0.044,0.044-0.077,0.089-0.1,0.133l-0.232,0.133l-0.282-0.033l-0.1,0.415
			c-0.243,0.133-0.401,0.252-0.473,0.356c-0.072,0.105-0.186,0.214-0.341,0.324l-0.282,0.266h-0.266
			c-0.045,0.299-0.216,0.548-0.515,0.747l-0.133,0.166l-0.299-0.033c-0.111,0.354-0.25,0.57-0.416,0.647
			c-0.188,0-0.445,0.172-0.771,0.515c-0.327,0.343-0.557,0.515-0.689,0.515c-0.964,0-1.744-0.604-2.342-1.81
			c-0.021-0.044-0.074-0.127-0.157-0.249s-0.125-0.31-0.125-0.564c0-0.432,0.059-0.725,0.175-0.88s0.266-0.445,0.448-0.872
			c0.183-0.426,0.318-0.611,0.406-0.556c0.022-0.044,0.033-0.11,0.033-0.199c0.178-0.21,0.266-0.371,0.266-0.481
			c0-0.044-0.021-0.066-0.066-0.066c-0.021,0-0.088,0.033-0.199,0.1l-0.233,0.1c-0.1,0.022-0.172,0.066-0.217,0.133
			c-0.044,0.066-0.122,0.13-0.233,0.19c-0.111,0.062-0.2,0.114-0.267,0.158h-0.05c-0.067-0.066-0.111-0.1-0.134-0.1
			c-0.067,0.177-0.122,0.288-0.167,0.332l-0.2,0.033c-0.245,0.255-0.4,0.382-0.467,0.382c-0.045,0-0.146-0.039-0.301-0.116
			s-0.233-0.155-0.233-0.232l0.117-0.647v-0.299c0-0.022,0.044-0.066,0.133-0.133c0.022,0,0.111-0.119,0.267-0.357
			C149.492,19.904,149.675,19.785,149.886,19.785z"/>
		<path fill="#FFFFFF" d="M168.409,18.457l0.249-0.066l0.1-0.216c0.542-0.321,0.93-0.625,1.163-0.913
			c0.021-0.044,0.071-0.089,0.149-0.133c0.077-0.044,0.16-0.122,0.249-0.232c0.409-0.409,0.896-0.614,1.461-0.614
			c0.664,0,1.018,0.404,1.063,1.212l0.1,0.249c0.088,0.155,0.213,0.471,0.373,0.946s0.241,0.77,0.241,0.88
			c0,0.299-0.095,0.598-0.282,0.896c-0.155,0.077-0.526,0.492-1.112,1.245l-0.166,0.116c-0.089,0.199-0.205,0.398-0.349,0.598
			c-0.222,0.077-0.332,0.16-0.332,0.249v0.299c0,0.022-0.025,0.066-0.075,0.133s-0.119,0.193-0.207,0.382l-0.133,0.199
			c-0.045,0.044-0.089,0.136-0.133,0.273c-0.045,0.139-0.108,0.264-0.191,0.374s-0.124,0.199-0.124,0.266
			c0,0.166,0.216,0.249,0.647,0.249c0.021,0,0.104-0.033,0.249-0.1l0.232,0.066c0.021,0,0.077-0.036,0.166-0.108
			c0.088-0.071,0.224-0.13,0.406-0.174s0.343-0.11,0.481-0.199s0.305-0.166,0.498-0.232s0.379-0.175,0.556-0.324
			s0.352-0.257,0.523-0.323c0.171-0.066,0.332-0.169,0.481-0.308c0.149-0.138,0.317-0.268,0.506-0.39s0.487-0.388,0.896-0.797
			c0.266-0.21,0.448-0.326,0.548-0.349c0.022,0,0.119-0.146,0.291-0.44c0.171-0.293,0.367-0.439,0.589-0.439
			c0.232,0,0.349,0.11,0.349,0.332c0,0.122-0.056,0.238-0.166,0.349v0.1l0.033,0.266c0.022,0.033,0.033,0.083,0.033,0.149
			c0,0.044-0.041,0.11-0.125,0.199c-0.082,0.089-0.141,0.202-0.174,0.34c-0.033,0.139-0.139,0.23-0.315,0.274
			c-0.066,0.243-0.152,0.382-0.257,0.415c-0.105,0.033-0.252,0.144-0.44,0.332s-0.454,0.409-0.797,0.664s-0.578,0.451-0.705,0.589
			c-0.127,0.139-0.213,0.208-0.257,0.208c-0.022,0-0.066-0.022-0.133-0.066s-0.111-0.066-0.133-0.066
			c-0.066,0-0.111,0.077-0.133,0.232l-0.066,0.166c-0.145,0.089-0.228,0.133-0.249,0.133l-0.1-0.033h-0.066
			c-0.133,0-0.199,0.05-0.199,0.149l0.1,0.166v0.033c0,0.155-0.089,0.232-0.266,0.232c-0.122,0-0.477,0.205-1.063,0.614l-0.481,0.1
			l-0.398,0.216c-0.133-0.077-0.216-0.116-0.249-0.116L171,26.791l-0.481,0.033c-0.011,0-0.213-0.11-0.605-0.332
			s-0.628-0.442-0.705-0.664c-0.078-0.222-0.178-0.445-0.299-0.673c-0.122-0.227-0.183-0.384-0.183-0.473
			c0-0.531,0.044-0.91,0.133-1.138c0.088-0.227,0.144-0.396,0.166-0.506c0.021-0.11,0.085-0.229,0.19-0.357
			c0.105-0.127,0.191-0.334,0.258-0.622c0.32-0.642,0.542-1.035,0.664-1.179c0.121-0.144,0.216-0.321,0.282-0.531l0.216-0.299
			c0.021-0.022,0.055-0.108,0.1-0.258c0.044-0.149,0.1-0.234,0.166-0.257c0.088-0.155,0.133-0.255,0.133-0.299
			c0-0.321-0.145-0.481-0.432-0.481c-0.056,0-0.116,0.058-0.183,0.174s-0.219,0.23-0.457,0.341s-0.385,0.193-0.439,0.249
			c-0.056,0.056-0.175,0.124-0.357,0.207s-0.341,0.214-0.474,0.391l-0.282,0.133c-0.089,0.21-0.166,0.326-0.232,0.349
			s-0.271,0.077-0.614,0.166c-0.022,0.011-0.077,0.077-0.166,0.199s-0.216,0.183-0.382,0.183c-0.133,0.133-0.266,0.288-0.398,0.465
			c-0.045,0-0.161,0.044-0.349,0.133l-0.333,0.083c-0.089,0.066-0.186,0.172-0.29,0.315c-0.105,0.144-0.302,0.216-0.59,0.216
			c-0.166,0-0.249-0.133-0.249-0.398c0-0.542,0.19-0.974,0.573-1.295c0.381-0.321,0.661-0.492,0.838-0.515s0.288-0.089,0.332-0.199
			s0.152-0.202,0.324-0.274c0.171-0.071,0.37-0.232,0.598-0.481c0.227-0.249,0.473-0.417,0.738-0.506L168.409,18.457z"/>
		<path fill="#FFFFFF" d="M192.076,23.254h0.066l0.166,0.066c0.022,0,0.044-0.011,0.066-0.033c0-0.188,0.089-0.349,0.267-0.481
			c0.056-0.21,0.181-0.371,0.374-0.481c0.194-0.11,0.502-0.293,0.924-0.548l0.416-0.365l0.199-0.1l0.134-0.166
			c0.122-0.144,0.238-0.216,0.349-0.216c0.167,0,0.25,0.061,0.25,0.183l-0.149,0.332l0.066,0.548c0,0.199-0.069,0.376-0.208,0.531
			s-0.352,0.382-0.64,0.681l-0.848,0.896l-0.449,0.232c-0.111,0.066-0.211,0.144-0.299,0.232l-0.648,0.548
			c0,0.155-0.05,0.271-0.149,0.349h-0.267l-0.133,0.066c-0.077,0.21-0.305,0.415-0.682,0.614l-0.232,0.166
			c-0.078,0.066-0.149,0.1-0.216,0.1l-0.466-0.066l-0.315,0.066c-0.089,0-0.208-0.044-0.357-0.133
			c-0.15-0.089-0.303-0.158-0.457-0.208c-0.155-0.05-0.353-0.254-0.591-0.614c-0.238-0.359-0.368-0.595-0.391-0.705
			c0-0.044-0.025-0.119-0.075-0.225c-0.05-0.104-0.074-0.168-0.074-0.19s0.05-0.133,0.149-0.332v-0.033
			c0-0.033-0.03-0.11-0.092-0.232c-0.061-0.122-0.091-0.271-0.091-0.448c0-0.1-0.033-0.227-0.1-0.382
			c0.088-0.089,0.133-0.155,0.133-0.199s-0.017-0.108-0.05-0.191s-0.05-0.146-0.05-0.19l0.1-0.813l-0.066-0.415l0.033-0.398
			c0-0.232-0.1-0.349-0.298-0.349c-0.088,0-0.198,0.061-0.331,0.183l-0.115,0.033c-0.298,0.144-0.508,0.263-0.629,0.356
			c-0.121,0.095-0.248,0.142-0.381,0.142c-0.065,0.066-0.192,0.127-0.38,0.183l-0.133,0.1c-0.044,0.044-0.132,0.11-0.265,0.199
			c0,0.033-0.207,0.219-0.62,0.556c-0.414,0.338-0.786,0.656-1.117,0.955s-0.57,0.462-0.72,0.489
			c-0.148,0.028-0.223,0.169-0.223,0.424c0,0.044-0.1,0.133-0.298,0.266c-0.022,0-0.138,0.122-0.348,0.365
			c-0.176-0.133-0.275-0.199-0.298-0.199c-0.144,0-0.25,0.183-0.316,0.548c-0.066,0.144-0.244,0.232-0.532,0.266
			c-0.022,0.011-0.062,0.094-0.116,0.249l-0.066,0.066h-0.167c-0.022,0-0.1,0.063-0.233,0.19c-0.133,0.128-0.249,0.208-0.35,0.241
			c-0.144,0.299-0.266,0.448-0.365,0.448c-0.045,0-0.108-0.022-0.191-0.066c-0.084-0.044-0.187-0.083-0.308-0.116
			c-0.122-0.033-0.258-0.169-0.407-0.407c-0.149-0.237-0.224-0.439-0.224-0.605c0-1.229,0.237-1.898,0.714-2.009l0.033-0.066v-0.133
			c0-0.144,0.063-0.246,0.19-0.308c0.127-0.061,0.258-0.183,0.391-0.365s0.221-0.284,0.266-0.307h0.216
			c0.044,0,0.066-0.116,0.066-0.349c0-0.066,0.027-0.127,0.083-0.183c0.055-0.056,0.088-0.136,0.1-0.241
			c0.011-0.104,0.091-0.276,0.24-0.515c0.149-0.237,0.225-0.379,0.225-0.423l-0.033-0.066c-0.277,0.255-0.477,0.393-0.598,0.415
			c-0.122,0.022-0.288,0.183-0.498,0.481l-0.266-0.05c-0.466,0.343-0.754,0.537-0.865,0.581c-0.11,0.044-0.233,0.172-0.366,0.382
			c0,0.066-0.039,0.11-0.116,0.133c-0.078,0.022-0.223,0.11-0.433,0.266h-0.101c-0.277,0-0.416-0.199-0.416-0.598l0.349-0.946
			c0.099-0.299,0.334-0.551,0.704-0.756c0.371-0.204,0.684-0.4,0.938-0.589s0.509-0.288,0.764-0.299l0.115-0.166
			c0.376-0.144,0.631-0.371,0.764-0.681s0.314-0.465,0.547-0.465c0.608,0,1.073,0.224,1.394,0.672s0.48,0.806,0.48,1.071
			l0.033,0.448c0,0.155-0.033,0.371-0.099,0.647c-0.133,0.199-0.199,0.349-0.199,0.448c0,0.089,0.055,0.133,0.166,0.133
			c0.065,0,0.154-0.047,0.265-0.142c0.11-0.094,0.235-0.18,0.373-0.257c0.139-0.077,0.219-0.144,0.241-0.199
			c0.11-0.266,0.304-0.448,0.58-0.548s0.448-0.183,0.515-0.249l0.166-0.133l0.133-0.249c0.298-0.133,0.497-0.255,0.597-0.365
			s0.231-0.183,0.397-0.216s0.354-0.133,0.564-0.299l0.249-0.066l0.232-0.133c0.021-0.022,0.088-0.05,0.198-0.083
			c0.111-0.033,0.274-0.092,0.489-0.175c0.216-0.083,0.362-0.124,0.44-0.124c0.563,0,1.009,0.227,1.335,0.681
			s0.489,0.819,0.489,1.096l-0.033,0.299l0.066,0.448v0.066l-0.133,0.913l0.033,0.315c0,0.521-0.11,0.88-0.332,1.079
			c-0.056,0.022-0.083,0.077-0.083,0.166v0.149l0.332,0.697c0.1,0.243,0.177,0.365,0.232,0.365l0.533-0.149
			c0.154-0.044,0.282-0.16,0.383-0.349c0.089-0.044,0.243-0.177,0.466-0.398C191.826,23.343,191.931,23.254,192.076,23.254z"/>
		<path fill="#FFFFFF" d="M197.764,18.589l0.232-0.415c0.066-0.1,0.152-0.202,0.258-0.308c0.105-0.104,0.219-0.376,0.341-0.813
			c0.122-0.437,0.258-0.738,0.407-0.904s0.368-0.249,0.656-0.249c0.166,0,0.385,0.08,0.656,0.24
			c0.271,0.161,0.537,0.646,0.798,1.453s0.391,1.378,0.391,1.71c0,0.133,0.039,0.302,0.116,0.506
			c0.077,0.205,0.127,0.363,0.149,0.474c-0.089,0.188-0.133,0.293-0.133,0.315l0.033,0.681l-0.199,0.548v0.398
			c-0.133,0.222-0.199,0.359-0.199,0.415c0,0.066,0.022,0.133,0.066,0.199c0.52-0.222,0.835-0.401,0.945-0.54
			c0.11-0.138,0.219-0.224,0.323-0.257s0.279-0.177,0.522-0.432l0.314-0.166c0.11-0.133,0.205-0.252,0.282-0.357
			c0.077-0.104,0.168-0.18,0.273-0.224c0.104-0.044,0.229-0.122,0.372-0.232c0.145-0.11,0.354-0.238,0.631-0.382l0.165-0.199
			c0.166-0.188,0.362-0.338,0.589-0.448s0.351-0.166,0.373-0.166c0.077,0,0.157,0.103,0.24,0.307
			c0.083,0.205,0.124,0.407,0.124,0.606c0,0.188-0.107,0.373-0.323,0.556s-0.362,0.318-0.439,0.407
			c-0.078,0.089-0.255,0.166-0.531,0.232c-0.022,0.011-0.204,0.238-0.547,0.681l-0.332,0.199l-0.166,0.216
			c-0.021,0.044-0.171,0.089-0.447,0.133c-0.011,0-0.036,0.056-0.075,0.166c-0.038,0.11-0.157,0.188-0.356,0.232
			c-0.397,0.365-0.603,0.57-0.613,0.614l-0.349,0.066c-0.066,0.21-0.121,0.338-0.165,0.382c-0.266,0.066-0.415,0.177-0.448,0.332
			c-0.033,0.022-0.089,0.044-0.166,0.066l-0.066,0.05c-0.254,0.199-0.503,0.321-0.746,0.365l-0.382,0.1l-0.133,0.199
			c0,0.056-0.136,0.127-0.406,0.216s-0.473,0.199-0.605,0.332l-0.281,0.216c-0.343,0.133-0.559,0.255-0.647,0.365h-0.232
			c-0.154,0-0.397,0.113-0.729,0.34c-0.331,0.228-0.597,0.341-0.796,0.341c-0.642,0-1.081-0.08-1.318-0.241
			c-0.237-0.16-0.434-0.359-0.589-0.598c-0.154-0.237-0.296-0.429-0.423-0.572s-0.19-0.26-0.19-0.349
			c0-0.077,0.053-0.155,0.157-0.232c0.105-0.077,0.219-0.235,0.34-0.474c0.122-0.237,0.432-0.39,0.929-0.456
			c0.022,0,0.103-0.033,0.241-0.1c0.138-0.066,0.251-0.1,0.34-0.1c0.11,0,0.248,0.1,0.414,0.299c0,0.022,0.022,0.033,0.066,0.033
			l0.266-0.033c0.121,0.089,0.204,0.133,0.249,0.133c0.265,0,0.547-0.133,0.846-0.398l0.066-0.033h0.133
			c0.033,0,0.088-0.094,0.165-0.282l0.282-0.581l0.581-0.747v-0.166c0-0.033,0.033-0.133,0.1-0.299V21.71
			c0-0.1,0.065-0.163,0.198-0.191c0.133-0.027,0.199-0.097,0.199-0.207l-0.033-0.133c-0.088-0.122-0.133-0.216-0.133-0.282
			l0.166-0.332l-0.033-0.349l0.066-0.133c-0.044-0.155-0.066-0.243-0.066-0.266l0.066-0.415c0-0.011-0.03-0.116-0.092-0.315
			c-0.061-0.199-0.107-0.299-0.141-0.299c-0.066,0-0.277,0.172-0.632,0.515s-0.565,0.587-0.632,0.73s-0.207,0.273-0.424,0.39
			c-0.216,0.116-0.362,0.247-0.44,0.391c-0.077,0.144-0.172,0.227-0.282,0.249l-1.114,0.896l-1.213,0.896
			c-0.089,0.1-0.144,0.149-0.166,0.149c-0.41,0-0.615-0.227-0.615-0.681c0-0.144,0.083-0.404,0.249-0.78
			c0.078-0.044,0.136-0.077,0.175-0.1s0.059-0.039,0.059-0.05s-0.012-0.017-0.033-0.017l0.1,0.066h0.033
			c0.409-0.276,0.676-0.438,0.797-0.481c0.122-0.044,0.233-0.166,0.333-0.365l0.698-0.498c0.177-0.133,0.448-0.376,0.813-0.73
			C197.432,19.015,197.665,18.755,197.764,18.589z"/>
	</g>
	<g>
		<path fill="#FFFFFF" d="M19.596,18.13c0.958-0.451,1.27-1.79,0.701-2.981c-0.57-1.191-1.805-1.795-2.759-1.338
			c-0.958,0.452-1.269,1.791-0.7,2.988C17.408,17.99,18.643,18.588,19.596,18.13L19.596,18.13z M19.596,18.13"/>
		<path fill="#FFFFFF" d="M22.461,11.009c0.915,5.75-3.177,10.061-3.177,10.061s-3.373-5.707-9.044-7.433
			c11.034,8.069,4.753,18.131,4.753,18.131h3.197C18.191,31.768,25.614,18.954,22.461,11.009L22.461,11.009z M22.461,11.009"/>
		<path fill="#FFFFFF" d="M16.229,11.666c-0.059-0.093-0.121-0.189-0.185-0.297c-0.292-0.506-0.423-0.973-0.423-0.973
			s0.336,0.355,0.628,0.855c0.058,0.107,0.112,0.209,0.161,0.312c0.048-0.242,0.102-0.733-0.132-1.139
			c-0.32-0.559-1.065-0.729-1.065-0.729s-0.219,0.729,0.102,1.286C15.547,11.383,16.001,11.587,16.229,11.666L16.229,11.666z
			 M16.229,11.666"/>
		<path fill="#FFFFFF" d="M23.556,15.899c0.185,0.155,0.588,0.447,1.056,0.447c0.643,0,1.163-0.555,1.163-0.555
			s-0.52-0.554-1.163-0.554c-0.467,0-0.871,0.291-1.056,0.451c0.112-0.009,0.229-0.015,0.35-0.015c0.584,0,1.056,0.117,1.056,0.117
			s-0.472,0.117-1.056,0.117C23.785,15.914,23.668,15.904,23.556,15.899L23.556,15.899z M23.556,15.899"/>
		<path fill="#FFFFFF" d="M21.221,11.251c0.292-0.5,0.627-0.855,0.627-0.855s-0.131,0.472-0.428,0.973
			c-0.059,0.107-0.122,0.204-0.185,0.297c0.233-0.078,0.686-0.282,0.92-0.685c0.321-0.557,0.102-1.286,0.102-1.286
			s-0.744,0.176-1.065,0.729c-0.234,0.405-0.18,0.896-0.137,1.139C21.104,11.466,21.158,11.359,21.221,11.251L21.221,11.251z
			 M21.221,11.251"/>
		<path fill="#FFFFFF" d="M18.472,8.216c0-1.294,0.263-2.345,0.263-2.345s0.258,1.051,0.258,2.345c0,0.278-0.01,0.536-0.029,0.778
			c0.355-0.408,1.007-1.299,1.007-2.34c0-1.43-1.236-2.589-1.236-2.589S17.5,5.225,17.5,6.655c0,1.041,0.651,1.932,1.006,2.34
			C18.487,8.752,18.472,8.495,18.472,8.216L18.472,8.216z M18.472,8.216"/>
		<path fill="#FFFFFF" d="M10.201,12.292c0.9,0.521,2,0.4,2.536,0.299c-0.224-0.103-0.458-0.225-0.691-0.36
			c-1.123-0.647-1.901-1.396-1.901-1.396s1.04,0.297,2.16,0.943c0.238,0.142,0.458,0.282,0.662,0.418
			c-0.18-0.516-0.623-1.521-1.527-2.043c-1.237-0.716-2.862-0.224-2.862-0.224S8.96,11.579,10.201,12.292L10.201,12.292z
			 M10.201,12.292"/>
		<path fill="#FFFFFF" d="M27.263,19.292c-0.899-0.516-1.995-0.401-2.53-0.3c0.224,0.107,0.453,0.224,0.691,0.36
			c1.119,0.646,1.902,1.396,1.902,1.396s-1.042-0.297-2.165-0.943c-0.238-0.137-0.452-0.278-0.657-0.419
			c0.175,0.516,0.623,1.522,1.523,2.043c1.24,0.718,2.861,0.224,2.861,0.224S28.504,20.004,27.263,19.292L27.263,19.292z
			 M27.263,19.292"/>
		<path fill="#FFFFFF" d="M12.959,19.386c-0.199,0.141-0.418,0.277-0.656,0.419c-1.12,0.646-2.16,0.948-2.16,0.948
			s0.779-0.755,1.901-1.401c0.233-0.137,0.467-0.253,0.687-0.36c-0.531-0.102-1.631-0.224-2.531,0.3
			c-1.24,0.713-1.625,2.361-1.625,2.361s1.621,0.494,2.862-0.224C12.336,20.909,12.785,19.902,12.959,19.386L12.959,19.386z
			 M12.959,19.386"/>
		<path fill="#FFFFFF" d="M24.505,12.196c0.205-0.141,0.423-0.276,0.662-0.418c1.119-0.646,2.16-0.943,2.16-0.943
			s-0.778,0.749-1.902,1.396c-0.238,0.136-0.467,0.258-0.691,0.36c0.535,0.102,1.63,0.223,2.53-0.299
			c1.241-0.714,1.625-2.363,1.625-2.363s-1.621-0.492-2.861,0.224C25.128,10.674,24.685,11.68,24.505,12.196L24.505,12.196z
			 M24.505,12.196"/>
		<path fill="#FFFFFF" d="M13.914,8.056c-0.186-0.272-0.375-0.564-0.559-0.886c-0.872-1.504-1.27-2.895-1.27-2.895
			s1.007,1.041,1.873,2.55c0.186,0.316,0.345,0.628,0.487,0.924c0.136-0.715,0.296-2.185-0.4-3.396
			c-0.958-1.658-3.172-2.175-3.172-2.175s-0.656,2.17,0.303,3.834C11.87,7.219,13.223,7.818,13.914,8.056L13.914,8.056z
			 M13.914,8.056"/>
		<path fill="#FFFFFF" d="M23.556,23.532c0.185,0.268,0.375,0.56,0.56,0.88c0.866,1.508,1.27,2.9,1.27,2.9s-1.007-1.047-1.878-2.55
			c-0.181-0.321-0.34-0.628-0.481-0.924c-0.136,0.715-0.296,2.184,0.399,3.393c0.958,1.657,3.172,2.177,3.172,2.177
			s0.657-2.174-0.301-3.833C25.6,24.364,24.242,23.765,23.556,23.532L23.556,23.532z M23.556,23.532"/>
		<path fill="#FFFFFF" d="M8.576,16.142c-1.736,0-3.144-0.351-3.144-0.351s1.407-0.35,3.144-0.35c0.371,0,0.72,0.018,1.047,0.043
			c-0.55-0.477-1.747-1.353-3.144-1.353c-1.917,0-3.469,1.659-3.469,1.659s1.557,1.658,3.469,1.658c1.396,0,2.593-0.875,3.144-1.352
			C9.292,16.123,8.947,16.142,8.576,16.142L8.576,16.142z M8.576,16.142"/>
		<path fill="#FFFFFF" d="M30.985,14.137c-1.396,0-2.588,0.871-3.138,1.348c0.326-0.025,0.671-0.043,1.042-0.043
			c1.736,0,3.143,0.35,3.143,0.35s-1.406,0.351-3.143,0.351c-0.37,0-0.715-0.02-1.042-0.044c0.55,0.482,1.742,1.352,3.138,1.352
			c1.917,0,3.469-1.658,3.469-1.658S32.902,14.137,30.985,14.137L30.985,14.137z M30.985,14.137"/>
		<path fill="#FFFFFF" d="M13.958,24.762c-0.866,1.503-1.873,2.55-1.873,2.55s0.398-1.396,1.27-2.9
			c0.185-0.316,0.374-0.607,0.559-0.885c-0.691,0.238-2.044,0.837-2.739,2.048c-0.964,1.659-0.303,3.833-0.303,3.833
			s2.214-0.513,3.172-2.174c0.697-1.212,0.541-2.681,0.4-3.396C14.297,24.134,14.143,24.441,13.958,24.762L13.958,24.762z
			 M13.958,24.762"/>
		<path fill="#FFFFFF" d="M23.507,6.82c0.871-1.503,1.878-2.544,1.878-2.544s-0.404,1.391-1.275,2.895
			c-0.18,0.316-0.37,0.613-0.555,0.886c0.686-0.238,2.039-0.837,2.739-2.048c0.958-1.66,0.301-3.835,0.301-3.835
			s-2.213,0.521-3.172,2.18c-0.701,1.207-0.54,2.677-0.404,3.392C23.167,7.454,23.323,7.142,23.507,6.82L23.507,6.82z M23.507,6.82"
			/>
	</g>
</g>
</svg>
