<?xml version="1.0" encoding="utf-8"?>
<!-- Generator: Adobe Illustrator 16.0.0, SVG Export Plug-In . SVG Version: 6.00 Build 0)  -->
<!DOCTYPE svg PUBLIC "-//W3C//DTD SVG 1.1//EN" "http://www.w3.org/Graphics/SVG/1.1/DTD/svg11.dtd">
<svg version="1.1" id="Layer_1" xmlns="http://www.w3.org/2000/svg" xmlns:xlink="http://www.w3.org/1999/xlink" x="0px" y="0px"
	 width="221.667px" height="61.667px" viewBox="0 0 221.667 61.667" enable-background="new 0 0 221.667 61.667"
	 xml:space="preserve">
<g>
	<g>
		<g>
			<g>
				<path fill="#FFFFFF" d="M51.664,53.635l-7.3-7.301c2.098-2.211,3.841-4.713,5.184-7.447c1.204-2.451,0.506-5.412-1.66-7.042
					c-1.896-1.431-4.029-2.392-6.344-2.866c-0.861-0.174-1.537-0.789-1.808-1.641c-0.262-0.828-0.075-1.66,0.517-2.287
					c0.731-0.779,1.748-1.207,2.861-1.207c0,0,1.97-0.004,2.143-0.01c2.068-0.07,3.859-1.227,4.793-3.092
					c0.931-1.861,0.78-3.986-0.401-5.684c-2.934-4.207-7.533-6.803-12.623-7.125c-7.216-0.441-14.38,1.709-20.167,6.084l0.963,1.273
					c5.482-4.145,12.258-6.186,19.105-5.76c4.6,0.289,8.759,2.639,11.413,6.445c0.844,1.207,0.948,2.723,0.282,4.055
					s-1.944,2.158-3.418,2.207c-0.183,0.006-2.092,0.01-2.09,0.01c-1.56,0-2.989,0.607-4.024,1.707
					c-0.984,1.045-1.312,2.492-0.876,3.867c0.443,1.391,1.595,2.434,3.01,2.725c2.079,0.422,3.999,1.29,5.702,2.574
					c1.555,1.17,2.055,3.297,1.188,5.061c-1.382,2.818-3.21,5.373-5.436,7.596c-5.826,5.828-13.862,8.875-22.133,8.359
					C12.978,53.66,6.91,47.592,6.434,40.023c-0.418-6.693,1.548-13.369,5.542-18.798l-1.285-0.947
					c-4.218,5.73-6.295,12.781-5.853,19.843c0.527,8.373,7.237,15.084,15.606,15.609c0.636,0.041,1.271,0.059,1.904,0.059
					c7.759,0,15.245-2.975,20.886-8.324l7.3,7.299L51.664,53.635z M51.664,53.635"/>
				<path fill="#FFFFFF" d="M22.349,56.289c-0.644,0-1.29-0.018-1.937-0.061c-8.62-0.541-15.53-7.453-16.073-16.076
					c-0.45-7.184,1.662-14.347,5.948-20.169l0.297-0.404l2.091,1.539l-0.296,0.402c-3.923,5.334-5.857,11.894-5.446,18.472
					c0.461,7.318,6.326,13.184,13.644,13.645c8.18,0.514,16.001-2.465,21.748-8.213c2.187-2.184,3.983-4.695,5.341-7.463
					c0.761-1.547,0.323-3.416-1.04-4.441c-1.646-1.239-3.496-2.076-5.501-2.482c-1.591-0.326-2.889-1.5-3.387-3.064
					c-0.491-1.551-0.122-3.182,0.989-4.359c1.019-1.084,2.385-1.729,3.888-1.846V21.75l0.475-0.002c0.008,0,0.016,0,0.023,0h0.005
					c0.095,0,1.895-0.004,2.071-0.01c1.287-0.043,2.404-0.766,2.986-1.932c0.584-1.166,0.492-2.49-0.244-3.545
					c-2.567-3.68-6.59-5.951-11.035-6.232c-6.706-0.412-13.433,1.623-18.772,5.66l-0.398,0.301l-1.567-2.07l0.399-0.301
					c5.823-4.402,13.183-6.629,20.499-6.186c5.244,0.332,9.982,3.008,13.003,7.338c1.288,1.852,1.452,4.166,0.438,6.195
					c-1.017,2.031-2.97,3.291-5.223,3.367c-0.175,0.006-2.159,0.01-2.159,0.01c-0.976,0-1.862,0.373-2.498,1.049
					c-0.469,0.498-0.612,1.135-0.404,1.795c0.216,0.678,0.75,1.164,1.431,1.301c2.393,0.492,4.594,1.486,6.545,2.957
					c2.357,1.773,3.118,4.996,1.809,7.662c-1.291,2.629-2.951,5.053-4.938,7.215l7.312,7.313l-1.837,1.836l-7.312-7.311
					C37.517,53.406,30.123,56.289,22.349,56.289z M10.8,20.979C6.85,26.54,4.912,33.307,5.337,40.09
					c0.512,8.121,7.02,14.631,15.139,15.141c8.353,0.531,16.397-2.422,22.415-8.129l0.354-0.336l7.29,7.291l0.423-0.422l-7.29-7.293
					l0.335-0.352c2.064-2.178,3.779-4.641,5.098-7.324c1.098-2.236,0.462-4.936-1.512-6.422c-1.833-1.38-3.899-2.313-6.145-2.774
					c-1.039-0.209-1.856-0.949-2.184-1.979c-0.318-1.008-0.089-2.021,0.63-2.783c0.825-0.879,1.971-1.363,3.225-1.363
					c-0.001,0,1.954-0.004,2.126-0.01c1.881-0.063,3.512-1.115,4.362-2.814c0.848-1.695,0.711-3.631-0.364-5.176
					c-2.845-4.08-7.308-6.6-12.244-6.912c-6.904-0.424-13.864,1.623-19.433,5.686l0.359,0.477
					c5.464-3.982,12.252-5.988,19.037-5.563c4.752,0.301,9.05,2.727,11.792,6.658c0.95,1.359,1.069,3.066,0.319,4.564
					c-0.749,1.5-2.188,2.428-3.848,2.484c-0.181,0.006-2.006,0.01-2.103,0.01c-1.424,0-2.725,0.551-3.665,1.551
					c-0.858,0.91-1.144,2.172-0.764,3.371c0.389,1.219,1.397,2.133,2.634,2.387c2.151,0.438,4.138,1.334,5.902,2.663
					c1.746,1.315,2.308,3.704,1.336,5.682c-1.406,2.867-3.267,5.467-5.531,7.729c-5.95,5.951-14.044,9.029-22.518,8.504
					c-7.819-0.492-14.087-6.76-14.579-14.58c-0.415-6.646,1.48-13.273,5.346-18.72L10.8,20.979z"/>
			</g>
		</g>
		<g>
			<path fill="#FFFFFF" d="M14.46,20.586c0.001,0,0.001,0,0.002,0l9.97,9.201C24.585,29.93,24.78,30,24.974,30
				c0.204,0,0.409-0.078,0.564-0.234v-0.002l0.984,0.984c-0.079,0.072-0.157,0.146-0.233,0.223c-0.438,0.438-0.68,1.028-0.68,1.659
				c0,0.631,0.243,1.221,0.68,1.657c1.506,1.508,3.509,2.338,5.641,2.338c2.131,0,4.134-0.83,5.641-2.336
				c0.438-0.438,0.679-1.027,0.679-1.659c0-0.631-0.242-1.222-0.679-1.657c-1.507-1.508-3.51-2.338-5.641-2.338
				c-1.476,0-2.889,0.398-4.119,1.143l-1.143-1.143c0.303-0.303,0.313-0.791,0.021-1.105l-9.203-9.967
				c-0.069-0.074-0.151-0.135-0.242-0.178c-1.193-2.293-3.275-4.16-5.925-5.299c-1.545-0.662-2.911-1.625-4.062-2.863
				c-0.242-0.26-0.642-0.324-0.955-0.164C5.995,9.213,5.821,9.547,5.87,9.889C6.579,14.756,9.856,18.823,14.46,20.586L14.46,20.586z
				 M27.207,32.63c0-0.205,0.075-0.391,0.211-0.527c0.076-0.076,0.155-0.15,0.235-0.223l2.956,2.956
				c-1.187-0.236-2.309-0.795-3.191-1.68C27.282,33.021,27.207,32.835,27.207,32.63L27.207,32.63z M31.93,30.233
				c1.704,0,3.307,0.664,4.511,1.872c0.137,0.135,0.211,0.32,0.211,0.525s-0.074,0.391-0.211,0.528
				c-0.962,0.963-2.209,1.541-3.515,1.734l-3.941-3.941C29.884,30.483,30.887,30.233,31.93,30.233L31.93,30.233z M24.951,28.094
				l-8.796-8.117l0.722-0.721l8.117,8.795L24.951,28.094z M10.69,13.555"/>
		</g>
		<g>
			<path fill="#FAA61A" d="M11.982,39.986c0.229,0.273,0.525,0.375,0.734,0.43c0.449,0.111,0.898,0.115,1.295,0.119
				c0.477,0.006,0.891,0.01,1.169,0.184c0.392,0.242,0.538,0.881,0.593,1.244c0.03,0.197,0.048,0.396,0.068,0.594
				c0.055,0.537,0.11,1.09,0.324,1.652c0.173,0.451,0.422,0.809,0.736,1.061c0.457,0.369,0.989,0.484,1.489,0.484
				c0.565,0,1.093-0.146,1.425-0.244l-0.428-1.537c-0.574,0.154-1.195,0.287-1.487,0.051c-0.091-0.076-0.178-0.209-0.248-0.391
				c-0.137-0.359-0.182-0.787-0.227-1.238c-0.024-0.227-0.047-0.449-0.08-0.67c-0.163-1.109-0.623-1.928-1.327-2.365
				c-0.657-0.41-1.368-0.418-1.997-0.424c-0.104-0.002-0.208-0.002-0.309-0.008l3.143-2.898c0.27-0.248,0.335-0.646,0.161-0.967
				c-0.174-0.322-0.545-0.486-0.897-0.393c-1.336,0.34-2.715,0.52-4.095,0.531c0.794-1.461,2.181-2.635,3.752-3.17l-0.514-1.513
				c-2.08,0.707-3.828,2.245-4.794,4.216c-0.082,0.17-0.275,0.566-0.17,1.029c0.058,0.244,0.342,1.037,1.64,1.037h0.014
				c0.61-0.002,1.22-0.035,1.824-0.098l-1.431,1.32C11.559,38.754,11.601,39.539,11.982,39.986L11.982,39.986z M11.982,39.986"/>
		</g>
	</g>
	<path fill="#FAA61A" d="M10.779,12.652c2.288,0.982,4.974,2.808,6,4.751l-2.417,2.416c-3.188-1.279-7.5-4.582-7.5-10.333
		C6.862,10.492,9.843,12.25,10.779,12.652L10.779,12.652z"/>
	<g>
		<path fill="#FFFFFF" d="M83.313,26.872c0.076,0.078,0.066,0.211-0.029,0.404c-0.096,0.191-0.23,0.402-0.404,0.633
			c-0.172,0.23-0.346,0.453-0.518,0.664c-0.174,0.211-0.299,0.355-0.375,0.432c-0.922,1.037-1.748,1.932-2.479,2.68
			c-0.73,0.751-1.326,1.396-1.787,1.933c0,0.037-0.01,0.26-0.029,0.662c-0.02,0.404-0.027,0.625-0.027,0.664
			c-0.078,1.305-0.107,2.621-0.088,3.947s-0.066,2.66-0.258,4.006c-0.23,1.537-0.473,2.775-0.721,3.719
			c-0.25,0.939-0.51,1.709-0.779,2.305s-0.547,1.096-0.836,1.498c-0.287,0.404-0.604,0.855-0.949,1.355
			c-0.309,0.422-0.654,0.787-1.038,1.094c-0.385,0.309-0.903,0.672-1.556,1.096c-0.885,0.537-1.807,0.941-2.768,1.211
			c-0.961,0.268-1.844,0.316-2.65,0.145c-0.808-0.174-1.489-0.605-2.047-1.297c-0.557-0.693-0.873-1.73-0.951-3.113
			c-0.076-1.537,0.193-3.055,0.807-4.553c0.615-1.5,1.346-2.863,2.191-4.094c0.844-1.229,1.671-2.268,2.478-3.111
			c0.808-0.846,1.364-1.422,1.672-1.729c0.499-0.539,0.95-1,1.354-1.385c0.403-0.385,0.816-0.74,1.239-1.066
			s0.874-0.682,1.354-1.066s1.047-0.844,1.699-1.383c0.154-0.923,0.25-1.894,0.289-2.911c0.037-1.018,0.037-2.064,0-3.141
			c-0.691,1.422-1.432,2.535-2.219,3.342c-0.788,0.807-1.499,1.412-2.133,1.816c-0.635,0.403-1.152,0.653-1.557,0.749
			c-0.403,0.098-0.566,0.145-0.49,0.145c-0.729,0.115-1.316,0.145-1.758,0.086c-0.441-0.057-0.787-0.172-1.037-0.346
			s-0.441-0.375-0.576-0.606c-0.135-0.23-0.24-0.461-0.316-0.691c-0.193-0.998-0.184-2.025,0.028-3.082
			c0.21-1.057,0.527-2.066,0.95-3.027c0.423-0.959,0.885-1.844,1.384-2.65s0.96-1.461,1.384-1.961
			c0.076-0.076,0.26-0.277,0.547-0.605c0.289-0.324,0.663-0.691,1.125-1.094c0.461-0.404,1.027-0.816,1.699-1.24
			c0.672-0.422,1.449-0.807,2.334-1.152c0.885-0.191,1.787-0.277,2.709-0.26c0.922,0.02,1.672,0.24,2.248,0.664
			c-0.307,0.115-0.777,0.258-1.412,0.432c-0.633,0.174-1.047,0.299-1.238,0.375v0.115c0,0.115,0.037,0.172,0.115,0.172
			c-0.654-0.152-1.672,0.115-3.055,0.809c-1.384,0.691-2.883,2.016-4.496,3.977c-0.73,1.037-1.288,1.969-1.672,2.795
			c-0.385,0.826-0.662,1.537-0.836,2.133c-0.172,0.596-0.259,1.105-0.259,1.527c0,0.424,0.019,0.75,0.058,0.98
			c0.037,0.152,0.173,0.287,0.403,0.402s0.519,0.135,0.864,0.059c0.999-0.23,1.932-0.74,2.796-1.527s1.651-1.682,2.362-2.682
			c0.711-0.998,1.316-1.979,1.816-2.939c0.498-0.959,0.865-1.729,1.096-2.305c0.383-0.883,0.584-1.701,0.604-2.449
			c0.02-0.75-0.01-1.125-0.086-1.125c0.115,0,0.191,0,0.23,0s0.049,0.01,0.029,0.029s-0.145,0.049-0.375,0.086
			c0.076-0.076,0.154-0.123,0.23-0.143s0.154-0.049,0.23-0.088c-0.039-0.037-0.029-0.086,0.029-0.143
			c0.057-0.059,0.125-0.088,0.201-0.088c0-0.076,0.096-0.152,0.289-0.23l0.346-0.115l0.172-0.115
			c0.154-0.076,0.25-0.135,0.289-0.172c0.037-0.039,0.086-0.059,0.145-0.059c0.057,0,0.162,0.029,0.316,0.086
			c0.152,0.059,0.422,0.145,0.807,0.26c-0.346,0.922-0.643,2.047-0.893,3.373c-0.25,1.324-0.471,2.66-0.664,4.006
			c-0.191,1.344-0.355,2.621-0.488,3.832c-0.137,1.211-0.26,2.162-0.375,2.854c0.307-0.307,0.758-0.672,1.354-1.096
			c0.596-0.422,1.182-0.844,1.758-1.268C81.813,27.852,82.543,27.372,83.313,26.872z M76.049,36.844
			c0.115-0.883,0.096-1.422-0.057-1.613c-0.078-0.115-0.174-0.154-0.289-0.115c-1.037,0.846-1.883,1.557-2.535,2.133
			c-0.654,0.576-1.096,0.961-1.326,1.152c-1.844,1.73-3.219,3.258-4.121,4.582c-0.902,1.326-1.508,2.545-1.814,3.66
			c-0.424,1.23-0.664,2.314-0.721,3.258c-0.059,0.939,0.182,1.854,0.721,2.736c0.959,0.73,2.007,0.875,3.141,0.434
			c1.133-0.443,2.18-1.125,3.141-2.047c1.115-1.268,2.018-3.045,2.709-5.332C75.588,43.406,75.973,40.455,76.049,36.844z"/>
		<path fill="#FFFFFF" d="M85.098,14.94c-0.039-0.346,0.145-0.432,0.549-0.258c0.402,0.172,0.814,0.355,1.238,0.547
			c0.152,0.885,0.268,1.584,0.346,2.104c0.076,0.52,0.135,1.008,0.174,1.471c0.037,0.461,0.076,0.961,0.115,1.498
			c0.037,0.539,0.094,1.248,0.172,2.133c0.346-0.885,0.768-1.701,1.268-2.449c0.5-0.75,1.145-1.393,1.932-1.932
			c0.787-0.537,1.729-0.932,2.824-1.182s2.41-0.336,3.947-0.26c0,0.309-0.105,0.568-0.316,0.779s-0.701,0.373-1.469,0.488
			c-1.115,0.193-2.086,0.568-2.912,1.125s-1.537,1.201-2.133,1.93c-0.596,0.73-1.076,1.51-1.439,2.336
			c-0.365,0.826-0.664,1.584-0.895,2.275c-0.039,0.346-0.086,0.836-0.143,1.471c-0.059,0.633-0.098,1.307-0.117,2.018
			s-0.037,1.402-0.057,2.074c-0.02,0.674,0.01,1.202,0.086,1.587c0.039,0.191-0.049,0.336-0.26,0.432s-0.451,0.162-0.719,0.201
			c-0.27,0.039-0.52,0.02-0.75-0.057c-0.23-0.078-0.346-0.211-0.346-0.405c0.076-3.958-0.029-7.368-0.316-10.231
			C85.588,19.774,85.328,17.208,85.098,14.94z"/>
		<path fill="#FFFFFF" d="M107.922,16.209c-0.039,0.23-0.125,0.711-0.26,1.439c-0.135,0.73-0.279,1.586-0.432,2.566
			c-0.154,0.979-0.289,2.008-0.404,3.082c-0.115,1.076-0.182,2.096-0.201,3.055c-0.02,0.961,0.039,1.779,0.174,2.451
			c0.133,0.672,0.354,1.086,0.662,1.238c0.883,0.424,1.787,0.279,2.709-0.432s1.998-1.797,3.229-3.258
			c0.115,0,0.123,0.154,0.027,0.463c-0.096,0.307-0.25,0.643-0.461,1.008s-0.422,0.73-0.633,1.096
			c-0.213,0.365-0.375,0.605-0.49,0.721c-0.309,0.383-0.75,0.816-1.326,1.297s-1.191,0.863-1.844,1.151
			c-0.654,0.289-1.279,0.414-1.873,0.377c-0.598-0.039-1.086-0.385-1.471-1.04c-0.193-0.461-0.309-1.027-0.346-1.699
			c-0.039-0.672-0.039-1.355,0-2.047c0.037-0.691,0.096-1.326,0.174-1.902c0.076-0.576,0.133-0.998,0.172-1.268
			c-0.807,1.498-1.729,2.922-2.766,4.266c-1.039,1.346-2.057,2.402-3.055,3.171c-1,0.77-1.922,1.182-2.768,1.241
			c-0.846,0.057-1.498-0.434-1.959-1.472c-0.27-0.998-0.27-2.123,0-3.371s0.672-2.373,1.209-3.373
			c0.809-1.383,1.652-2.65,2.537-3.803c0.883-1.154,1.824-2.133,2.824-2.941c0.998-0.807,2.047-1.391,3.141-1.758
			C105.588,16.104,106.73,16.016,107.922,16.209z M97.086,30.848c0.385,0.078,1-0.211,1.844-0.863
			c0.846-0.654,1.73-1.566,2.652-2.738s1.758-2.537,2.508-4.092c0.748-1.557,1.238-3.199,1.469-4.93c-0.154,0-0.375,0-0.662,0
			c-0.289,0-0.625,0.115-1.01,0.348c-1.461,0.961-2.709,2.084-3.746,3.371s-1.844,2.535-2.42,3.746s-0.922,2.297-1.037,3.256
			C96.568,29.907,96.701,30.542,97.086,30.848z"/>
		<path fill="#FFFFFF" d="M122.043,16.266c0.037,0.23-0.145,0.461-0.547,0.691c-0.404,0.23-0.914,0.568-1.527,1.01
			c-0.615,0.441-1.289,1.027-2.018,1.758c-0.73,0.73-1.385,1.691-1.961,2.881c-0.615,1.307-1.057,2.441-1.324,3.4
			c-0.27,0.961-0.213,2.096,0.172,3.402c0.115,0.268,0.279,0.51,0.49,0.719c0.211,0.213,0.527,0.338,0.951,0.375
			c0.844-0.152,1.594-0.363,2.248-0.633c0.652-0.27,1.268-0.596,1.844-0.98c0.576-0.383,1.133-0.797,1.672-1.24
			c0.537-0.439,1.096-0.893,1.672-1.354c0.844-0.807,1.545-1.508,2.104-2.104c0.557-0.596,1.008-1.096,1.354-1.498
			c0.346-0.404,0.645-0.701,0.895-0.895c0.25-0.191,0.508-0.25,0.777-0.172c-0.154,0.346-0.586,1.076-1.297,2.189
			c-0.711,1.115-1.633,2.297-2.766,3.545c-1.135,1.248-2.451,2.42-3.949,3.516c-1.498,1.095-3.111,1.778-4.842,2.048
			c-0.691-0.039-1.258-0.115-1.699-0.23c-0.443-0.115-0.855-0.576-1.24-1.386c-0.461-0.959-0.633-2.121-0.518-3.486
			c0.115-1.363,0.402-2.719,0.863-4.063c0.461-1.346,1.037-2.594,1.73-3.748c0.691-1.152,1.363-1.996,2.018-2.535
			c0.922-0.652,1.775-1.057,2.564-1.211C120.496,16.114,121.273,16.114,122.043,16.266z"/>
		<path fill="#FFFFFF" d="M131.381,16.842c0.115-0.037,0.441-0.145,0.979-0.316c0.539-0.174,0.98-0.201,1.326-0.086
			c1.115-0.039,1.969,0.25,2.564,0.863c0.596,0.615,0.645,1.807,0.145,3.574c-0.73,1.959-1.699,3.594-2.91,4.898
			c-1.211,1.307-2.643,2.557-4.295,3.748c0.385,0.998,0.961,1.555,1.73,1.67c0.768,0.115,1.574-0.008,2.42-0.373
			s1.672-0.855,2.479-1.471c0.807-0.613,1.459-1.152,1.959-1.613c0.809-0.691,1.451-1.277,1.932-1.758s0.988-1.066,1.527-1.758
			c0.115-0.078,0.182-0.068,0.201,0.027c0.02,0.098,0.01,0.24-0.027,0.434c-0.039,0.191-0.098,0.461-0.174,0.807
			c-0.115,0.27-0.23,0.51-0.346,0.721s-0.279,0.441-0.49,0.691s-0.49,0.547-0.836,0.893s-0.77,0.807-1.268,1.385
			c-0.576,0.537-1.135,1.064-1.672,1.584c-0.539,0.52-1.105,0.971-1.699,1.356c-0.598,0.383-1.25,0.652-1.961,0.807
			c-0.711,0.155-1.527,0.155-2.449,0c-0.77-0.27-1.383-0.557-1.844-0.865c-0.463-0.308-0.818-0.624-1.066-0.952
			c-0.252-0.326-0.434-0.623-0.549-0.893s-0.191-0.5-0.23-0.691c-0.191-0.77-0.27-1.807-0.23-3.113s0.422-2.998,1.152-5.072
			c0.5-1.076,1.039-1.988,1.615-2.738C129.939,17.852,130.611,17.266,131.381,16.842z M128.844,27.045
			c0.5-0.27,1.086-0.645,1.758-1.125s1.307-1.037,1.902-1.672c0.596-0.633,1.115-1.334,1.557-2.104
			c0.441-0.768,0.682-1.574,0.721-2.42c0.115-0.576,0.096-0.98-0.059-1.211c-0.076-0.115-0.154-0.174-0.23-0.174
			c-0.652-0.307-1.307-0.209-1.959,0.289c-0.654,0.5-1.25,1.211-1.787,2.133c-0.539,0.922-0.99,1.951-1.355,3.084
			S128.844,26.045,128.844,27.045z"/>
		<path fill="#FFFFFF" d="M151.207,17.016c0.23-0.654,0.537-1.125,0.922-1.412c0.383-0.289,0.768-0.549,1.152-0.779
			c0.152,0.346,0.307,0.904,0.461,1.672c0.152,0.77,0.297,1.613,0.432,2.537c0.135,0.922,0.25,1.844,0.346,2.766
			s0.203,1.711,0.318,2.363c0.076,0.385,0.143,0.807,0.201,1.268c0.057,0.461,0.125,0.961,0.201,1.5
			c0.23-0.115,0.52-0.326,0.865-0.635c0.346-0.307,0.75-0.613,1.211-0.922c0.461-0.307,0.969-0.576,1.527-0.807
			c0.557-0.23,1.182-0.326,1.873-0.289c0.037,0.039,0.115,0.086,0.23,0.145c0.115,0.057,0.211,0.125,0.287,0.201
			c0.078,0.078,0.096,0.154,0.059,0.23c-0.039,0.078-0.174,0.135-0.404,0.174c-0.461,0.076-1.018,0.346-1.672,0.807
			c-0.652,0.461-1.268,0.98-1.844,1.557s-1.066,1.162-1.469,1.758c-0.404,0.596-0.605,1.086-0.605,1.469
			c0.037-0.152,0.076-0.287,0.115-0.402c0.076-0.23,0.115-0.211,0.115,0.057c-0.039,1.461-0.01,3.017,0.086,4.671
			c0.096,1.65,0.086,3.727-0.029,6.225c-0.115,1.996-0.258,3.553-0.432,4.668c-0.174,1.113-0.385,1.988-0.635,2.623
			c-0.25,0.633-0.527,1.133-0.836,1.498c-0.307,0.365-0.672,0.797-1.094,1.297c-0.309,0.307-0.76,0.615-1.355,0.922
			c-0.596,0.309-1.393,0.461-2.391,0.461c-1.961,0-3.305-1.479-4.035-4.438c-0.115-1.23-0.115-2.354,0-3.371
			c0.115-1.02,0.309-1.951,0.576-2.797c0.27-0.846,0.566-1.613,0.893-2.305c0.328-0.691,0.605-1.346,0.836-1.959
			c0.346-0.615,0.701-1.23,1.066-1.846s0.789-1.258,1.268-1.93c0.48-0.674,1.029-1.413,1.643-2.222
			c0.615-0.807,1.326-1.709,2.133-2.709c-0.076-0.537-0.135-1.055-0.172-1.555c-0.078-0.424-0.125-0.846-0.145-1.27
			c-0.02-0.422-0.049-0.748-0.086-0.979c-0.115-0.691-0.24-1.451-0.375-2.277s-0.279-1.633-0.432-2.42
			c-0.154-0.787-0.299-1.5-0.434-2.133C151.445,17.793,151.322,17.323,151.207,17.016z M146.596,43.07
			c-0.23,1.689-0.221,3.17,0.027,4.438c0.252,1.268,0.76,2.17,1.527,2.709c0.309,0.152,0.703,0.26,1.182,0.316
			c0.482,0.059,0.914,0.029,1.297-0.086c1-0.461,1.721-1.365,2.162-2.709c0.441-1.346,0.74-2.893,0.893-4.641
			c0.154-1.748,0.203-3.582,0.145-5.504c-0.057-1.922-0.086-3.727-0.086-5.418c-0.039-0.384-0.078-0.567-0.115-0.548
			c-0.039,0.02-0.154,0.125-0.346,0.317c-0.73,0.77-1.451,1.624-2.162,2.565s-1.373,1.912-1.988,2.912
			c-0.613,0.998-1.143,1.988-1.584,2.967C147.105,41.369,146.787,42.262,146.596,43.07z M151.84,8.254
			c0.346-0.037,0.537,0.164,0.576,0.605s-0.02,0.777-0.172,1.008c-0.346,0.309-0.568,0.559-0.664,0.75
			c-0.096,0.193-0.316,0.309-0.662,0.346c-0.193-0.037-0.365-0.047-0.52-0.029c-0.152,0.021-0.27-0.238-0.346-0.777
			c0.115-0.307,0.309-0.643,0.576-1.008C150.898,8.784,151.301,8.485,151.84,8.254z"/>
		<path fill="#FFFFFF" d="M159.736,15.864c0.729,0.037,1.535,0.143,2.42,0.316c0.885,0.172,1.748,0.402,2.594,0.691
			s1.623,0.615,2.334,0.98s1.297,0.777,1.758,1.238c0.463,0.424,0.73,1.066,0.809,1.932c0.076,0.863,0.018,1.814-0.174,2.854
			c-0.193,1.037-0.49,2.104-0.893,3.197c-0.404,1.096-0.855,2.086-1.355,2.969c-0.5,0.885-1.037,1.613-1.613,2.192
			c-0.576,0.576-1.115,0.864-1.613,0.864c-0.846,0-1.557-0.202-2.133-0.606s-1.037-0.894-1.385-1.47
			c-0.346-0.576-0.604-1.182-0.777-1.816c-0.172-0.633-0.277-1.182-0.316-1.643c-0.115-2.035-0.135-3.842-0.059-5.418
			c0.078-1.574,0.211-2.881,0.404-3.92c-0.115-0.191-0.23-0.363-0.346-0.518s-0.23-0.297-0.346-0.432s-0.25-0.26-0.404-0.375
			c0.154-0.076,0.309-0.191,0.461-0.346C159.41,16.325,159.621,16.094,159.736,15.864z M161.811,29.581
			c0.115,0.154,0.27,0.316,0.461,0.49c0.191,0.172,0.434,0.309,0.721,0.404c0.289,0.096,0.586,0.105,0.895,0.027
			c0.307-0.076,0.633-0.287,0.979-0.633c0.922-0.961,1.615-1.951,2.076-2.969s0.758-1.979,0.893-2.883
			c0.135-0.902,0.115-1.699-0.057-2.391c-0.174-0.693-0.453-1.191-0.836-1.5c-0.309-0.191-0.568-0.354-0.779-0.49
			c-0.211-0.133-0.48-0.258-0.807-0.373s-0.74-0.24-1.238-0.375c-0.5-0.135-1.154-0.316-1.961-0.549
			c-0.385,1.23-0.654,2.461-0.807,3.689c-0.154,1.23-0.221,2.355-0.201,3.373c0.018,1.018,0.096,1.9,0.23,2.65
			S161.656,29.313,161.811,29.581z"/>
		<path fill="#FFFFFF" d="M173.568,15.575c0,1.076-0.01,2.152-0.029,3.229s-0.037,2.113-0.057,3.111
			c-0.02,1-0.039,1.941-0.059,2.824c-0.02,0.885-0.047,1.672-0.086,2.363c0-0.152,0.086-0.527,0.26-1.123s0.412-1.277,0.721-2.047
			c0.307-0.768,0.643-1.586,1.008-2.449c0.365-0.865,0.76-1.633,1.182-2.307c0.424-0.672,0.855-1.199,1.297-1.584
			s0.855-0.5,1.24-0.346c0.844,0.385,1.441,0.941,1.787,1.672s0.594,1.564,0.748,2.506c0.154,0.943,0.307,1.988,0.461,3.143
			c0.154,1.152,0.5,2.363,1.039,3.631c0.23,0.576,0.566,1,1.008,1.268c0.441,0.27,0.865,0.461,1.268,0.576
			c0.404,0.115,0.73,0.184,0.98,0.201c0.25,0.021,0.336,0.088,0.26,0.203c-0.961,0.73-1.787,0.979-2.479,0.748
			s-1.279-0.738-1.758-1.527c-0.482-0.787-0.875-1.729-1.182-2.824c-0.309-1.094-0.588-2.15-0.836-3.17
			c-0.25-1.018-0.471-1.881-0.664-2.594c-0.191-0.711-0.402-1.066-0.633-1.066c-0.346,0.039-0.721,0.367-1.125,0.98
			c-0.402,0.615-0.816,1.383-1.238,2.305c-0.424,0.924-0.826,1.932-1.211,3.027c-0.385,1.094-0.74,2.123-1.066,3.084
			s-0.586,1.785-0.777,2.478c-0.193,0.693-0.309,1.116-0.346,1.27c-0.576,0-0.934,0.018-1.066,0.057
			c-0.135,0.039-0.355-0.152-0.664-0.577c0.193-3.382,0.26-6.581,0.203-9.597c-0.059-3.018-0.145-5.639-0.26-7.869
			c0-0.346,0.086-0.518,0.26-0.518c0.172,0,0.363,0.076,0.576,0.23c0.211,0.154,0.432,0.309,0.662,0.461
			C173.223,15.499,173.414,15.575,173.568,15.575z"/>
		<path fill="#FFFFFF" d="M191.264,16.842c0.115-0.037,0.441-0.145,0.979-0.316c0.539-0.174,0.98-0.201,1.326-0.086
			c1.115-0.039,1.969,0.25,2.564,0.863c0.596,0.615,0.645,1.807,0.145,3.574c-0.73,1.959-1.699,3.594-2.91,4.898
			c-1.211,1.307-2.643,2.557-4.295,3.748c0.385,0.998,0.961,1.555,1.73,1.67c0.768,0.115,1.574-0.008,2.42-0.373
			s1.672-0.855,2.479-1.471c0.807-0.613,1.459-1.152,1.959-1.613c0.809-0.691,1.451-1.277,1.932-1.758s0.988-1.066,1.527-1.758
			c0.115-0.078,0.182-0.068,0.201,0.027c0.02,0.098,0.01,0.24-0.027,0.434c-0.039,0.191-0.098,0.461-0.174,0.807
			c-0.115,0.27-0.23,0.51-0.346,0.721s-0.279,0.441-0.49,0.691s-0.49,0.547-0.836,0.893s-0.77,0.807-1.268,1.385
			c-0.576,0.537-1.135,1.064-1.672,1.584c-0.539,0.52-1.105,0.971-1.699,1.356c-0.598,0.383-1.25,0.652-1.961,0.807
			c-0.711,0.155-1.527,0.155-2.449,0c-0.77-0.27-1.383-0.557-1.844-0.865c-0.461-0.308-0.818-0.624-1.066-0.952
			c-0.25-0.326-0.434-0.623-0.549-0.893s-0.191-0.5-0.23-0.691c-0.191-0.77-0.27-1.807-0.23-3.113s0.424-2.998,1.154-5.072
			c0.498-1.076,1.037-1.988,1.613-2.738C189.822,17.852,190.494,17.266,191.264,16.842z M188.727,27.045
			c0.5-0.27,1.086-0.645,1.758-1.125s1.307-1.037,1.902-1.672c0.596-0.633,1.115-1.334,1.557-2.104
			c0.441-0.768,0.682-1.574,0.721-2.42c0.115-0.576,0.096-0.98-0.059-1.211c-0.076-0.115-0.154-0.174-0.23-0.174
			c-0.652-0.307-1.307-0.209-1.959,0.289c-0.654,0.5-1.25,1.211-1.787,2.133c-0.539,0.922-0.99,1.951-1.354,3.084
			C188.908,24.979,188.727,26.045,188.727,27.045z"/>
		<path fill="#FFFFFF" d="M206.824,14.999c0.961,0.154,1.76,0.365,2.393,0.633c0.635,0.27,1.133,0.568,1.498,0.895
			s0.654,0.662,0.865,1.008s0.412,0.674,0.605,0.98c-0.039,0.154-0.223,0.135-0.547-0.057c-0.328-0.193-0.645-0.385-0.951-0.578
			c-0.846-0.537-1.865-0.863-3.055-0.979c-1.191-0.115-2.297-0.049-3.314,0.201c-1.02,0.25-1.836,0.684-2.449,1.297
			c-0.615,0.615-0.77,1.365-0.463,2.248c0.309,0.885,0.855,1.652,1.643,2.305c0.787,0.654,1.662,1.24,2.623,1.758
			c0.961,0.52,1.922,0.99,2.883,1.412c0.959,0.424,1.748,0.846,2.363,1.27c0.768-0.424,1.42-0.779,1.959-1.066
			c0.537-0.289,1.018-0.557,1.441-0.807c0.422-0.25,0.854-0.48,1.297-0.693c0.441-0.209,0.951-0.451,1.527-0.719
			c0.076-0.039,0.145-0.059,0.201-0.059c0.059,0,0.059,0.049,0,0.145c-0.057,0.096-0.211,0.25-0.461,0.461s-0.645,0.51-1.182,0.893
			c-0.27,0.193-0.77,0.52-1.498,0.98c-0.73,0.461-1.52,0.961-2.363,1.498c0.461,0.424,0.826,0.865,1.096,1.326
			c0.23,0.424,0.393,0.875,0.488,1.355s0.01,0.971-0.258,1.47c-0.77,1.229-1.635,2.19-2.594,2.883
			c-0.961,0.691-1.846,1.172-2.652,1.439c-0.539,0.193-1.133,0.211-1.787,0.059c-0.652-0.154-1.172-0.461-1.555-0.922
			c-0.424-0.615-0.529-1.24-0.318-1.873c0.211-0.635,0.566-1.249,1.066-1.846c0.5-0.597,1.076-1.163,1.729-1.7
			c0.654-0.539,1.23-1.018,1.73-1.441c-0.346-0.383-1.02-0.855-2.018-1.412c-1-0.557-2.027-1.172-3.084-1.844
			s-2.008-1.393-2.854-2.162c-0.844-0.768-1.305-1.537-1.383-2.305c-0.152-0.846-0.047-1.662,0.316-2.451
			c0.367-0.787,0.902-1.479,1.615-2.074c0.709-0.596,1.535-1.037,2.479-1.326C204.797,14.913,205.787,14.844,206.824,14.999z
			 M206.307,34.77c0.422,0.191,0.902,0.191,1.441,0c0.537-0.193,1.045-0.471,1.527-0.836c0.479-0.365,0.902-0.77,1.268-1.211
			c0.365-0.441,0.605-0.836,0.721-1.183c0.115-0.307,0.008-0.643-0.318-1.008s-0.662-0.662-1.008-0.893
			c-0.424,0.307-0.902,0.701-1.441,1.182s-1.008,0.971-1.412,1.47c-0.402,0.5-0.701,0.981-0.893,1.442
			C205.998,34.193,206.037,34.539,206.307,34.77z"/>
	</g>
</g>
</svg>
